<?xml version="1.0" encoding="utf-8"?>
<!-- Generator: Adobe Illustrator 25.0.1, SVG Export Plug-In . SVG Version: 6.00 Build 0)  -->
<svg version="1.1" id="Ebene_1" xmlns="http://www.w3.org/2000/svg" xmlns:xlink="http://www.w3.org/1999/xlink" x="0px" y="0px"
	 viewBox="0 0 841.89 595.28" style="enable-background:new 0 0 841.89 595.28;" xml:space="preserve">
<style type="text/css">
	.st0{fill:#FFFFFF;stroke:#000000;stroke-width:0.5277;stroke-miterlimit:10;}
	.st1{fill:#B2B2B2;}
	.st2{fill:url(#SVGID_1_);}
	.st3{fill:none;stroke:#FFFFFF;stroke-width:1.4958;stroke-miterlimit:10;}
	.st4{clip-path:url(#SVGID_2_);}
	.st5{fill:#FFFFFF;}
	.st6{clip-path:url(#SVGID_3_);}
	.st7{fill:url(#SVGID_4_);}
	.st8{fill:#312783;}
	.st9{fill:#E30613;stroke:#FFFFFF;stroke-miterlimit:10;}
	.st10{font-family:'AvalonPlain';}
	.st11{font-size:14.1732px;}
	.st12{font-size:4.825px;}
</style>
<rect x="52.68" y="139.26" class="st0" width="278.97" height="316.37"/>
<rect x="362.27" y="139.26" class="st0" width="117.42" height="316.37"/>
<rect x="509.19" y="139.26" class="st0" width="281.21" height="316.37"/>
<g id="eNt9aD_12_">
	<g>
		<path class="st1" d="M181.29,308.81c9.5,0,19.01-0.01,28.51,0.02c0.52,0,1.13,0.21,1.54,0.52c7.44,5.64,14.85,11.32,22.27,16.98
			c1,0.77,1.01,0.77,0.13,1.6c-17.25,16.39-34.51,32.78-51.74,49.18c-0.59,0.56-0.92,0.55-1.51-0.01
			c-17.28-16.44-34.57-32.87-51.86-49.29c-0.73-0.69-0.72-0.73,0.07-1.34c7.44-5.68,14.89-11.36,22.31-17.06
			c0.57-0.44,1.14-0.62,1.86-0.62C162.34,308.82,171.81,308.81,181.29,308.81z M175.35,362.91c0.06,0,0.12,0.01,0.17,0.01
			c1.77-11.78,3.54-23.55,5.32-35.39c-6.99,0-13.88,0-20.86,0C165.12,339.38,170.24,351.15,175.35,362.91z M181.65,327.52
			c1.78,11.84,3.55,23.61,5.32,35.39c0.06,0,0.11,0.01,0.17,0.01c5.12-11.78,10.24-23.56,15.39-35.4
			C195.52,327.52,188.65,327.52,181.65,327.52z M143.68,327.48c10.25,11.69,20.35,23.19,30.44,34.7c0.06-0.19,0.02-0.31-0.03-0.43
			c-4.87-11.22-9.75-22.44-14.61-33.67c-0.21-0.49-0.49-0.61-0.99-0.6c-4.65,0.02-9.31,0.01-13.97,0.01
			C144.32,327.48,144.11,327.48,143.68,327.48z M218.77,327.52c-0.3-0.02-0.43-0.04-0.55-0.04c-4.79,0-9.58,0.01-14.37-0.02
			c-0.55,0-0.69,0.29-0.86,0.68c-4.84,11.15-9.69,22.29-14.53,33.44c-0.07,0.17-0.12,0.35-0.18,0.53c0.03,0.01,0.07,0.03,0.1,0.04
			C198.48,350.65,208.57,339.15,218.77,327.52z M181.18,376.34c0.13-0.13,0.18-0.15,0.2-0.2c1.65-3.79,3.3-7.58,4.94-11.38
			c0.11-0.26,0.14-0.58,0.1-0.86c-0.27-1.89-0.57-3.77-0.85-5.65c-1.18-7.83-2.35-15.66-3.53-23.49c-0.24-1.57-0.48-3.14-0.72-4.71
			c-0.18,0.13-0.22,0.27-0.24,0.42c-1.67,11.11-3.35,22.23-5.01,33.34c-0.04,0.28-0.05,0.62,0.06,0.87
			C177.79,368.54,179.48,372.41,181.18,376.34z M146.48,331.71c-0.04,0.02-0.08,0.04-0.11,0.06c0.07,0.11,0.13,0.22,0.2,0.33
			c5.78,8.9,11.57,17.79,17.33,26.69c1.54,2.38,3.07,4.72,5.25,6.61c2.16,1.87,4.17,3.91,6.24,5.88c1.53,1.45,3.06,2.91,4.77,4.53
			c-0.12-0.35-0.16-0.48-0.21-0.59c-1.48-3.42-2.96-6.84-4.45-10.25c-0.14-0.32-0.37-0.6-0.6-0.86
			c-5.59-6.39-11.19-12.77-16.79-19.16C154.23,340.55,150.35,336.13,146.48,331.71z M182.4,375.53c0.03,0.03,0.06,0.07,0.1,0.1
			c0.12-0.11,0.25-0.21,0.36-0.32c4.09-3.88,8.18-7.75,12.25-11.65c0.52-0.5,1-1.08,1.4-1.69c4.89-7.5,9.76-15.01,14.64-22.51
			c1.67-2.57,3.34-5.13,5-7.7c-0.06-0.06-0.12-0.11-0.19-0.17c-0.07,0.14-0.12,0.3-0.22,0.42c-9.42,10.75-18.84,21.49-28.26,32.23
			c-0.14,0.16-0.3,0.33-0.38,0.52C185.52,368.36,183.96,371.95,182.4,375.53z M218.99,326.42c-0.1-0.44-0.16-0.7-0.23-0.96
			c-0.99-3.73-1.99-7.46-2.95-11.2c-0.14-0.54-0.39-0.81-0.92-0.98c-3.04-0.94-6.06-1.92-9.09-2.87c-0.88-0.28-1.84-0.86-2.63-0.69
			c-0.79,0.18-1.41,1.12-2.09,1.74c-1.07,0.98-2.13,1.98-3.25,3.03C204.9,318.48,211.86,322.4,218.99,326.42z M143.47,326.43
			c7.15-4.03,14.13-7.96,21.18-11.93c-1.73-1.61-3.35-3.14-5.01-4.64c-0.17-0.16-0.56-0.21-0.79-0.14
			c-3.81,1.19-7.62,2.41-11.41,3.66c-0.29,0.09-0.61,0.45-0.69,0.75c-0.69,2.46-1.33,4.93-1.98,7.4
			C144.35,323.1,143.94,324.67,143.47,326.43z M198.42,360.31c0.04,0.05,0.08,0.09,0.12,0.14c2.17-2.09,4.5-4.03,6.46-6.3
			c7.42-8.59,14.72-17.28,22.06-25.94c0.17-0.2,0.31-0.41,0.54-0.73c-2.45,0-4.76,0.02-7.06-0.01c-0.59-0.01-0.92,0.17-1.24,0.67
			c-3.61,5.6-7.26,11.19-10.89,16.78C205.09,350.05,201.75,355.18,198.42,360.31z M134.85,327.48c0.26,0.34,0.42,0.55,0.59,0.75
			c4.82,5.69,9.62,11.4,14.48,17.06c3.81,4.44,7.33,9.13,11.77,13c0.78,0.68,1.52,1.42,2.28,2.14c-0.04-0.3-0.17-0.53-0.31-0.75
			c-2.95-4.54-5.9-9.08-8.85-13.62c-3.88-5.98-7.76-11.96-11.67-17.93c-0.19-0.29-0.59-0.61-0.91-0.62
			C139.84,327.46,137.44,327.48,134.85,327.48z M196.52,314.7c-5.03-1.7-9.93-3.36-14.89-5.03c0,5.59,0,11.08,0,16.72
			C186.62,322.47,191.51,318.64,196.52,314.7z M180.87,309.66c-5,1.69-9.89,3.35-14.9,5.04c5.03,3.95,9.91,7.78,14.9,11.7
			C180.87,320.75,180.87,315.26,180.87,309.66z M160,326.74c6.74,0,13.36,0,20.17,0c-5.01-3.93-9.87-7.75-14.8-11.62
			C163.56,319.03,161.8,322.84,160,326.74z M197.12,315.11c-4.95,3.89-9.81,7.71-14.81,11.64c6.84,0,13.46,0,20.18,0
			C200.7,322.85,198.94,319.04,197.12,315.11z M164.47,315.41c-6.78,3.82-13.34,7.52-19.91,11.22c4.79,0.17,9.49,0.17,14.2,0.14
			c0.23,0,0.56-0.28,0.68-0.51c0.59-1.17,1.12-2.36,1.66-3.54C162.19,320.36,163.28,318,164.47,315.41z M217.86,326.8
			c0.01-0.06,0.03-0.13,0.04-0.19c-6.56-3.69-13.12-7.39-19.68-11.08c1.56,3.7,3.2,7.28,4.89,10.84c0.11,0.23,0.59,0.41,0.9,0.41
			c4,0.03,8,0.02,12,0.02C216.63,326.8,217.25,326.8,217.86,326.8z M152.14,349.2c0.03-0.03,0.07-0.06,0.1-0.1
			c-6-7.08-12-14.16-18.01-21.23c-0.15-0.17-0.38-0.37-0.58-0.37c-1.37-0.03-2.75-0.02-4.37-0.02
			C137.01,334.83,144.57,342.02,152.14,349.2z M233.21,327.48c-1.4,0-2.56,0.04-3.72-0.01c-0.66-0.03-1.09,0.2-1.52,0.71
			c-5.76,6.82-11.54,13.63-17.32,20.44c-0.14,0.17-0.27,0.35-0.4,0.52c0.03,0.02,0.06,0.05,0.09,0.07
			C217.91,342.02,225.48,334.83,233.21,327.48z M216.84,314.82c-0.05,0.03-0.11,0.05-0.16,0.08c1.05,3.95,2.09,7.91,3.13,11.85
			c2.59,0,5.1,0,7.79,0C223.95,322.7,220.39,318.76,216.84,314.82z M145.81,314.89c-0.05-0.02-0.11-0.05-0.16-0.07
			c-3.56,3.94-7.11,7.89-10.77,11.94c2.7,0,5.21,0,7.79,0C143.72,322.8,144.77,318.84,145.81,314.89z M183.84,309.55
			c0.11,0.1,0.16,0.18,0.22,0.2c4.21,1.43,8.43,2.86,12.65,4.26c0.25,0.08,0.68-0.08,0.9-0.27c1.26-1.12,2.48-2.28,3.71-3.43
			c0.23-0.21,0.45-0.42,0.8-0.75C195.92,309.55,189.92,309.55,183.84,309.55z M160.56,309.55c-0.06,0.08-0.13,0.16-0.19,0.24
			c0.21,0.12,0.45,0.2,0.62,0.36c1.26,1.16,2.53,2.31,3.76,3.51c0.41,0.4,0.75,0.46,1.29,0.28c4.04-1.39,8.08-2.75,12.13-4.12
			c0.15-0.05,0.29-0.15,0.53-0.27C172.56,309.55,166.56,309.55,160.56,309.55z M232.75,326.8c0.03-0.06,0.05-0.11,0.08-0.17
			c-4.52-3.45-9.05-6.91-13.57-10.36c2.95,3.48,5.99,6.85,9.05,10.21c0.16,0.17,0.46,0.3,0.69,0.31
			C230.25,326.81,231.5,326.8,232.75,326.8z M143.32,316.37c-0.03-0.04-0.05-0.08-0.08-0.12c-4.53,3.46-9.06,6.92-13.58,10.39
			c1.35,0.16,2.6,0.18,3.84,0.14c0.24-0.01,0.53-0.14,0.69-0.31C137.24,323.11,140.28,319.74,143.32,316.37z M156.67,309.67
			c-0.01-0.05-0.02-0.11-0.03-0.16c-1.45,0-2.91-0.01-4.36,0.01c-0.15,0-0.32,0.08-0.44,0.17c-1.03,0.78-2.06,1.57-3.09,2.36
			c0.02,0.04,0.04,0.08,0.06,0.13C151.43,311.34,154.05,310.5,156.67,309.67z M205.84,309.51c0,0.06-0.01,0.11-0.01,0.17
			c2.62,0.83,5.23,1.66,7.85,2.49c-0.97-0.91-1.99-1.7-3.02-2.47c-0.16-0.12-0.4-0.18-0.6-0.18
			C208.65,309.5,207.25,309.51,205.84,309.51z"/>
	</g>
</g>
<linearGradient id="SVGID_1_" gradientUnits="userSpaceOnUse" x1="52.1229" y1="297.445" x2="789.8481" y2="297.445">
	<stop  offset="0" style="stop-color:#A3195B;stop-opacity:0.5"/>
	<stop  offset="0.2571" style="stop-color:#F39200"/>
	<stop  offset="1" style="stop-color:#2D2E83"/>
</linearGradient>
<path class="st2" d="M362.27,314.03l9.58-21.86l92.02,158.25l15.82-30.35v35.56H362.27V314.03z M331.09,455.63V325.32l-13.2,15.97
	l-36.2-41.02L178.32,403.93L52.12,256.19v199.44H331.09z M789.85,455.63V373.9l-56.69-56.69l-69.86,49.43l-67.35-91.04l-87.32,81.29
	v98.73H789.85z M331.65,341.29H52.51v114.33h279.15V341.29z M465.84,396.74l13.29-12.38v-245.1H361.71v149l10.46-12.65
	L465.84,396.74z"/>
<polyline class="st3" points="123.92,339.29 180.12,403.76 220.2,360.53 "/>
<g>
	<defs>
		<rect id="SVGID_9_" x="52.51" y="341.29" width="279.15" height="114.33"/>
	</defs>
	<clipPath id="SVGID_2_">
		<use xlink:href="#SVGID_9_"  style="overflow:visible;"/>
	</clipPath>
	<g id="eNt9aD_8_" class="st4">
		<g>
			<path class="st5" d="M181.29,308.81c9.5,0,19.01-0.01,28.51,0.02c0.52,0,1.13,0.21,1.54,0.52c7.44,5.64,14.85,11.32,22.27,16.98
				c1,0.77,1.01,0.77,0.13,1.6c-17.25,16.39-34.51,32.78-51.74,49.18c-0.59,0.56-0.92,0.55-1.51-0.01
				c-17.28-16.44-34.57-32.87-51.86-49.29c-0.73-0.69-0.72-0.73,0.07-1.34c7.44-5.68,14.89-11.36,22.31-17.06
				c0.57-0.44,1.14-0.62,1.86-0.62C162.34,308.82,171.81,308.81,181.29,308.81z M175.35,362.91c0.06,0,0.12,0.01,0.17,0.01
				c1.77-11.78,3.54-23.55,5.32-35.39c-6.99,0-13.88,0-20.86,0C165.12,339.38,170.24,351.15,175.35,362.91z M181.65,327.52
				c1.78,11.84,3.55,23.61,5.32,35.39c0.06,0,0.11,0.01,0.17,0.01c5.12-11.78,10.24-23.56,15.39-35.4
				C195.52,327.52,188.65,327.52,181.65,327.52z M143.68,327.48c10.25,11.69,20.35,23.19,30.44,34.7c0.06-0.19,0.02-0.31-0.03-0.43
				c-4.87-11.22-9.75-22.44-14.61-33.67c-0.21-0.49-0.49-0.61-0.99-0.6c-4.65,0.02-9.31,0.01-13.97,0.01
				C144.32,327.48,144.11,327.48,143.68,327.48z M218.77,327.52c-0.3-0.02-0.43-0.04-0.55-0.04c-4.79,0-9.58,0.01-14.37-0.02
				c-0.55,0-0.69,0.29-0.86,0.68c-4.84,11.15-9.69,22.29-14.53,33.44c-0.07,0.17-0.12,0.35-0.18,0.53c0.03,0.01,0.07,0.03,0.1,0.04
				C198.48,350.65,208.57,339.15,218.77,327.52z M181.18,376.34c0.13-0.13,0.18-0.15,0.2-0.2c1.65-3.79,3.3-7.58,4.94-11.38
				c0.11-0.26,0.14-0.58,0.1-0.86c-0.27-1.89-0.57-3.77-0.85-5.65c-1.18-7.83-2.35-15.66-3.53-23.49c-0.24-1.57-0.48-3.14-0.72-4.71
				c-0.18,0.13-0.22,0.27-0.24,0.42c-1.67,11.11-3.35,22.23-5.01,33.34c-0.04,0.28-0.05,0.62,0.06,0.87
				C177.79,368.54,179.48,372.41,181.18,376.34z M146.48,331.71c-0.04,0.02-0.08,0.04-0.11,0.06c0.07,0.11,0.13,0.22,0.2,0.33
				c5.78,8.9,11.57,17.79,17.33,26.69c1.54,2.38,3.07,4.72,5.25,6.61c2.16,1.87,4.17,3.91,6.24,5.88c1.53,1.45,3.06,2.91,4.77,4.53
				c-0.12-0.35-0.16-0.48-0.21-0.59c-1.48-3.42-2.96-6.84-4.45-10.25c-0.14-0.32-0.37-0.6-0.6-0.86
				c-5.59-6.39-11.19-12.77-16.79-19.16C154.23,340.55,150.35,336.13,146.48,331.71z M182.4,375.53c0.03,0.03,0.06,0.07,0.1,0.1
				c0.12-0.11,0.25-0.21,0.36-0.32c4.09-3.88,8.18-7.75,12.25-11.65c0.52-0.5,1-1.08,1.4-1.69c4.89-7.5,9.76-15.01,14.64-22.51
				c1.67-2.57,3.34-5.13,5-7.7c-0.06-0.06-0.12-0.11-0.19-0.17c-0.07,0.14-0.12,0.3-0.22,0.42c-9.42,10.75-18.84,21.49-28.26,32.23
				c-0.14,0.16-0.3,0.33-0.38,0.52C185.52,368.36,183.96,371.95,182.4,375.53z M218.99,326.42c-0.1-0.44-0.16-0.7-0.23-0.96
				c-0.99-3.73-1.99-7.46-2.95-11.2c-0.14-0.54-0.39-0.81-0.92-0.98c-3.04-0.94-6.06-1.92-9.09-2.87c-0.88-0.28-1.84-0.86-2.63-0.69
				c-0.79,0.18-1.41,1.12-2.09,1.74c-1.07,0.98-2.13,1.98-3.25,3.03C204.9,318.48,211.86,322.4,218.99,326.42z M143.47,326.43
				c7.15-4.03,14.13-7.96,21.18-11.93c-1.73-1.61-3.35-3.14-5.01-4.64c-0.17-0.16-0.56-0.21-0.79-0.14
				c-3.81,1.19-7.62,2.41-11.41,3.66c-0.29,0.09-0.61,0.45-0.69,0.75c-0.69,2.46-1.33,4.93-1.98,7.4
				C144.35,323.1,143.94,324.67,143.47,326.43z M198.42,360.31c0.04,0.05,0.08,0.09,0.12,0.14c2.17-2.09,4.5-4.03,6.46-6.3
				c7.42-8.59,14.72-17.28,22.06-25.94c0.17-0.2,0.31-0.41,0.54-0.73c-2.45,0-4.76,0.02-7.06-0.01c-0.59-0.01-0.92,0.17-1.24,0.67
				c-3.61,5.6-7.26,11.19-10.89,16.78C205.09,350.05,201.75,355.18,198.42,360.31z M134.85,327.48c0.26,0.34,0.42,0.55,0.59,0.75
				c4.82,5.69,9.62,11.4,14.48,17.06c3.81,4.44,7.33,9.13,11.77,13c0.78,0.68,1.52,1.42,2.28,2.14c-0.04-0.3-0.17-0.53-0.31-0.75
				c-2.95-4.54-5.9-9.08-8.85-13.62c-3.88-5.98-7.76-11.96-11.67-17.93c-0.19-0.29-0.59-0.61-0.91-0.62
				C139.84,327.46,137.44,327.48,134.85,327.48z M196.52,314.7c-5.03-1.7-9.93-3.36-14.89-5.03c0,5.59,0,11.08,0,16.72
				C186.62,322.47,191.51,318.64,196.52,314.7z M180.87,309.66c-5,1.69-9.89,3.35-14.9,5.04c5.03,3.95,9.91,7.78,14.9,11.7
				C180.87,320.75,180.87,315.26,180.87,309.66z M160,326.74c6.74,0,13.36,0,20.17,0c-5.01-3.93-9.87-7.75-14.8-11.62
				C163.56,319.03,161.8,322.84,160,326.74z M197.12,315.11c-4.95,3.89-9.81,7.71-14.81,11.64c6.84,0,13.46,0,20.18,0
				C200.7,322.85,198.94,319.04,197.12,315.11z M164.47,315.41c-6.78,3.82-13.34,7.52-19.91,11.22c4.79,0.17,9.49,0.17,14.2,0.14
				c0.23,0,0.56-0.28,0.68-0.51c0.59-1.17,1.12-2.36,1.66-3.54C162.19,320.36,163.28,318,164.47,315.41z M217.86,326.8
				c0.01-0.06,0.03-0.13,0.04-0.19c-6.56-3.69-13.12-7.39-19.68-11.08c1.56,3.7,3.2,7.28,4.89,10.84c0.11,0.23,0.59,0.41,0.9,0.41
				c4,0.03,8,0.02,12,0.02C216.63,326.8,217.25,326.8,217.86,326.8z M152.14,349.2c0.03-0.03,0.07-0.06,0.1-0.1
				c-6-7.08-12-14.16-18.01-21.23c-0.15-0.17-0.38-0.37-0.58-0.37c-1.37-0.03-2.75-0.02-4.37-0.02
				C137.01,334.83,144.57,342.02,152.14,349.2z M233.21,327.48c-1.4,0-2.56,0.04-3.72-0.01c-0.66-0.03-1.09,0.2-1.52,0.71
				c-5.76,6.82-11.54,13.63-17.32,20.44c-0.14,0.17-0.27,0.35-0.4,0.52c0.03,0.02,0.06,0.05,0.09,0.07
				C217.91,342.02,225.48,334.83,233.21,327.48z M216.84,314.82c-0.05,0.03-0.11,0.05-0.16,0.08c1.05,3.95,2.09,7.91,3.13,11.85
				c2.59,0,5.1,0,7.79,0C223.95,322.7,220.39,318.76,216.84,314.82z M145.81,314.89c-0.05-0.02-0.11-0.05-0.16-0.07
				c-3.56,3.94-7.11,7.89-10.77,11.94c2.7,0,5.21,0,7.79,0C143.72,322.8,144.77,318.84,145.81,314.89z M183.84,309.55
				c0.11,0.1,0.16,0.18,0.22,0.2c4.21,1.43,8.43,2.86,12.65,4.26c0.25,0.08,0.68-0.08,0.9-0.27c1.26-1.12,2.48-2.28,3.71-3.43
				c0.23-0.21,0.45-0.42,0.8-0.75C195.92,309.55,189.92,309.55,183.84,309.55z M160.56,309.55c-0.06,0.08-0.13,0.16-0.19,0.24
				c0.21,0.12,0.45,0.2,0.62,0.36c1.26,1.16,2.53,2.31,3.76,3.51c0.41,0.4,0.75,0.46,1.29,0.28c4.04-1.39,8.08-2.75,12.13-4.12
				c0.15-0.05,0.29-0.15,0.53-0.27C172.56,309.55,166.56,309.55,160.56,309.55z M232.75,326.8c0.03-0.06,0.05-0.11,0.08-0.17
				c-4.52-3.45-9.05-6.91-13.57-10.36c2.95,3.48,5.99,6.85,9.05,10.21c0.16,0.17,0.46,0.3,0.69,0.31
				C230.25,326.81,231.5,326.8,232.75,326.8z M143.32,316.37c-0.03-0.04-0.05-0.08-0.08-0.12c-4.53,3.46-9.06,6.92-13.58,10.39
				c1.35,0.16,2.6,0.18,3.84,0.14c0.24-0.01,0.53-0.14,0.69-0.31C137.24,323.11,140.28,319.74,143.32,316.37z M156.67,309.67
				c-0.01-0.05-0.02-0.11-0.03-0.16c-1.45,0-2.91-0.01-4.36,0.01c-0.15,0-0.32,0.08-0.44,0.17c-1.03,0.78-2.06,1.57-3.09,2.36
				c0.02,0.04,0.04,0.08,0.06,0.13C151.43,311.34,154.05,310.5,156.67,309.67z M205.84,309.51c0,0.06-0.01,0.11-0.01,0.17
				c2.62,0.83,5.23,1.66,7.85,2.49c-0.97-0.91-1.99-1.7-3.02-2.47c-0.16-0.12-0.4-0.18-0.6-0.18
				C208.65,309.5,207.25,309.51,205.84,309.51z"/>
		</g>
	</g>
</g>
<g>
	<defs>
		<rect id="SVGID_11_" x="121.73" y="295.83" width="114.11" height="45.47"/>
	</defs>
	<clipPath id="SVGID_3_">
		<use xlink:href="#SVGID_11_"  style="overflow:visible;"/>
	</clipPath>
	<g id="eNt9aD_10_" class="st6">
		<g>
			<linearGradient id="SVGID_4_" gradientUnits="userSpaceOnUse" x1="234.3805" y1="343.1706" x2="128.0858" y2="343.1706">
				<stop  offset="0" style="stop-color:#A3195B;stop-opacity:0.5"/>
				<stop  offset="0.5438" style="stop-color:#F39200"/>
				<stop  offset="1" style="stop-color:#2D2E83"/>
			</linearGradient>
			<path class="st7" d="M181.29,308.81c9.5,0,19.01-0.01,28.51,0.02c0.52,0,1.13,0.21,1.54,0.52c7.44,5.64,14.85,11.32,22.27,16.98
				c1,0.77,1.01,0.77,0.13,1.6c-17.25,16.39-34.51,32.78-51.74,49.18c-0.59,0.56-0.92,0.55-1.51-0.01
				c-17.28-16.44-34.57-32.87-51.86-49.29c-0.73-0.69-0.72-0.73,0.07-1.34c7.44-5.68,14.89-11.36,22.31-17.06
				c0.57-0.44,1.14-0.62,1.86-0.62C162.34,308.82,171.81,308.81,181.29,308.81z M175.35,362.91c0.06,0,0.12,0.01,0.17,0.01
				c1.77-11.78,3.54-23.55,5.32-35.39c-6.99,0-13.88,0-20.86,0C165.12,339.38,170.24,351.15,175.35,362.91z M181.65,327.52
				c1.78,11.84,3.55,23.61,5.32,35.39c0.06,0,0.11,0.01,0.17,0.01c5.12-11.78,10.24-23.56,15.39-35.4
				C195.52,327.52,188.65,327.52,181.65,327.52z M143.68,327.48c10.25,11.69,20.35,23.19,30.44,34.7c0.06-0.19,0.02-0.31-0.03-0.43
				c-4.87-11.22-9.75-22.44-14.61-33.67c-0.21-0.49-0.49-0.61-0.99-0.6c-4.65,0.02-9.31,0.01-13.97,0.01
				C144.32,327.48,144.11,327.48,143.68,327.48z M218.77,327.52c-0.3-0.02-0.43-0.04-0.55-0.04c-4.79,0-9.58,0.01-14.37-0.02
				c-0.55,0-0.69,0.29-0.86,0.68c-4.84,11.15-9.69,22.29-14.53,33.44c-0.07,0.17-0.12,0.35-0.18,0.53c0.03,0.01,0.07,0.03,0.1,0.04
				C198.48,350.65,208.57,339.15,218.77,327.52z M181.18,376.34c0.13-0.13,0.18-0.15,0.2-0.2c1.65-3.79,3.3-7.58,4.94-11.38
				c0.11-0.26,0.14-0.58,0.1-0.86c-0.27-1.89-0.57-3.77-0.85-5.65c-1.18-7.83-2.35-15.66-3.53-23.49c-0.24-1.57-0.48-3.14-0.72-4.71
				c-0.18,0.13-0.22,0.27-0.24,0.42c-1.67,11.11-3.35,22.23-5.01,33.34c-0.04,0.28-0.05,0.62,0.06,0.87
				C177.79,368.54,179.48,372.41,181.18,376.34z M146.48,331.71c-0.04,0.02-0.08,0.04-0.11,0.06c0.07,0.11,0.13,0.22,0.2,0.33
				c5.78,8.9,11.57,17.79,17.33,26.69c1.54,2.38,3.07,4.72,5.25,6.61c2.16,1.87,4.17,3.91,6.24,5.88c1.53,1.45,3.06,2.91,4.77,4.53
				c-0.12-0.35-0.16-0.48-0.21-0.59c-1.48-3.42-2.96-6.84-4.45-10.25c-0.14-0.32-0.37-0.6-0.6-0.86
				c-5.59-6.39-11.19-12.77-16.79-19.16C154.23,340.55,150.35,336.13,146.48,331.71z M182.4,375.53c0.03,0.03,0.06,0.07,0.1,0.1
				c0.12-0.11,0.25-0.21,0.36-0.32c4.09-3.88,8.18-7.75,12.25-11.65c0.52-0.5,1-1.08,1.4-1.69c4.89-7.5,9.76-15.01,14.64-22.51
				c1.67-2.57,3.34-5.13,5-7.7c-0.06-0.06-0.12-0.11-0.19-0.17c-0.07,0.14-0.12,0.3-0.22,0.42c-9.42,10.75-18.84,21.49-28.26,32.23
				c-0.14,0.16-0.3,0.33-0.38,0.52C185.52,368.36,183.96,371.95,182.4,375.53z M218.99,326.42c-0.1-0.44-0.16-0.7-0.23-0.96
				c-0.99-3.73-1.99-7.46-2.95-11.2c-0.14-0.54-0.39-0.81-0.92-0.98c-3.04-0.94-6.06-1.92-9.09-2.87c-0.88-0.28-1.84-0.86-2.63-0.69
				c-0.79,0.18-1.41,1.12-2.09,1.74c-1.07,0.98-2.13,1.98-3.25,3.03C204.9,318.48,211.86,322.4,218.99,326.42z M143.47,326.43
				c7.15-4.03,14.13-7.96,21.18-11.93c-1.73-1.61-3.35-3.14-5.01-4.64c-0.17-0.16-0.56-0.21-0.79-0.14
				c-3.81,1.19-7.62,2.41-11.41,3.66c-0.29,0.09-0.61,0.45-0.69,0.75c-0.69,2.46-1.33,4.93-1.98,7.4
				C144.35,323.1,143.94,324.67,143.47,326.43z M198.42,360.31c0.04,0.05,0.08,0.09,0.12,0.14c2.17-2.09,4.5-4.03,6.46-6.3
				c7.42-8.59,14.72-17.28,22.06-25.94c0.17-0.2,0.31-0.41,0.54-0.73c-2.45,0-4.76,0.02-7.06-0.01c-0.59-0.01-0.92,0.17-1.24,0.67
				c-3.61,5.6-7.26,11.19-10.89,16.78C205.09,350.05,201.75,355.18,198.42,360.31z M134.85,327.48c0.26,0.34,0.42,0.55,0.59,0.75
				c4.82,5.69,9.62,11.4,14.48,17.06c3.81,4.44,7.33,9.13,11.77,13c0.78,0.68,1.52,1.42,2.28,2.14c-0.04-0.3-0.17-0.53-0.31-0.75
				c-2.95-4.54-5.9-9.08-8.85-13.62c-3.88-5.98-7.76-11.96-11.67-17.93c-0.19-0.29-0.59-0.61-0.91-0.62
				C139.84,327.46,137.44,327.48,134.85,327.48z M196.52,314.7c-5.03-1.7-9.93-3.36-14.89-5.03c0,5.59,0,11.08,0,16.72
				C186.62,322.47,191.51,318.64,196.52,314.7z M180.87,309.66c-5,1.69-9.89,3.35-14.9,5.04c5.03,3.95,9.91,7.78,14.9,11.7
				C180.87,320.75,180.87,315.26,180.87,309.66z M160,326.74c6.74,0,13.36,0,20.17,0c-5.01-3.93-9.87-7.75-14.8-11.62
				C163.56,319.03,161.8,322.84,160,326.74z M197.12,315.11c-4.95,3.89-9.81,7.71-14.81,11.64c6.84,0,13.46,0,20.18,0
				C200.7,322.85,198.94,319.04,197.12,315.11z M164.47,315.41c-6.78,3.82-13.34,7.52-19.91,11.22c4.79,0.17,9.49,0.17,14.2,0.14
				c0.23,0,0.56-0.28,0.68-0.51c0.59-1.17,1.12-2.36,1.66-3.54C162.19,320.36,163.28,318,164.47,315.41z M217.86,326.8
				c0.01-0.06,0.03-0.13,0.04-0.19c-6.56-3.69-13.12-7.39-19.68-11.08c1.56,3.7,3.2,7.28,4.89,10.84c0.11,0.23,0.59,0.41,0.9,0.41
				c4,0.03,8,0.02,12,0.02C216.63,326.8,217.25,326.8,217.86,326.8z M152.14,349.2c0.03-0.03,0.07-0.06,0.1-0.1
				c-6-7.08-12-14.16-18.01-21.23c-0.15-0.17-0.38-0.37-0.58-0.37c-1.37-0.03-2.75-0.02-4.37-0.02
				C137.01,334.83,144.57,342.02,152.14,349.2z M233.21,327.48c-1.4,0-2.56,0.04-3.72-0.01c-0.66-0.03-1.09,0.2-1.52,0.71
				c-5.76,6.82-11.54,13.63-17.32,20.44c-0.14,0.17-0.27,0.35-0.4,0.52c0.03,0.02,0.06,0.05,0.09,0.07
				C217.91,342.02,225.48,334.83,233.21,327.48z M216.84,314.82c-0.05,0.03-0.11,0.05-0.16,0.08c1.05,3.95,2.09,7.91,3.13,11.85
				c2.59,0,5.1,0,7.79,0C223.95,322.7,220.39,318.76,216.84,314.82z M145.81,314.89c-0.05-0.02-0.11-0.05-0.16-0.07
				c-3.56,3.94-7.11,7.89-10.77,11.94c2.7,0,5.21,0,7.79,0C143.72,322.8,144.77,318.84,145.81,314.89z M183.84,309.55
				c0.11,0.1,0.16,0.18,0.22,0.2c4.21,1.43,8.43,2.86,12.65,4.26c0.25,0.08,0.68-0.08,0.9-0.27c1.26-1.12,2.48-2.28,3.71-3.43
				c0.23-0.21,0.45-0.42,0.8-0.75C195.92,309.55,189.92,309.55,183.84,309.55z M160.56,309.55c-0.06,0.08-0.13,0.16-0.19,0.24
				c0.21,0.12,0.45,0.2,0.62,0.36c1.26,1.16,2.53,2.31,3.76,3.51c0.41,0.4,0.75,0.46,1.29,0.28c4.04-1.39,8.08-2.75,12.13-4.12
				c0.15-0.05,0.29-0.15,0.53-0.27C172.56,309.55,166.56,309.55,160.56,309.55z M232.75,326.8c0.03-0.06,0.05-0.11,0.08-0.17
				c-4.52-3.45-9.05-6.91-13.57-10.36c2.95,3.48,5.99,6.85,9.05,10.21c0.16,0.17,0.46,0.3,0.69,0.31
				C230.25,326.81,231.5,326.8,232.75,326.8z M143.32,316.37c-0.03-0.04-0.05-0.08-0.08-0.12c-4.53,3.46-9.06,6.92-13.58,10.39
				c1.35,0.16,2.6,0.18,3.84,0.14c0.24-0.01,0.53-0.14,0.69-0.31C137.24,323.11,140.28,319.74,143.32,316.37z M156.67,309.67
				c-0.01-0.05-0.02-0.11-0.03-0.16c-1.45,0-2.91-0.01-4.36,0.01c-0.15,0-0.32,0.08-0.44,0.17c-1.03,0.78-2.06,1.57-3.09,2.36
				c0.02,0.04,0.04,0.08,0.06,0.13C151.43,311.34,154.05,310.5,156.67,309.67z M205.84,309.51c0,0.06-0.01,0.11-0.01,0.17
				c2.62,0.83,5.23,1.66,7.85,2.49c-0.97-0.91-1.99-1.7-3.02-2.47c-0.16-0.12-0.4-0.18-0.6-0.18
				C208.65,309.5,207.25,309.51,205.84,309.51z"/>
		</g>
	</g>
</g>
<rect x="647.14" y="302.53" transform="matrix(0.8152 -0.5791 0.5791 0.8152 -64.8175 448.4594)" class="st8" width="46.56" height="46.56"/>
<path class="st5" d="M673.33,337.44c0,0,4.55-3.44,6.21-4.61c1.66-1.17,7.32-5.86,7.71-6.27s1.75-1.57,2.56-0.1
	c0.81,1.48,2.22,3.51,2.51,3.78s1.47,1.6,0.79,2.33s-6.9,6.29-10.28,8.63c-3.38,2.34-5.68,4.78-6.67,5.84
	c-0.99,1.06-1.23,2.15-2.73,2.21c-1.51,0.06-4.24-0.32-5.4-1.9c-1.17-1.57-16.63-27.68-16.63-27.68s-1.62-3.01-1.42-4.37
	c0.2-1.36,1.14-1.8,2.01-2.74c0.87-0.94,4.43-2.53,5.83,0.03C659.21,315.15,671.12,334.86,673.33,337.44z"/>
<path class="st9" d="M668.39,333.81l-10.71-18.49c0,0-1.22-2.6-3.75-1.23c0,0-2.46,1.14-0.99,3.93c1.47,2.78,13.16,22.78,15.2,25.97
	c2.04,3.19,4,3.21,4.57,3.18c0.57-0.02,2.18,0.05,1.72-4.12c-0.46-4.17-2.15-24.47,8.03-59.56c0,0,0.66-2.13,1.05-3.09
	s-0.3-3.07-0.96-4.48c-0.66-1.41-5.57-11.02-6.14-12.19c-0.56-1.17-1.21-1.33-2.02,0.78C673.6,266.62,666.64,287.64,668.39,333.81z"
	/>
<g>
	<path class="st5" d="M552.37,373.74h-0.96l-1.76,0.09l-1.62,0.18c-0.3,0.03-0.33,0.06-0.36,0.27c-0.03,0.49-0.13,0.85-0.3,1.55
		c-0.3,1.09-0.6,2.01-0.8,2.46l-0.23,0.52c-0.03,0.09-0.07,0.15-0.07,0.24c0,0.09,0.07,0.18,0.2,0.18c0.03,0,0.1,0,0.17-0.03h0.5
		c0.13,0,0.56-0.03,1.33-0.09c0.3-0.03,0.6-0.03,0.89-0.03c0.4,0,0.5,0,0.66,0.09c0.13,0.06,0.26,0.18,0.36,0.4
		c0.07,0.18,0.13,0.37,0.2,0.58c0.07,0.21,0.1,0.33,0.1,0.4c0,0.21-0.17,0.49-0.56,0.94c-0.43,0.46-0.7,0.61-1.06,0.61
		c-0.1,0-0.23,0-0.37-0.03c-0.2,0-0.46-0.03-0.79-0.03c-0.23,0-0.46,0.03-0.73,0.03c-0.63,0.03-1.09,0.03-1.43,0.03
		c-0.63,0-0.63,0.03-0.83,0.49l-0.63,1.4l-1.36,3.1l-1.36,2.86c-0.33,0.7-0.63,0.97-1.06,0.97c-0.17,0-0.3-0.03-0.43-0.12
		l-0.63-0.43c-0.27-0.18-0.53-0.27-0.8-0.3c-0.3-0.03-0.5-0.06-0.53-0.09c-0.1-0.06-0.2-0.21-0.3-0.43c-0.07-0.18-0.1-0.36-0.1-0.55
		c0-0.24,0.1-0.58,0.3-1l1.23-2.52c0.66-1.4,1.06-2.22,1.19-2.46c0.1-0.18,0.17-0.33,0.17-0.46c0-0.06-0.03-0.21-0.1-0.43
		c0-0.03-0.07-0.33-0.2-0.88c-0.03-0.27-0.07-0.49-0.07-0.67c0-0.55,0.53-1.03,1.23-1.03c0.23-0.03,0.36-0.03,0.43-0.06
		s0.13-0.12,0.2-0.24c0.03-0.06,0.17-0.4,0.43-1.03l0.7-1.61l0.4-1.12c0.07-0.15,0.1-0.24,0.1-0.27c0-0.06-0.13-0.18-0.33-0.3
		c-0.56-0.33-0.66-0.61-0.66-1.82c0-1.09,0.17-1.4,0.96-1.64c0.5-0.15,1.06-0.3,1.72-0.4c2.25-0.33,3.81-0.49,4.74-0.49
		c1.99,0,3.02,0.73,3.02,2.1C553.16,373.5,553,373.74,552.37,373.74z"/>
	<path class="st5" d="M559.94,379.4c-0.33,2.39-0.65,4.45-0.93,5.77l-0.74,3.33c-0.31,1.38-0.38,1.67-0.65,2.3
		c-0.14,0.35-0.26,0.44-0.55,0.44c-0.24,0-0.45-0.09-0.69-0.26c-0.19-0.18-0.33-0.26-0.36-0.26c-0.07-0.04-0.24-0.11-0.5-0.18
		c-0.43-0.13-0.67-0.31-0.67-0.57c0-0.07,0.02-0.18,0.07-0.31c0.12-0.33,0.19-0.57,0.26-0.72l0.41-1.27l0.29-0.92l0.1-0.53
		c0.02-0.04,0.02-0.09,0.02-0.13c0-0.07-0.07-0.09-0.22-0.09c-0.12,0-0.24,0-0.38,0.02c-0.14,0.02-0.45,0.07-0.93,0.11
		c-0.38,0.04-0.72,0.09-1.05,0.15c-0.31,0.07-0.41,0.13-0.57,0.46l-0.53,0.96c-0.24,0.42-0.5,0.92-0.74,1.49
		c-0.45,1.03-0.67,1.29-1.08,1.29c-0.26,0-0.62-0.15-1.1-0.44c-0.55-0.33-0.88-0.68-0.88-0.94c0-0.09,0.02-0.2,0.1-0.31
		c0.07-0.15,0.21-0.44,0.41-0.83c0.29-0.55,0.45-0.85,0.53-0.96c0.1-0.18,0.14-0.26,0.14-0.35c0-0.07-0.02-0.13-0.07-0.24
		l-0.21-0.61c-0.07-0.2-0.1-0.39-0.1-0.59c0-0.57,0.31-0.83,1.2-0.94c0.26-0.04,0.45-0.07,0.57-0.09c0.21-0.04,0.31-0.11,0.45-0.39
		c0.1-0.2,0.26-0.46,0.5-0.79c1.34-1.97,1.94-2.81,2.58-3.55l1.27-1.47c0.36-0.42,0.55-0.55,0.79-0.55h0.07
		c0.17,0.02,0.48,0.13,0.62,0.2c0.1,0.04,0.17,0.07,0.19,0.07c0.1,0,0.12-0.13,0.12-0.57v-0.5c0-0.55,0.1-0.7,0.43-0.7
		c0.12,0,0.43,0.09,0.72,0.18c0.91,0.31,1.27,0.81,1.27,1.8C560.08,378.17,560.01,378.78,559.94,379.4z M557.31,379.95
		c-0.05,0-0.12,0.04-0.17,0.13c-0.02,0.02-0.17,0.22-0.43,0.55c-0.21,0.26-0.5,0.66-0.88,1.23c-0.41,0.57-0.67,1.01-0.84,1.29
		c-0.17,0.29-0.29,0.48-0.36,0.59c-0.05,0.09-0.07,0.13-0.07,0.18c0,0.04,0.05,0.07,0.14,0.07c0.07,0,0.22-0.02,0.48-0.04
		c0.07-0.02,0.19-0.02,0.38-0.02c0.24,0,0.48,0,0.6,0.02c0.05,0,0.12,0.02,0.19,0.02c0.07,0,0.12-0.02,0.14-0.04
		c0.05-0.02,0.12-0.18,0.19-0.64l0.07-0.46l0.38-1.8c0.02-0.07,0.05-0.2,0.12-0.42c0.05-0.18,0.07-0.33,0.12-0.42
		c0-0.04,0.02-0.09,0.02-0.15S557.36,379.95,557.31,379.95z"/>
	<path class="st5" d="M572.18,379.53c-1.51,2.81-1.62,3.09-2.73,5.96c-0.43,1.1-0.69,1.84-0.81,2.21c-0.36,1.07-0.6,2.02-0.67,2.76
		c-0.05,0.5-0.24,0.75-0.55,0.75c-0.24,0-0.67-0.22-1.24-0.64c-0.72-0.55-0.84-0.72-0.84-1.21c0-0.31,0.1-0.75,0.31-1.45
		c0.36-1.12,0.96-2.63,1.39-3.49c0.02-0.07,0.02-0.11,0.02-0.18s-0.05-0.11-0.14-0.11h-0.12c-0.05,0.02-0.19,0.02-0.41,0.02
		c-0.14,0-0.43,0.02-0.88,0.09c-0.88,0.11-1.1,0.15-1.24,0.26c-0.1,0.09-0.24,0.39-0.5,1.14c-0.62,1.73-0.72,1.97-1.12,3.25
		c-0.38,1.16-0.45,1.38-0.69,1.67c-0.1,0.13-0.26,0.24-0.41,0.24c-0.1,0-0.19-0.04-0.29-0.09l-0.33-0.2
		c-0.05-0.04-0.21-0.09-0.45-0.11c-0.48-0.04-0.86-0.64-0.86-1.25c0-0.13,0.05-0.31,0.17-0.57c0.05-0.11,0.19-0.48,0.43-1.1
		c0.17-0.42,0.36-0.9,0.62-1.49c0.19-0.46,0.29-0.68,0.29-0.75c0-0.04-0.05-0.07-0.21-0.18c-0.19-0.11-0.26-0.28-0.26-0.61v-0.53
		c0-0.13-0.02-0.26-0.07-0.39c-0.07-0.15-0.1-0.26-0.1-0.33c0-0.18,0.14-0.26,0.69-0.39l0.67-0.15c0.41-0.09,0.45-0.11,0.57-0.37
		c0.17-0.42,0.33-0.72,0.43-0.94l0.69-1.47c0.38-0.81,0.67-1.38,0.84-1.69l0.74-1.43c0.26-0.48,0.45-0.66,0.72-0.66
		c0.21,0,0.31,0.09,0.84,0.68c0.45,0.53,0.6,0.75,0.6,1.01c0,0.11-0.05,0.24-0.12,0.39l-0.45,0.83c-0.12,0.18-0.31,0.61-0.62,1.27
		c-0.26,0.57-0.41,0.92-0.48,1.03c-0.17,0.42-0.26,0.64-0.26,0.68c-0.02,0.04-0.05,0.09-0.05,0.13c0,0.07,0.07,0.11,0.17,0.11h0.07
		l0.65-0.09l0.91-0.09c0.31-0.02,0.53-0.04,0.65-0.04c0.31-0.02,0.33-0.04,0.43-0.22c0.07-0.18,0.26-0.55,0.53-1.1
		c0.43-0.9,0.72-1.51,0.91-1.84l0.88-1.56c0.36-0.64,0.45-0.77,0.69-0.77c0.12,0,0.21,0.04,0.6,0.22c0.31,0.13,0.38,0.2,0.41,0.46
		l0.07,0.33l0.14,0.2l0.24,0.24c0.05,0.04,0.07,0.13,0.07,0.24C572.69,378.5,572.57,378.78,572.18,379.53z"/>
	<path class="st5" d="M580.82,382.55c-0.93,0.77-2.01,1.47-2.73,1.8c-0.26,0.11-0.33,0.2-0.33,0.37c0,0.09,0.02,0.18,0.31,1.07
		l0.41,1.32c0.43,1.36,1.22,2.96,1.79,3.6c0.17,0.18,0.24,0.31,0.24,0.4c0,0.09-0.05,0.18-0.12,0.26c-0.14,0.2-0.19,0.22-0.29,0.22
		c-0.05,0-0.12,0-0.24-0.02c-0.07-0.02-0.14-0.02-0.21-0.02c-0.12,0-0.17,0.04-0.33,0.26c-0.19,0.24-0.48,0.42-0.65,0.42
		c-0.02,0-0.17-0.04-0.38-0.13c-0.55-0.22-0.72-0.4-1.08-1.01c-0.26-0.46-0.48-0.92-0.67-1.36c-0.41-0.92-0.96-2.85-1.22-4.14
		l-0.14-0.68c-0.02-0.09-0.05-0.15-0.1-0.15c-0.07,0-0.12,0.07-0.17,0.15c-0.02,0.09-0.07,0.22-0.14,0.37
		c-0.24,0.5-0.43,0.94-0.88,2.08c-0.77,1.84-1,2.43-1.12,2.87c-0.12,0.48-0.26,0.68-0.45,0.68c-0.1,0-0.19-0.04-0.33-0.11
		c-0.26-0.15-0.45-0.22-0.53-0.24l-0.57-0.07c-0.07-0.02-0.14-0.11-0.29-0.28l-0.36-0.44c-0.12-0.15-0.17-0.22-0.17-0.33
		c0-0.09,0.05-0.24,0.12-0.42l0.55-1.29l0.93-2.15l1.22-2.67l1.05-2.08l0.48-1.05c0.07-0.18,0.14-0.31,0.14-0.33
		c0-0.04-0.05-0.11-0.12-0.2c-0.29-0.35-0.5-1.01-0.5-1.62c0-0.39,0.17-0.59,0.67-0.75c1.03-0.35,2.2-0.53,3.49-0.53
		c1.46,0,2.34,0.24,3.16,0.9c0.79,0.64,1.29,1.62,1.29,2.54C582.54,380.67,581.99,381.57,580.82,382.55z M579.02,378.78
		c-0.33,0-0.72,0.04-1.1,0.11c-0.19,0.02-0.31,0.09-0.38,0.13c-0.02,0.02-0.07,0.15-0.19,0.35l-0.21,0.5l-0.84,1.75l-0.12,0.31
		c-0.02,0.07-0.07,0.13-0.1,0.2c-0.02,0.07-0.05,0.13-0.05,0.18c0,0.07,0.05,0.11,0.14,0.11c0.07,0,0.17-0.02,0.24-0.07
		c0.14-0.09,0.33-0.18,0.6-0.33l1.22-0.7c0.26-0.15,0.6-0.37,1.03-0.7c0.62-0.46,0.88-0.79,0.88-1.16
		C580.15,379.05,579.74,378.78,579.02,378.78z"/>
	<path class="st5" d="M591.98,379.46l-0.65,0.7l-0.53,0.59c-0.1,0.11-0.21,0.18-0.33,0.18l-0.53-0.09l-0.81-0.11
		c-0.38-0.04-0.55-0.2-0.55-0.5c0-0.15,0.05-0.33,0.14-0.46c0.17-0.24,0.53-0.75,0.76-1.01c0.1-0.11,0.17-0.24,0.17-0.33
		c0-0.07-0.07-0.11-0.14-0.11c-0.17,0-0.72,0.22-1.32,0.55c-1.27,0.7-2.18,1.62-2.18,2.24c0,0.31,0.29,0.68,0.74,1.03l0.81,0.61
		c1.03,0.79,1.6,1.91,1.6,3.14c0,2.59-2.89,4.98-6.07,4.98c-0.93,0-1.79-0.37-2.32-1.01c-0.21-0.24-0.33-0.53-0.33-0.77
		c0-0.33,0.26-0.79,0.67-1.23c0.36-0.4,0.72-0.61,0.96-0.61s0.46,0.18,0.57,0.5c0.24,0.57,0.38,0.7,0.79,0.7s1.15-0.24,1.87-0.64
		c0.79-0.44,1.34-1.14,1.34-1.69c0-0.42-0.26-0.72-1.27-1.45c-1.31-0.94-1.87-1.86-1.87-3.14c0-1.25,0.53-2.46,1.36-3.2
		c0.45-0.39,1.08-0.79,1.87-1.18c1.34-0.68,2.51-0.96,3.73-0.96c1.43,0,2.34,0.64,2.34,1.67
		C592.82,378.37,592.58,378.83,591.98,379.46z"/>
	<path class="st5" d="M598.63,381.3c-0.6,0-1.05-0.24-1.05-0.59c0-0.07,0.02-0.18,0.07-0.29l0.17-0.33l0.29-0.66l0.14-0.37
		c0.05-0.15,0.1-0.29,0.1-0.35c0-0.15-0.12-0.26-0.29-0.26c-0.07,0-0.19,0.04-0.29,0.11c-0.31,0.26-0.84,0.77-1.34,1.36
		c-1.12,1.29-1.89,2.63-2.54,4.56c-0.48,1.4-0.55,1.95-0.55,3.2c0,0.7,0.22,0.96,0.81,0.96c0.65,0,1.72-0.33,2.65-0.81
		c0.29-0.13,0.48-0.22,0.57-0.26c0.1-0.07,0.19-0.09,0.29-0.09c0.26,0,0.43,0.35,0.43,0.81c0,1.34-2.1,2.54-4.4,2.54
		c-1.99,0-3.37-1.45-3.37-3.51c0-1.45,0.43-3.05,1.27-4.82c1.79-3.73,4.57-6.07,7.2-6.07c1.43,0,2.1,0.61,2.1,1.97
		C600.9,380.23,600.07,381.3,598.63,381.3z"/>
	<path class="st5" d="M611.36,379.53c-1.51,2.81-1.62,3.09-2.73,5.96c-0.43,1.1-0.69,1.84-0.81,2.21c-0.36,1.07-0.6,2.02-0.67,2.76
		c-0.05,0.5-0.24,0.75-0.55,0.75c-0.24,0-0.67-0.22-1.24-0.64c-0.72-0.55-0.84-0.72-0.84-1.21c0-0.31,0.1-0.75,0.31-1.45
		c0.36-1.12,0.96-2.63,1.39-3.49c0.02-0.07,0.02-0.11,0.02-0.18s-0.05-0.11-0.14-0.11h-0.12c-0.05,0.02-0.19,0.02-0.41,0.02
		c-0.14,0-0.43,0.02-0.88,0.09c-0.88,0.11-1.1,0.15-1.24,0.26c-0.1,0.09-0.24,0.39-0.5,1.14c-0.62,1.73-0.72,1.97-1.12,3.25
		c-0.38,1.16-0.45,1.38-0.69,1.67c-0.1,0.13-0.26,0.24-0.41,0.24c-0.1,0-0.19-0.04-0.29-0.09l-0.33-0.2
		c-0.05-0.04-0.21-0.09-0.45-0.11c-0.48-0.04-0.86-0.64-0.86-1.25c0-0.13,0.05-0.31,0.17-0.57c0.05-0.11,0.19-0.48,0.43-1.1
		c0.17-0.42,0.36-0.9,0.62-1.49c0.19-0.46,0.29-0.68,0.29-0.75c0-0.04-0.05-0.07-0.21-0.18c-0.19-0.11-0.26-0.28-0.26-0.61v-0.53
		c0-0.13-0.02-0.26-0.07-0.39c-0.07-0.15-0.1-0.26-0.1-0.33c0-0.18,0.14-0.26,0.69-0.39l0.67-0.15c0.41-0.09,0.45-0.11,0.57-0.37
		c0.17-0.42,0.33-0.72,0.43-0.94l0.69-1.47c0.38-0.81,0.67-1.38,0.84-1.69l0.74-1.43c0.26-0.48,0.45-0.66,0.72-0.66
		c0.21,0,0.31,0.09,0.84,0.68c0.45,0.53,0.6,0.75,0.6,1.01c0,0.11-0.05,0.24-0.12,0.39l-0.45,0.83c-0.12,0.18-0.31,0.61-0.62,1.27
		c-0.26,0.57-0.41,0.92-0.48,1.03c-0.17,0.42-0.26,0.64-0.26,0.68c-0.02,0.04-0.05,0.09-0.05,0.13c0,0.07,0.07,0.11,0.17,0.11h0.07
		l0.65-0.09l0.91-0.09c0.31-0.02,0.53-0.04,0.65-0.04c0.31-0.02,0.33-0.04,0.43-0.22c0.07-0.18,0.26-0.55,0.53-1.1
		c0.43-0.9,0.72-1.51,0.91-1.84l0.88-1.56c0.36-0.64,0.45-0.77,0.69-0.77c0.12,0,0.21,0.04,0.6,0.22c0.31,0.13,0.38,0.2,0.41,0.46
		l0.07,0.33l0.14,0.2l0.24,0.24c0.05,0.04,0.07,0.13,0.07,0.24C611.86,378.5,611.74,378.78,611.36,379.53z"/>
	<path class="st5" d="M620.04,384.51c-1.2,2.21-2.42,3.88-3.68,5c-0.93,0.81-2.2,1.38-3.08,1.38c-1.7,0-2.99-1.49-2.99-3.46
		c0-1.95,0.86-4.78,2.32-7.48c0.6-1.14,1.41-2.54,1.79-3.09c0.29-0.4,0.55-0.53,1.08-0.53c0.79,0,1.51,0.37,1.51,0.79
		c0,0.11-0.02,0.24-0.1,0.39c-0.07,0.15-0.26,0.48-0.53,1.03c-0.17,0.35-0.48,0.96-0.86,1.82c-1.24,2.67-1.6,3.6-2.01,5.09
		c-0.26,0.96-0.43,1.95-0.43,2.5c0,0.31,0.1,0.48,0.26,0.48c0.22,0,0.72-0.37,1.17-0.92c0.36-0.44,0.79-0.99,1.27-1.67
		c1.65-2.37,2.46-3.84,3.16-5.59l0.84-2.13c0.24-0.64,0.38-1.05,0.46-1.27c0.12-0.42,0.26-0.57,0.53-0.57
		c0.14,0,0.31,0.04,0.46,0.11c0.74,0.35,1.12,0.9,1.12,1.62C622.31,379.33,621.38,382.05,620.04,384.51z"/>
	<path class="st5" d="M627.83,378.28l-0.45,0.88l-0.74,1.47l-1.15,2.19c-0.31,0.59-0.6,1.23-0.91,1.93c-0.45,1.03-0.88,2.08-1,2.5
		l-0.24,0.77c-0.05,0.11-0.07,0.26-0.07,0.31c0,0.09,0.05,0.15,0.14,0.15s0.17-0.02,0.24-0.04l0.98-0.22l1.12-0.26l0.81-0.2
		c0.19-0.04,0.33-0.07,0.41-0.07c0.33,0,0.65,0.33,0.65,0.7c0,0.5-0.43,1.23-0.91,1.51c-0.36,0.22-1.1,0.44-2.01,0.61
		c-0.88,0.18-1.94,0.31-2.39,0.31c-0.6,0-0.98-0.22-1.46-0.81c-0.48-0.55-0.62-0.88-0.62-1.29s0.19-1.21,0.53-2.08
		c0.17-0.44,0.41-1.01,0.74-1.73c0.69-1.53,1.48-3.2,1.94-4.08l1.08-2.06c0.45-0.88,0.72-1.36,0.76-1.47
		c0.12-0.2,0.24-0.39,0.36-0.57c0.14-0.22,0.31-0.33,0.5-0.33c0.12,0,0.26,0.04,0.41,0.11c0.77,0.37,1.39,0.99,1.39,1.38
		C627.93,377.99,627.91,378.13,627.83,378.28z"/>
	<path class="st5" d="M638.79,378.74c-0.12,0-0.24-0.02-0.36-0.04c-0.14-0.02-0.5-0.02-1.05,0l-0.96,0.02
		c-0.55,0.02-0.91,0.09-1.05,0.18c-0.12,0.07-0.21,0.18-0.41,0.55l-0.5,0.92c-0.48,0.88-0.81,1.64-0.81,1.8
		c0,0.11,0.02,0.13,0.14,0.13h0.07c0.07-0.02,0.19-0.02,0.33-0.02l0.98-0.02c0.93-0.02,1.34,0.37,1.34,1.23
		c0,0.64-0.26,0.81-1.29,0.94l-0.88,0.11c-0.26,0.02-0.57,0.04-0.93,0.04c-0.36,0-0.57,0-0.69-0.02c-0.07-0.02-0.12-0.04-0.17-0.04
		c-0.07,0-0.12,0.07-0.19,0.2l-0.53,1.05c-0.07,0.15-0.22,0.53-0.45,1.12c-0.14,0.39-0.24,0.66-0.29,0.79l-0.14,0.53
		c0,0.04-0.02,0.11-0.02,0.15c0,0.13,0.12,0.2,0.33,0.2c0.12,0,0.48-0.04,0.84-0.09c0.91-0.13,1.84-0.31,2.44-0.48
		c0.22-0.07,0.38-0.09,0.48-0.09c0.17,0,0.33,0.07,0.5,0.24c0.17,0.15,0.24,0.28,0.24,0.46c0,0.81-0.57,1.38-1.67,1.64
		c-1.41,0.33-3.2,0.57-4.11,0.57c-1.2,0-2.03-0.68-2.03-1.67c0-0.66,0.43-2.21,1.05-3.77c0.24-0.61,0.62-1.4,1.1-2.3
		c0.81-1.58,1.36-2.5,1.84-3.09c0.12-0.13,0.17-0.26,0.17-0.35c0-0.02-0.02-0.09-0.1-0.18c-0.33-0.46-0.43-0.75-0.43-1.36
		c0-0.68,0.24-0.96,0.88-1.12c1.15-0.29,3.06-0.5,4.18-0.5c0.67,0,1.27,0.04,1.43,0.13c0.19,0.11,0.45,0.46,0.69,0.94
		c0.19,0.42,0.33,0.79,0.33,0.94C639.1,378.65,639,378.74,638.79,378.74z"/>
	<path class="st5" d="M561.09,414.51c-3.12,3.38-5.44,5.21-7.52,5.9c-0.19,0.09-0.24,0.13-0.24,0.22c0,0.09,0,0.17,0.09,0.3
		c0.28,0.65,0.57,1.47,0.8,2.52c0.76,3.3,1.28,4.95,2.13,6.81c0.76,1.65,1.51,2.95,2.08,3.6c0.19,0.22,0.33,0.39,0.33,0.52
		c0,0.17-0.19,0.3-0.47,0.39l-1.23,0.3l-1.14,0.61c-0.38,0.22-0.76,0.26-1.18,0.26c-1.04,0-2.13-0.65-2.74-1.65
		c-0.47-0.78-0.85-1.74-1.23-2.86c-0.95-2.95-1.66-5.51-1.89-7.33l-0.19-1.34c-0.09-0.39-0.14-0.69-0.14-0.87
		c0-0.3-0.05-0.56-0.14-0.56s-0.05,0.09-0.38,0.78c-0.09,0.17-0.38,0.74-0.8,1.65c-0.33,0.69-0.66,1.39-0.99,2.21
		c-1.14,2.69-1.8,4.21-1.99,4.55l-1.18,2.47c-0.52,1.08-0.85,1.34-1.61,1.34c-0.19,0-0.38-0.04-0.57-0.09l-0.85-0.3l-1.28-0.17
		c-0.52-0.09-0.9-0.39-1.23-0.82c-0.19-0.35-0.24-0.48-0.24-0.65c0-0.3,0.05-0.52,0.52-1.43c0.19-0.35,0.52-1,0.95-1.95
		c0.62-1.3,1.18-2.52,1.7-3.6l2.27-4.6l2.08-4.51l1.84-4.21c0.76-1.69,1.23-2.82,1.47-3.47c0.85-2.08,1.23-2.6,2.04-2.6
		c0.28,0,0.62,0.13,0.99,0.3l1.51,0.69c0.95,0.43,1.14,0.65,1.14,1.13c0,0.22-0.09,0.48-0.24,0.87c-0.09,0.17-0.28,0.61-0.57,1.26
		l-2.18,5.29l-0.33,0.65l-0.19,0.43c-0.05,0.17-0.09,0.26-0.09,0.35c0,0.09,0.09,0.17,0.24,0.17c0.28,0,1.18-0.56,2.37-1.43
		c1.14-0.82,2.04-1.6,2.74-2.3c0.24-0.26,1.37-1.43,3.36-3.47c1.09-1.13,1.8-1.87,2.08-2.21c1.13-1.35,1.51-1.69,2.13-1.69
		c0.43,0,0.66,0.22,1.14,1.08c0.52,0.95,0.71,1.34,0.71,1.78C564.97,409.91,563.83,411.56,561.09,414.51z"/>
	<path class="st5" d="M581.67,410.82c-0.24,0-0.47-0.04-0.71-0.09c-0.28-0.04-0.99-0.04-2.08,0l-1.89,0.04
		c-1.09,0.04-1.8,0.17-2.08,0.35c-0.24,0.13-0.43,0.35-0.8,1.08l-0.99,1.82c-0.95,1.73-1.61,3.25-1.61,3.56
		c0,0.22,0.05,0.26,0.28,0.26h0.14c0.14-0.04,0.38-0.04,0.66-0.04l1.94-0.04c1.84-0.04,2.65,0.74,2.65,2.43
		c0,1.26-0.52,1.61-2.55,1.87l-1.75,0.22c-0.52,0.04-1.14,0.09-1.85,0.09s-1.14,0-1.37-0.04c-0.14-0.04-0.24-0.09-0.33-0.09
		c-0.14,0-0.24,0.13-0.38,0.39l-1.04,2.08c-0.14,0.3-0.43,1.04-0.9,2.21c-0.28,0.78-0.47,1.3-0.57,1.56l-0.28,1.04
		c0,0.09-0.05,0.22-0.05,0.3c0,0.26,0.24,0.39,0.66,0.39c0.24,0,0.95-0.09,1.66-0.17c1.8-0.26,3.64-0.61,4.83-0.95
		c0.43-0.13,0.76-0.17,0.95-0.17c0.33,0,0.66,0.13,0.99,0.48c0.33,0.3,0.47,0.56,0.47,0.91c0,1.6-1.13,2.73-3.31,3.25
		c-2.79,0.65-6.34,1.13-8.14,1.13c-2.37,0-4.02-1.34-4.02-3.3c0-1.3,0.85-4.38,2.08-7.46c0.47-1.21,1.23-2.78,2.18-4.56
		c1.61-3.12,2.7-4.95,3.64-6.12c0.24-0.26,0.33-0.52,0.33-0.69c0-0.04-0.05-0.17-0.19-0.35c-0.66-0.91-0.85-1.48-0.85-2.69
		c0-1.34,0.47-1.91,1.75-2.21c2.27-0.56,6.06-1,8.28-1c1.33,0,2.51,0.09,2.84,0.26c0.38,0.22,0.9,0.91,1.37,1.87
		c0.38,0.82,0.66,1.56,0.66,1.87C582.28,410.65,582.09,410.82,581.67,410.82z"/>
	<path class="st5" d="M592.6,409.91l-0.9,1.74l-1.47,2.91l-2.27,4.34c-0.62,1.17-1.18,2.43-1.8,3.82c-0.9,2.04-1.75,4.12-1.99,4.95
		l-0.47,1.52c-0.09,0.22-0.14,0.52-0.14,0.61c0,0.17,0.09,0.3,0.28,0.3s0.33-0.04,0.47-0.09l1.94-0.43l2.22-0.52l1.61-0.39
		c0.38-0.09,0.66-0.13,0.8-0.13c0.66,0,1.28,0.65,1.28,1.39c0,1-0.85,2.43-1.8,2.99c-0.71,0.43-2.18,0.87-3.97,1.21
		c-1.75,0.35-3.83,0.61-4.73,0.61c-1.18,0-1.94-0.43-2.89-1.6c-0.95-1.08-1.23-1.74-1.23-2.56s0.38-2.39,1.04-4.12
		c0.33-0.87,0.8-2,1.47-3.43c1.37-3.04,2.93-6.33,3.83-8.07l2.13-4.08c0.9-1.74,1.42-2.69,1.51-2.91c0.24-0.39,0.47-0.78,0.71-1.13
		c0.28-0.43,0.62-0.65,0.99-0.65c0.24,0,0.52,0.09,0.8,0.22c1.51,0.74,2.74,1.95,2.74,2.73C592.79,409.34,592.74,409.6,592.6,409.91
		z"/>
	<path class="st5" d="M608.17,409.91l-0.9,1.74l-1.47,2.91l-2.27,4.34c-0.62,1.17-1.18,2.43-1.8,3.82c-0.9,2.04-1.75,4.12-1.99,4.95
		l-0.47,1.52c-0.09,0.22-0.14,0.52-0.14,0.61c0,0.17,0.09,0.3,0.28,0.3s0.33-0.04,0.47-0.09l1.94-0.43l2.22-0.52l1.61-0.39
		c0.38-0.09,0.66-0.13,0.8-0.13c0.66,0,1.28,0.65,1.28,1.39c0,1-0.85,2.43-1.8,2.99c-0.71,0.43-2.18,0.87-3.97,1.21
		c-1.75,0.35-3.83,0.61-4.73,0.61c-1.18,0-1.94-0.43-2.89-1.6c-0.95-1.08-1.23-1.74-1.23-2.56s0.38-2.39,1.04-4.12
		c0.33-0.87,0.8-2,1.47-3.43c1.37-3.04,2.93-6.33,3.83-8.07l2.13-4.08c0.9-1.74,1.42-2.69,1.51-2.91c0.24-0.39,0.47-0.78,0.71-1.13
		c0.28-0.43,0.62-0.65,0.99-0.65c0.24,0,0.52,0.09,0.8,0.22c1.51,0.74,2.74,1.95,2.74,2.73
		C608.35,409.34,608.31,409.6,608.17,409.91z"/>
	<path class="st5" d="M629.84,410.82c-0.24,0-0.47-0.04-0.71-0.09c-0.28-0.04-0.99-0.04-2.08,0l-1.89,0.04
		c-1.09,0.04-1.8,0.17-2.08,0.35c-0.24,0.13-0.43,0.35-0.8,1.08l-0.99,1.82c-0.95,1.73-1.61,3.25-1.61,3.56
		c0,0.22,0.05,0.26,0.28,0.26h0.14c0.14-0.04,0.38-0.04,0.66-0.04l1.94-0.04c1.84-0.04,2.65,0.74,2.65,2.43
		c0,1.26-0.52,1.61-2.55,1.87l-1.75,0.22c-0.52,0.04-1.14,0.09-1.85,0.09s-1.14,0-1.37-0.04c-0.14-0.04-0.24-0.09-0.33-0.09
		c-0.14,0-0.24,0.13-0.38,0.39l-1.04,2.08c-0.14,0.3-0.43,1.04-0.9,2.21c-0.28,0.78-0.47,1.3-0.57,1.56l-0.28,1.04
		c0,0.09-0.05,0.22-0.05,0.3c0,0.26,0.24,0.39,0.66,0.39c0.24,0,0.95-0.09,1.66-0.17c1.8-0.26,3.64-0.61,4.83-0.95
		c0.43-0.13,0.76-0.17,0.95-0.17c0.33,0,0.66,0.13,0.99,0.48c0.33,0.3,0.47,0.56,0.47,0.91c0,1.6-1.13,2.73-3.31,3.25
		c-2.79,0.65-6.34,1.13-8.14,1.13c-2.37,0-4.02-1.34-4.02-3.3c0-1.3,0.85-4.38,2.08-7.46c0.47-1.21,1.23-2.78,2.18-4.56
		c1.61-3.12,2.7-4.95,3.64-6.12c0.24-0.26,0.33-0.52,0.33-0.69c0-0.04-0.05-0.17-0.19-0.35c-0.66-0.91-0.85-1.48-0.85-2.69
		c0-1.34,0.47-1.91,1.75-2.21c2.27-0.56,6.06-1,8.28-1c1.33,0,2.51,0.09,2.84,0.26c0.38,0.22,0.9,0.91,1.37,1.87
		c0.38,0.82,0.66,1.56,0.66,1.87C630.45,410.65,630.26,410.82,629.84,410.82z"/>
	<path class="st5" d="M651.46,410.39l-0.62,1.34l-1.94,4.03c-2.32,4.82-5.25,12.62-6.34,17.14c-0.43,1.65-0.52,2-0.8,2.43
		c-0.14,0.17-0.33,0.26-0.47,0.26c-0.24,0-0.62-0.17-1.61-0.78l-1.18-0.74c-0.9-0.56-1.09-0.91-1.09-2.13v-0.22
		c0-0.43,0.05-0.91,0.05-1.39c0-1.52-0.14-2.99-0.47-5.21l-0.8-5.21l-0.19-1.39c-0.05-0.35-0.14-0.65-0.19-0.65
		s-0.14,0.22-0.24,0.56c-0.09,0.39-0.28,0.82-0.47,1.34c-0.71,1.82-1.37,3.6-1.89,5.29l-1.85,5.73l-0.9,2.65
		c-0.33,1-0.57,1.21-1.04,1.21c-0.43,0-0.99-0.26-1.94-0.91c-1.28-0.91-1.75-1.6-1.75-2.6v-0.26c0-0.74,0.09-0.91,1.04-3.25
		l2.13-5.34l2.84-6.55c0.43-1,0.85-2.08,1.33-3.25c0.28-0.69,0.47-1.17,0.62-1.48c0.24-0.43,0.28-0.69,0.28-0.87
		c0-0.13,0-0.3-0.05-0.52l-0.24-1.34c-0.14-0.91-0.19-1.26-0.19-1.48c0-0.95,0.28-1.21,1.28-1.21c0.28,0,0.9,0.04,1.51,0.13
		c2.46,0.35,3.03,0.91,3.5,3.47l0.76,4.29c0,0.22,0.24,1.65,0.66,4.34c0.14,1,0.19,1.74,0.24,2.17c0,0.56,0.05,0.91,0.09,1.08
		l0.09,0.43l0.14-0.56l0.28-1.04l0.71-2.04c0.9-2.65,3.03-7.77,4.54-10.76c0.38-0.78,0.85-1.21,1.42-1.21
		c0.43,0,0.95,0.39,1.37,1.08c0.28,0.48,0.47,0.78,0.62,0.91l0.9,0.82c0.14,0.13,0.24,0.35,0.24,0.61S651.74,409.73,651.46,410.39z"
		/>
	<path class="st5" d="M669.2,416.5c-0.99,1.13-1.99,2-3.31,3.08c-0.33,0.26-0.52,0.48-0.52,0.65c0,0.09,0.05,0.26,0.19,0.48
		c1.14,1.69,1.33,2.21,1.33,3.12c0,1.17-0.76,2.82-2.08,4.64c-1.51,2.04-3.36,3.73-5.21,4.77c-1.37,0.78-3.31,1.52-3.97,1.52
		c-0.28,0-0.62-0.13-0.95-0.35c-0.28-0.22-0.62-0.52-1.04-0.87c-0.38-0.3-0.62-0.52-0.76-0.65c-0.14-0.17-0.33-0.3-0.43-0.3
		c-0.14,0-0.28,0.13-0.47,0.43l-0.24,0.35l-0.52,0.74c-0.28,0.39-0.52,0.61-0.71,0.61c-0.28,0-0.85-0.35-1.94-1.21
		c-1.09-0.87-1.47-1.39-1.47-2.08c0-0.52,0.24-1.13,1.23-2.82c0.19-0.35,0.85-1.65,1.99-3.95l2.6-5.29l1.8-4.21l0.62-1.43
		c0.09-0.3,0.24-0.56,0.28-0.78c0.09-0.13,0.09-0.26,0.09-0.35v-0.09c0-0.09-0.05-0.13-0.14-0.17c-0.19,0-0.19,0-0.47-0.04
		c-0.38-0.04-0.76-0.35-1.14-1c-0.52-0.82-0.8-1.65-0.8-2.34c0-0.43,0.05-0.78,0.19-0.95c0.24-0.26,0.66-0.48,1.28-0.69
		c2.93-0.95,6.1-1.52,9.23-1.52c2.74,0,4.35,0.56,5.58,2.04c1.04,1.26,1.66,2.99,1.66,4.6C671.1,413.9,670.62,414.98,669.2,416.5z
		 M659.13,421.92c-1.42,0-1.75,0.17-2.18,1.13c0,0.04-0.24,0.52-0.71,1.48l-0.9,1.91c-0.24,0.52-0.62,1.13-0.99,1.82
		c-0.19,0.3-0.24,0.52-0.24,0.65c0,0.39,0.47,0.65,0.99,0.65c0.38,0,0.95-0.17,1.47-0.43c2.89-1.43,5.16-3.95,5.16-5.64
		C661.73,422.49,660.83,421.92,659.13,421.92z M664,410.47c-0.76,0-1.42,0.13-2.22,0.35c-0.57,0.17-0.62,0.22-0.66,0.78
		c-0.14,1.08-0.43,2.26-1.09,3.86l-0.66,1.65c-0.14,0.26-0.19,0.56-0.19,0.69c0,0.13,0.05,0.17,0.14,0.17
		c0.43,0,1.56-0.52,2.89-1.39c2.6-1.73,4.35-3.6,4.35-4.73C666.55,411.04,665.56,410.47,664,410.47z"/>
	<path class="st5" d="M689.12,410.82c-0.24,0-0.47-0.04-0.71-0.09c-0.28-0.04-0.99-0.04-2.08,0l-1.89,0.04
		c-1.09,0.04-1.8,0.17-2.08,0.35c-0.24,0.13-0.43,0.35-0.8,1.08l-0.99,1.82c-0.95,1.73-1.61,3.25-1.61,3.56
		c0,0.22,0.05,0.26,0.28,0.26h0.14c0.14-0.04,0.38-0.04,0.66-0.04l1.94-0.04c1.84-0.04,2.65,0.74,2.65,2.43
		c0,1.26-0.52,1.61-2.55,1.87l-1.75,0.22c-0.52,0.04-1.14,0.09-1.85,0.09s-1.14,0-1.37-0.04c-0.14-0.04-0.24-0.09-0.33-0.09
		c-0.14,0-0.24,0.13-0.38,0.39l-1.04,2.08c-0.14,0.3-0.43,1.04-0.9,2.21c-0.28,0.78-0.47,1.3-0.57,1.56l-0.28,1.04
		c0,0.09-0.05,0.22-0.05,0.3c0,0.26,0.24,0.39,0.66,0.39c0.24,0,0.95-0.09,1.66-0.17c1.8-0.26,3.64-0.61,4.83-0.95
		c0.43-0.13,0.76-0.17,0.95-0.17c0.33,0,0.66,0.13,0.99,0.48c0.33,0.3,0.47,0.56,0.47,0.91c0,1.6-1.13,2.73-3.31,3.25
		c-2.79,0.65-6.34,1.13-8.14,1.13c-2.37,0-4.02-1.34-4.02-3.3c0-1.3,0.85-4.38,2.08-7.46c0.47-1.21,1.23-2.78,2.18-4.56
		c1.61-3.12,2.7-4.95,3.64-6.12c0.24-0.26,0.33-0.52,0.33-0.69c0-0.04-0.05-0.17-0.19-0.35c-0.66-0.91-0.85-1.48-0.85-2.69
		c0-1.34,0.47-1.91,1.75-2.21c2.27-0.56,6.06-1,8.28-1c1.33,0,2.51,0.09,2.84,0.26c0.38,0.22,0.9,0.91,1.37,1.87
		c0.38,0.82,0.66,1.56,0.66,1.87C689.74,410.65,689.55,410.82,689.12,410.82z"/>
	<path class="st5" d="M705.64,418.37c-1.85,1.52-3.97,2.91-5.39,3.56c-0.52,0.22-0.66,0.39-0.66,0.74c0,0.17,0.05,0.35,0.62,2.13
		l0.8,2.6c0.85,2.69,2.41,5.86,3.55,7.11c0.33,0.35,0.47,0.61,0.47,0.78s-0.09,0.35-0.24,0.52c-0.28,0.39-0.38,0.43-0.57,0.43
		c-0.09,0-0.24,0-0.47-0.04c-0.14-0.04-0.28-0.04-0.43-0.04c-0.24,0-0.33,0.09-0.66,0.52c-0.38,0.48-0.95,0.82-1.28,0.82
		c-0.05,0-0.33-0.09-0.76-0.26c-1.09-0.43-1.42-0.78-2.13-2c-0.52-0.91-0.95-1.82-1.33-2.69c-0.8-1.82-1.89-5.64-2.41-8.2
		l-0.28-1.34c-0.05-0.17-0.09-0.3-0.19-0.3c-0.14,0-0.24,0.13-0.33,0.3c-0.05,0.17-0.14,0.43-0.28,0.74c-0.47,1-0.85,1.87-1.75,4.12
		c-1.51,3.64-1.99,4.81-2.22,5.68c-0.24,0.95-0.52,1.34-0.9,1.34c-0.19,0-0.38-0.09-0.66-0.22c-0.52-0.3-0.9-0.43-1.04-0.48
		l-1.13-0.13c-0.14-0.04-0.28-0.22-0.57-0.56l-0.71-0.87c-0.24-0.3-0.33-0.43-0.33-0.65c0-0.17,0.09-0.48,0.24-0.82l1.09-2.56
		l1.84-4.25l2.41-5.29l2.08-4.12l0.95-2.08c0.14-0.35,0.28-0.61,0.28-0.65c0-0.09-0.09-0.22-0.24-0.39c-0.57-0.69-0.99-2-0.99-3.21
		c0-0.78,0.33-1.17,1.32-1.48c2.04-0.69,4.35-1.04,6.91-1.04c2.89,0,4.64,0.48,6.25,1.78c1.56,1.26,2.56,3.21,2.56,5.03
		C709.05,414.64,707.96,416.42,705.64,418.37z M702.09,410.91c-0.66,0-1.42,0.09-2.18,0.22c-0.38,0.04-0.62,0.17-0.76,0.26
		c-0.05,0.04-0.14,0.3-0.38,0.69l-0.43,1l-1.66,3.47l-0.24,0.61c-0.05,0.13-0.14,0.26-0.19,0.39c-0.05,0.13-0.09,0.26-0.09,0.35
		c0,0.13,0.09,0.22,0.28,0.22c0.14,0,0.33-0.04,0.47-0.13c0.28-0.17,0.66-0.35,1.18-0.65l2.41-1.39c0.52-0.3,1.18-0.74,2.04-1.39
		c1.23-0.91,1.75-1.56,1.75-2.3C704.31,411.43,703.51,410.91,702.09,410.91z"/>
	<path class="st5" d="M724.7,415.29c-1.47,0-2.74-0.56-2.74-1.21c0-0.22,0.05-0.3,0.38-1.26l0.57-1.65l0.19-0.61
		c0.05-0.17,0.09-0.3,0.09-0.39c0-0.22-0.14-0.35-0.33-0.35c-0.09,0-0.24,0.09-0.52,0.26l-1.18,0.69c-0.52,0.3-1.14,0.74-1.85,1.34
		c-2.32,2.04-4.07,4.34-5.68,7.42c-1.66,3.21-2.51,6.16-2.51,8.68c0,1.52,0.19,2,0.8,2c0.8,0,2.32-1.17,3.83-2.95
		c0.33-0.39,0.66-0.82,1.04-1.26c0.52-0.65,0.62-0.82,0.62-0.91c0-0.04-0.19-0.13-0.43-0.17c-0.99-0.3-1.47-1.13-1.47-2.6
		c0-1.48,0.52-1.95,2.56-2.17l2.7-0.26l2.74-0.22c0.28-0.04,0.57-0.04,0.9-0.04c1.09,0,1.37,0.3,1.37,1.39
		c0,2.3-0.38,2.99-1.66,3.08c-0.43,0.04-0.76,0.09-0.99,0.13c-0.52,0.04-0.57,0.13-0.57,0.56V425v0.52v0.69
		c-0.14,1.34-0.19,1.47-1.04,2.47c-1.18,1.39-2.51,2.6-4.07,3.77c-2.04,1.52-3.74,2.3-5.39,2.3c-1.37,0-3.12-0.61-4.4-1.56
		c-1.66-1.26-2.41-2.86-2.41-5.34c0-5.51,2.65-11.32,7.29-16.05c3.74-3.77,7.9-6.07,11.02-6.07c1.23,0,2.6,0.48,3.5,1.26
		c0.99,0.87,1.18,1.48,1.18,3.56C728.25,413.07,726.6,415.29,724.7,415.29z"/>
	<path class="st5" d="M745.95,410.82c-0.24,0-0.47-0.04-0.71-0.09c-0.28-0.04-0.99-0.04-2.08,0l-1.89,0.04
		c-1.09,0.04-1.8,0.17-2.08,0.35c-0.24,0.13-0.43,0.35-0.8,1.08l-0.99,1.82c-0.95,1.73-1.61,3.25-1.61,3.56
		c0,0.22,0.05,0.26,0.28,0.26h0.14c0.14-0.04,0.38-0.04,0.66-0.04l1.94-0.04c1.84-0.04,2.65,0.74,2.65,2.43
		c0,1.26-0.52,1.61-2.56,1.87l-1.75,0.22c-0.52,0.04-1.14,0.09-1.85,0.09s-1.14,0-1.37-0.04c-0.14-0.04-0.24-0.09-0.33-0.09
		c-0.14,0-0.24,0.13-0.38,0.39l-1.04,2.08c-0.14,0.3-0.43,1.04-0.9,2.21c-0.28,0.78-0.47,1.3-0.57,1.56l-0.28,1.04
		c0,0.09-0.05,0.22-0.05,0.3c0,0.26,0.24,0.39,0.66,0.39c0.24,0,0.95-0.09,1.66-0.17c1.8-0.26,3.64-0.61,4.83-0.95
		c0.43-0.13,0.76-0.17,0.95-0.17c0.33,0,0.66,0.13,0.99,0.48c0.33,0.3,0.47,0.56,0.47,0.91c0,1.6-1.13,2.73-3.31,3.25
		c-2.79,0.65-6.34,1.13-8.14,1.13c-2.37,0-4.02-1.34-4.02-3.3c0-1.3,0.85-4.38,2.08-7.46c0.47-1.21,1.23-2.78,2.18-4.56
		c1.61-3.12,2.7-4.95,3.64-6.12c0.24-0.26,0.33-0.52,0.33-0.69c0-0.04-0.05-0.17-0.19-0.35c-0.66-0.91-0.85-1.48-0.85-2.69
		c0-1.34,0.47-1.91,1.75-2.21c2.27-0.56,6.06-1,8.28-1c1.33,0,2.51,0.09,2.84,0.26c0.38,0.22,0.9,0.91,1.37,1.87
		c0.38,0.82,0.66,1.56,0.66,1.87C746.56,410.65,746.38,410.82,745.95,410.82z"/>
	<path class="st5" d="M762.46,418.37c-1.85,1.52-3.97,2.91-5.39,3.56c-0.52,0.22-0.66,0.39-0.66,0.74c0,0.17,0.05,0.35,0.62,2.13
		l0.8,2.6c0.85,2.69,2.41,5.86,3.55,7.11c0.33,0.35,0.47,0.61,0.47,0.78s-0.09,0.35-0.24,0.52c-0.28,0.39-0.38,0.43-0.57,0.43
		c-0.09,0-0.24,0-0.47-0.04c-0.14-0.04-0.28-0.04-0.43-0.04c-0.24,0-0.33,0.09-0.66,0.52c-0.38,0.48-0.95,0.82-1.28,0.82
		c-0.05,0-0.33-0.09-0.76-0.26c-1.09-0.43-1.42-0.78-2.13-2c-0.52-0.91-0.95-1.82-1.33-2.69c-0.8-1.82-1.89-5.64-2.41-8.2
		l-0.28-1.34c-0.05-0.17-0.09-0.3-0.19-0.3c-0.14,0-0.24,0.13-0.33,0.3c-0.05,0.17-0.14,0.43-0.28,0.74c-0.47,1-0.85,1.87-1.75,4.12
		c-1.51,3.64-1.99,4.81-2.22,5.68c-0.24,0.95-0.52,1.34-0.9,1.34c-0.19,0-0.38-0.09-0.66-0.22c-0.52-0.3-0.9-0.43-1.04-0.48
		l-1.13-0.13c-0.14-0.04-0.28-0.22-0.57-0.56l-0.71-0.87c-0.24-0.3-0.33-0.43-0.33-0.65c0-0.17,0.09-0.48,0.24-0.82l1.09-2.56
		l1.84-4.25l2.41-5.29l2.08-4.12l0.95-2.08c0.14-0.35,0.28-0.61,0.28-0.65c0-0.09-0.09-0.22-0.24-0.39c-0.57-0.69-0.99-2-0.99-3.21
		c0-0.78,0.33-1.17,1.32-1.48c2.04-0.69,4.35-1.04,6.91-1.04c2.89,0,4.64,0.48,6.25,1.78c1.56,1.26,2.56,3.21,2.56,5.03
		C765.87,414.64,764.78,416.42,762.46,418.37z M758.91,410.91c-0.66,0-1.42,0.09-2.18,0.22c-0.38,0.04-0.62,0.17-0.76,0.26
		c-0.05,0.04-0.14,0.3-0.38,0.69l-0.43,1l-1.66,3.47l-0.24,0.61c-0.05,0.13-0.14,0.26-0.19,0.39c-0.05,0.13-0.09,0.26-0.09,0.35
		c0,0.13,0.09,0.22,0.28,0.22c0.14,0,0.33-0.04,0.47-0.13c0.28-0.17,0.66-0.35,1.18-0.65l2.41-1.39c0.52-0.3,1.18-0.74,2.04-1.39
		c1.23-0.91,1.75-1.56,1.75-2.3C761.14,411.43,760.33,410.91,758.91,410.91z"/>
</g>
<text transform="matrix(1 0 0 1 225.0592 357.8804)"><tspan x="0" y="0" class="st5 st10 st11">KELLENBERGER</tspan><tspan x="0" y="17.01" class="st5 st10 st11">COACHING</tspan></text>
<text transform="matrix(1 0 0 1 434.1103 262.8865)"><tspan x="0" y="0" class="st5 st10 st12">Nicole </tspan><tspan x="0" y="5.79" class="st5 st10 st12">Kellenberger</tspan><tspan x="0" y="11.58" class="st5 st10 st12">079 771 77 77</tspan></text>
</svg>
