<?xml version="1.0" encoding="UTF-8" standalone="no"?>
<svg
   xmlns:dc="http://purl.org/dc/elements/1.1/"
   xmlns:cc="http://creativecommons.org/ns#"
   xmlns:rdf="http://www.w3.org/1999/02/22-rdf-syntax-ns#"
   xmlns:svg="http://www.w3.org/2000/svg"
   xmlns="http://www.w3.org/2000/svg"
   xmlns:sodipodi="http://sodipodi.sourceforge.net/DTD/sodipodi-0.dtd"
   xmlns:inkscape="http://www.inkscape.org/namespaces/inkscape"
   width="25.247507mm"
   height="21.910769mm"
   viewBox="0 0 25.247507 21.910768"
   version="1.1"
   id="svg8"
   inkscape:version="1.0.1 (3bc2e813f5, 2020-09-07)"
   sodipodi:docname="logo-simple.svg">
  <defs
     id="defs2">
    <clipPath
       clipPathUnits="userSpaceOnUse"
       id="clipPath875">
      <path
         d="M 5668.9951,1413.2993 5659.395,0 H 0 v 1417.3228 l 580.5224,-679.621 h 926.0938 l 326.6883,327.5328 327.4334,-452.3326 979.6115,671.051 1146.2865,-129.7403 z"
         clip-rule="evenodd"
         id="path873" />
    </clipPath>
    <linearGradient
       x1="1185.47"
       y1="1842.8101"
       x2="13959.58"
       y2="-1224.04"
       gradientUnits="userSpaceOnUse"
       spreadMethod="pad"
       id="linearGradient889">
      <stop
         style="stop-opacity:1;stop-color:#9c1661"
         offset="0"
         id="stop877" />
      <stop
         style="stop-opacity:1;stop-color:#9c1661"
         offset="0.1"
         id="stop879" />
      <stop
         style="stop-opacity:1;stop-color:#f68712"
         offset="0.41"
         id="stop881" />
      <stop
         style="stop-opacity:1;stop-color:#f68712"
         offset="0.62132075"
         id="stop883" />
      <stop
         style="stop-opacity:1;stop-color:#2c3892"
         offset="0.81"
         id="stop885" />
      <stop
         style="stop-opacity:1;stop-color:#2c3892"
         offset="1"
         id="stop887" />
    </linearGradient>
    <clipPath
       clipPathUnits="userSpaceOnUse"
       id="clipPath907">
      <path
         d="m 711.6398,737.7052 h 8.0583 c -38.3703,36.453 -76.9399,73.0894 -116.0711,110.2714 v 0 c 12.905,0 23.8947,0.1202 34.8664,-0.1449 v 0 c 1.596,-0.0317 3.4974,-1.5956 4.663,-2.963 v 0 c 30.337,-35.7015 60.6422,-71.4302 90.9474,-107.1635 h 7.1234 c -29.531,34.7031 -58.8855,69.5696 -88.344,104.3362 v 0 c -1.358,1.5891 -2.603,3.2755 -4.7196,5.9579 v 0 c 20.6895,0 39.8236,0.1924 58.9399,-0.2308 v 0 c 2.4922,-0.0476 5.7268,-2.6348 7.2434,-4.9507 v 0 c 22.8875,-34.9863 45.6684,-70.0495 68.4448,-105.1126 h 6.5871 c -15.8995,24.4582 -31.8059,48.9186 -47.7057,73.3861 v 0 c -0.559,0.8691 -1.0525,1.7632 -1.5888,2.6507 v 0 l 0.9031,0.464 c 22.3756,-25.4996 44.7492,-50.9969 67.1182,-76.5008 h 7.3386 c -32.1091,36.6046 -64.3408,73.3385 -96.7691,110.3099 v 0 h 6.7408 c 37.1707,-0.007 74.3437,-0.0632 111.5166,0.0726 v 0 c 3.9615,0.0159 6.2139,-0.9258 7.907,-4.8305 v 0 c 15.2362,-35.1924 30.4883,-70.3689 45.7566,-105.552 h 5.9238 c -15.8817,36.5479 -31.7903,73.1528 -47.7442,109.8641 v 0 h 166.6173 c -5.5184,-36.6863 -11.0213,-73.3003 -16.5152,-109.8641 h 5.4621 c 4.337,28.8337 8.6811,57.6697 13.0249,86.506 v 0 c 0.1766,1.1565 0.4958,2.2839 1.9488,3.3545 v 0 c 1.9083,-12.5382 3.8325,-25.067 5.7181,-37.6052 v 0 c 2.6098,-17.4164 5.231,-34.8392 7.8412,-52.2553 h 5.4867 c -5.5026,36.6046 -11.0123,73.2501 -16.5311,109.9681 v 0 h 166.6741 c -15.963,-36.7268 -31.8852,-73.3725 -47.7938,-109.9681 h 5.917 c 15.2048,34.9997 30.4183,70.0087 45.6231,105.0154 v 0 c 1.324,3.0671 2.4514,5.4394 6.8269,5.4077 v 0 c 28.6912,-0.1676 57.3826,-0.1608 86.076,-0.1517 v 0 c 9.5661,0 19.1319,0 28.7002,0 v 0 c 0.9961,0 1.9942,-0.129 4.4141,-0.2874 v 0 c -32.2767,-36.7903 -64.4178,-73.427 -96.4794,-109.984 h 7.291 c 21.64,24.6821 43.2802,49.3736 64.9202,74.056 v 0 c 0.815,0.9258 1.2067,2.2116 1.7974,3.323 v 0 c 0.4958,-0.4481 0.9913,-0.9031 1.4939,-1.3581 v 0 c -13.3123,-20.4743 -26.6403,-40.9668 -39.9436,-61.448 v 0 c -3.1555,-4.8555 -6.3087,-9.72 -9.4617,-14.5729 h 6.5395 c 22.7582,34.9906 45.5255,69.9837 68.1548,105.063 v 0 c 2.5648,3.9544 5.2155,5.4235 9.9102,5.351 v 0 c 18.4144,-0.2943 36.8289,-0.1199 56.3865,-0.1199 v 0 c -1.8697,-2.5399 -2.9948,-4.2645 -4.3214,-5.8218 v 0 c -29.5129,-34.7919 -58.9397,-69.6648 -88.4458,-104.4723 h 7.0104 c 29.5942,34.8956 59.1888,69.8006 88.6949,104.7756 v 0 c 3.4271,4.0496 6.8202,5.8694 12.1306,5.6384 v 0 c 9.231,-0.4074 18.5029,-0.1199 29.6827,-0.1199 v 0 C 1394.4977,810.8263 1355.91,774.165 1317.5328,737.7052 h 8.0334 c 37.4108,35.5431 74.8327,71.0861 112.2432,106.6294 v 0 c 7.0194,6.6595 6.988,6.6844 -1.014,12.8007 v 0 c -59.2523,45.245 -118.4638,90.5466 -177.8697,135.6013 v 0 c -3.2981,2.5081 -8.1604,4.1539 -12.2959,4.1607 v 0 c -75.8874,0.2488 -151.7726,0.1834 -227.66,0.1834 v 0 c -75.6703,0 -151.3335,-0.0477 -227.0106,0.1131 v 0 c -0.025,0 -0.0496,0 -0.0814,0 v 0 c -5.718,0 -10.1976,-1.4851 -14.7407,-4.9754 -59.3314,-45.51 -118.7759,-90.8589 -178.1957,-136.258 v 0 c -6.3176,-4.8215 -6.3403,-5.1815 -0.5432,-10.6841 v 0 c 37.7479,-35.8625 75.4935,-71.7179 113.2416,-107.5711 z m 503.3106,252.485 c 0.041,0.4459 0.073,0.9009 0.1043,1.349 v 0 c 11.2116,0 22.43,0.0567 33.6416,-0.0635 v 0 c 1.614,-0.0156 3.5155,-0.5204 4.7764,-1.4621 v 0 c 8.2893,-6.1413 16.4338,-12.4724 24.1571,-19.732 v 0 c -20.8908,6.628 -41.7884,13.2716 -62.6794,19.9086 z M 759.1459,971.2891 c 8.2103,6.2747 16.393,12.5923 24.6441,18.8127 v 0 c 0.9822,0.7424 2.3383,1.3583 3.5198,1.3739 v 0 c 11.6124,0.0953 23.2155,0.0544 34.8347,0.0544 v 0 c 0.0703,-0.43 0.1516,-0.8623 0.2375,-1.2926 v 0 c -20.9134,-6.6526 -41.8269,-13.312 -62.7403,-19.9559 v 0 c -0.1608,0.3283 -0.3283,0.6633 -0.4958,1.0075 z m 383.0252,-15.6597 c -33.764,11.1302 -67.4058,22.5748 -101.0565,34.0015 v 0 c -0.5116,0.1744 -0.8784,0.7674 -1.7816,1.5801 v 0 h 146.039 c -2.8023,-2.6348 -4.5907,-4.328 -6.3879,-6.012 v 0 c -9.8535,-9.1679 -19.6052,-18.4621 -29.6509,-27.3989 v 0 c -1.4216,-1.2608 -3.9841,-2.3473 -5.9556,-2.3473 v 0 c -0.4414,0 -0.8467,0.0566 -1.2065,0.1766 z m -255.2581,2.7297 c -9.7968,9.5593 -19.931,18.7812 -30.0401,28.0372 v 0 c -1.3652,1.2541 -3.2664,1.9332 -4.9281,2.8749 v 0 c 0.5049,0.6381 0.9984,1.2697 1.501,1.908 v 0 h 144.8254 c -1.8992,-0.989 -3.0107,-1.7631 -4.2488,-2.1866 v 0 c -32.2926,-10.9333 -64.6169,-21.7531 -96.846,-32.8539 v 0 c -1.5032,-0.5252 -2.8114,-0.7968 -4.0181,-0.7968 v 0 c -2.2431,0 -4.1287,0.9485 -6.2453,3.0172 z m 9.72,-8.2959 c 40.0229,13.5431 79.0883,26.7512 119.0069,40.2537 v 0 -133.7 c -39.8463,31.2877 -78.8641,61.9188 -119.0069,93.4463 z m 125.0915,40.2061 c 39.5768,-13.3824 78.7056,-26.6063 118.8958,-40.1993 v 0 c -40.0294,-31.4234 -79.0563,-62.0705 -118.8958,-93.3491 v 0 z M 727.331,895.5306 c 5.2154,19.7229 10.3016,39.4795 15.8204,59.1231 v 0 c 0.6542,2.3723 3.2187,5.2154 5.5097,5.9578 v 0 c 30.2961,9.9734 60.6986,19.6594 91.1395,29.1938 v 0 c 1.8516,0.5839 4.9573,0.1199 6.3312,-1.1092 v 0 c 13.1993,-11.945 26.1539,-24.1549 39.9753,-37.0282 v 0 C 829.8023,919.9414 774.0541,888.5339 716.9593,856.368 v 0 c 3.7281,14.1021 7.0577,26.6312 10.3717,39.1626 z m 423.8084,56.1215 c 8.9912,8.3846 17.4319,16.3457 25.9682,24.2115 v 0 c 5.4213,4.9822 10.3717,12.5133 16.6578,13.919 v 0 c 6.268,1.4125 13.9666,-3.2755 20.986,-5.487 v 0 c 24.2206,-7.6329 48.3755,-15.4355 72.6279,-22.9258 v 0 c 4.2553,-1.3173 6.2362,-3.4566 7.3633,-7.8095 v 0 c 7.6736,-29.8502 15.6597,-59.6211 23.5235,-89.4146 v 0 c 0.5522,-2.0758 0.9825,-4.1516 1.8063,-7.6646 v 0 c -56.9364,32.0774 -112.508,63.381 -168.933,95.171 z m -416.7573,-2.4923 c 0.4323,-0.1921 0.8626,-0.3824 1.2949,-0.5658 v 0 c -8.3528,-31.6159 -16.7145,-63.2134 -25.0583,-94.7885 v 0 h -62.24 c 29.2187,32.3969 57.6088,63.8767 86.0034,95.3543 z m 567.2036,-0.6698 c 0.43,0.224 0.8532,0.43 1.2855,0.6474 v 0 c 28.3813,-31.4642 56.7601,-62.926 85.9719,-95.316 v 0 h -62.2312 c -8.3367,31.5184 -16.6827,63.0935 -25.0262,94.6686 z m -156.1641,-1.7249 c 14.4848,-31.3509 28.5395,-61.8077 42.8976,-92.9029 v 0 h -161.1553 c 39.9277,31.3667 78.6966,61.8145 118.2577,92.9029 z m -253.5964,-0.0249 c 39.3845,-30.9186 78.2189,-61.4163 118.2101,-92.808 v 0 H 848.9341 c 14.3989,31.136 28.4695,61.6019 42.8911,92.808 z M 725.6877,854.8265 c 52.416,29.5467 104.8479,59.0936 158.9664,89.5981 v 0 c -9.5117,-20.6827 -18.1678,-39.5272 -26.8555,-58.3651 v 0 c -4.3596,-9.464 -8.6153,-18.9825 -13.2964,-28.2858 v 0 c -0.9326,-1.8675 -3.5697,-4.0881 -5.4304,-4.0972 v 0 c -10.4037,-0.0635 -20.8094,-0.1108 -31.2309,-0.1108 v 0 c -27.2132,0 -54.5236,0.3033 -82.1532,1.2608 z m 474.7689,-1.2135 c -2.4832,0.025 -6.3085,1.4375 -7.2029,3.2981 v 0 c -13.5022,28.4128 -26.6312,56.9931 -39.0651,86.5786 v 0 c 52.3843,-29.5061 104.7779,-59.0031 157.1621,-88.5115 v 0 c -0.104,-0.4935 -0.206,-1.0052 -0.3101,-1.501 v 0 h -14.7586 c -13.5116,0 -27.0297,-0.0158 -40.5413,-0.0158 v 0 c -18.4303,0 -36.8606,0.0317 -55.2841,0.1516 z m -593.8257,1.15 108.4833,82.9296 c 0.2152,-0.3101 0.4235,-0.6066 0.6384,-0.9168 v 0 c -24.2748,-26.9212 -48.5363,-53.8625 -72.9153,-80.6796 v 0 c -1.27,-1.3876 -3.6329,-2.4424 -5.5185,-2.49 v 0 c -2.5784,-0.0655 -5.1656,-0.104 -7.7621,-0.104 v 0 c -7.4268,0 -14.9647,0.3192 -22.9258,1.2608 z m 793.3603,-1.1817 c -1.8921,0.0476 -4.2893,1.0777 -5.5502,2.4607 v 0 c -24.3972,26.8305 -48.6561,53.79 -72.252,81.5621 v 0 c 36.1179,-27.5887 72.2429,-55.1707 108.3611,-82.7529 v 0 c -0.2151,-0.4641 -0.43,-0.919 -0.6542,-1.374 v 0 c -5.2628,0 -10.5236,-0.0385 -15.7864,-0.0385 v 0 c -4.7038,0 -9.4144,0.0317 -14.1183,0.1426 z"
         clip-rule="evenodd"
         id="path905" />
    </clipPath>
    <linearGradient
       x1="1441.0601"
       y1="722.71997"
       x2="595.64001"
       y2="722.71997"
       gradientUnits="userSpaceOnUse"
       spreadMethod="pad"
       id="linearGradient915">
      <stop
         style="stop-opacity:1;stop-color:#9c1661"
         offset="0"
         id="stop909" />
      <stop
         style="stop-opacity:1;stop-color:#f68712"
         offset="0.54"
         id="stop911" />
      <stop
         style="stop-opacity:1;stop-color:#2c3892"
         offset="1"
         id="stop913" />
    </linearGradient>
    <clipPath
       clipPathUnits="userSpaceOnUse"
       id="clipPath1200">
      <path
         style="fill:none;stroke:#000000;stroke-width:3.60244;stroke-linecap:butt;stroke-linejoin:miter;stroke-miterlimit:4;stroke-dasharray:none;stroke-opacity:1"
         d="m 584.12605,736.93125 434.19405,-497.8715 v 0 l 460.7968,498.25682 v 0 291.06413 h -0.4328 -905.71683 v -0.4734 -280.41044 l -3.37512,6.33221 z"
         id="path1202" />
    </clipPath>
    <clipPath
       clipPathUnits="userSpaceOnUse"
       id="clipPath3300">
      <rect
         style="opacity:0.993;fill:none;stroke:#000000;stroke-width:0.0280001;stroke-opacity:1"
         id="rect3302"
         width="24.497387"
         height="21.055229"
         x="41.41193"
         y="28.039312" />
    </clipPath>
  </defs>
  <sodipodi:namedview
     id="base"
     pagecolor="#ffffff"
     bordercolor="#666666"
     borderopacity="1.0"
     inkscape:pageopacity="0.0"
     inkscape:pageshadow="2"
     inkscape:zoom="3.959798"
     inkscape:cx="37.395522"
     inkscape:cy="48.186138"
     inkscape:document-units="mm"
     inkscape:current-layer="layer1"
     inkscape:document-rotation="0"
     showgrid="false"
     inkscape:window-width="1920"
     inkscape:window-height="1016"
     inkscape:window-x="0"
     inkscape:window-y="27"
     inkscape:window-maximized="1" />
  <metadata
     id="metadata5">
    <rdf:RDF>
      <cc:Work
         rdf:about="">
        <dc:format>image/svg+xml</dc:format>
        <dc:type
           rdf:resource="http://purl.org/dc/dcmitype/StillImage" />
        <dc:title />
      </cc:Work>
    </rdf:RDF>
  </metadata>
  <g
     inkscape:label="Layer 1"
     inkscape:groupmode="layer"
     id="layer1"
     transform="translate(-40.883652,-27.309301)">
    <g
       id="g919"
       transform="matrix(0.02775901,0,0,-0.02775901,25.072338,55.856131)">
      <path
         d="m 4550.7665,593.2528 c 0.2429,16.7417 3.4464,31.8733 9.7691,45.3263 6.2492,13.3744 14.6568,24.7481 25.1492,34.0372 10.4927,9.2098 22.1037,16.335 34.9977,21.2222 12.8092,4.8818 25.7819,7.4472 38.9188,7.6844 10.2495,0 20.3409,-1.1979 30.3475,-3.6782 10.0122,-2.486 19.5443,-6.1702 28.5902,-11.052 9.0516,-4.9666 17.301,-11.2158 24.584,-18.6627 7.289,-7.526 13.0578,-16.0974 17.3804,-25.7029 h -24.3468 c -4.8821,8.4073 -11.2893,15.6115 -19.3805,21.5388 -8.0855,5.8478 -16.9733,10.3342 -26.7426,13.295 -9.8541,2.9605 -19.7813,4.4861 -29.8726,4.4861 -13.5326,-0.4011 -25.867,-3.2037 -36.8399,-8.2494 -11.0517,-5.1247 -20.42,-11.9333 -28.1098,-20.3408 -7.7635,-8.4867 -13.6114,-17.9394 -17.6964,-28.2682 -4.0853,-10.4134 -6.2436,-20.9849 -6.3227,-31.6358 0,-17.2159 4.4808,-32.353 13.5321,-45.4845 8.9671,-13.1309 20.4199,-23.3861 34.2745,-30.6694 13.8543,-7.3678 27.5505,-11.3737 41.1622,-11.9333 10.4924,0 21.9399,2.1586 34.1952,6.4865 12.2496,4.2435 23.3807,11.052 33.3139,20.42 9.9272,9.2891 16.5775,20.8213 20.0185,34.6756 h -116.3551 v 18.9791 h 141.821 c -2.0004,-16.3346 -6.4074,-30.8333 -13.2897,-43.5634 -6.8873,-12.7355 -15.4587,-23.2225 -25.7876,-31.4719 -10.3343,-8.3282 -21.7817,-14.5775 -34.2743,-18.7419 -12.4928,-4.1641 -25.5503,-6.2433 -39.0829,-6.2433 -14.3345,0.0791 -28.1098,2.9608 -41.3201,8.4864 -13.2157,5.5261 -25.0642,13.2162 -35.3988,23.0644 -10.4076,9.8484 -18.5779,21.3806 -24.4261,34.4327 -5.8422,13.0578 -8.8084,26.9121 -8.8084,41.563 z M 4371.3882,489.0682 h -20.9058 V 698.161 h 28.2736 L 4495.7557,524.9472 V 698.161 h 20.9001 V 489.0682 h -20.9001 l -124.3675,183.6272 z m -64.1472,0 h -20.9058 V 698.161 h 20.9058 z m -214.1442,0 V 698.161 h 20.9061 v -91.5338 h 108.75 v 91.5338 h 20.3409 V 489.0682 h -20.3409 v 98.2633 h -108.75 v -98.2633 h -23.1435 z M 3855.2553,608.311 c 2.0795,18.578 8.4078,34.9974 18.9794,49.1683 10.4867,14.1764 23.7027,25.0645 39.4784,32.6753 15.7753,7.6053 32.3532,11.3683 49.7333,11.3683 9.447,0 18.7361,-1.1188 27.7877,-3.4409 9.0462,-2.3222 17.6967,-5.7634 25.9461,-10.4077 8.2494,-4.7294 15.9335,-10.5716 23.0641,-17.7024 7.1251,-7.1249 13.3741,-15.5324 18.7361,-25.2227 h -23.2222 c -6.0064,7.9274 -12.9731,14.5721 -20.742,20.0191 -7.7692,5.3674 -16.0129,9.368 -24.5843,12.0121 -8.6505,2.5654 -17.2953,3.8424 -25.867,3.8424 -11.4528,0 -22.5839,-2.0795 -33.2345,-6.1645 -10.6509,-4.1644 -20.177,-10.0913 -28.5902,-17.8605 -8.4076,-7.7636 -15.0523,-17.1372 -19.9398,-28.0253 -4.8818,-10.9727 -7.2833,-22.9059 -7.2833,-35.8787 0.2375,-16.6569 4.4807,-31.6301 12.8092,-44.9255 8.2494,-13.3738 19.1432,-23.7024 32.6752,-31.1496 13.5326,-7.4526 27.8674,-11.2156 43.0041,-11.4531 8.8878,0.2375 17.6967,1.7629 26.5054,4.5655 8.7296,2.8026 17.058,6.9667 24.9851,12.651 7.9274,5.605 14.9789,12.6508 21.1434,21.2222 h 23.1434 c -7.605,-12.9728 -16.414,-23.7819 -26.5844,-32.4324 -10.1704,-8.6507 -21.1431,-15.0579 -32.8334,-19.2223 -11.6961,-4.1641 -23.7878,-6.2433 -36.3595,-6.2433 -13.8543,0 -27.3866,2.5594 -40.4444,7.6845 -13.1312,5.1244 -24.9007,12.4925 -35.3931,22.1034 -10.4924,9.6112 -18.7418,21.1433 -24.7482,34.6757 -6.006,13.4532 -9.0459,28.11 -9.0459,44.0435 0,4.7294 0.322,9.453 0.8813,14.0976 z m -117.5587,65.5087 -40.6817,-95.5398 h 81.0414 z m -11.6113,24.3413 h 23.2226 l 89.7709,-209.0928 h -22.5839 l -30.7488,70.0742 h -96.6586 l -30.1949,-70.0742 h -22.6633 z m -305.113,-101.4613 c 0.3163,-15.9395 3.2828,-29.7091 8.8086,-41.3257 5.5259,-11.6907 12.7299,-21.2171 21.6179,-28.5058 8.8934,-7.2887 18.3407,-12.6564 28.5112,-16.0186 10.1704,-3.4407 20.0188,-5.1244 29.5506,-5.1244 9.8484,0.1581 19.8606,1.921 30.0311,5.2038 10.1704,3.2828 19.7815,8.3285 28.6693,15.2952 8.8877,6.9667 16.2558,15.8601 21.9401,26.8274 5.6897,10.8935 8.9723,23.7875 9.7691,38.6024 0,17.3744 -4.2432,32.9916 -12.7301,46.846 -8.5714,13.7755 -19.7022,24.4261 -33.5569,31.9524 -13.8543,7.5316 -28.4263,11.2946 -43.5631,11.2946 -12.0126,0 -23.3807,-2.4012 -34.1954,-7.2887 -10.8088,-4.8875 -20.42,-11.4531 -28.6694,-19.7816 -8.3284,-8.3284 -14.7359,-17.5382 -19.3011,-27.7086 -4.5598,-10.1705 -6.8819,-20.2618 -6.8819,-30.2684 z m -20.9058,-1.1245 c 0.2429,13.0578 3.0452,25.867 8.3285,38.4387 5.2883,12.5773 12.8145,23.9456 22.663,34.1951 9.7747,10.2552 21.3862,18.3408 34.7601,24.3471 13.3687,6.006 27.9462,8.9668 43.6425,8.9668 20.0979,0 38.7606,-4.8818 55.819,-14.572 17.058,-9.69 30.5903,-23.0641 40.5969,-39.9586 9.9329,-16.8999 14.8998,-35.5567 14.8998,-55.8978 -0.2433,-15.459 -3.6049,-29.7936 -10.0914,-42.8457 -6.4865,-13.1312 -15.1373,-24.4261 -25.9461,-33.7941 -10.8144,-9.4529 -22.9062,-16.6569 -36.28,-21.7026 -13.3745,-5.0456 -26.9859,-7.605 -40.6817,-7.605 -13.2897,0.3954 -26.3472,3.2825 -39.1564,8.5657 -12.894,5.2829 -24.505,12.7355 -34.8392,22.4257 -10.3286,9.6846 -18.578,21.3012 -24.5843,34.8338 -6.0855,13.5321 -9.1307,28.3471 -9.1307,44.6029 z m -229.0329,12.7358 c 2.0795,18.578 8.4079,34.9974 18.9794,49.1683 10.4868,14.1764 23.7027,25.0645 39.4784,32.6753 15.7754,7.6053 32.3529,11.3683 49.7333,11.3683 9.447,0 18.7362,-1.1188 27.7877,-3.4409 9.0462,-2.3222 17.6967,-5.7634 25.9461,-10.4077 8.2494,-4.7294 15.9336,-10.5716 23.0641,-17.7024 7.1252,-7.1249 13.3742,-15.5324 18.7362,-25.2227 h -23.2223 c -6.0063,7.9274 -12.973,14.5721 -20.7422,20.0191 -7.7689,5.3674 -16.0129,9.368 -24.5841,12.0121 -8.6505,2.5654 -17.2953,3.8424 -25.867,3.8424 -11.4528,0 -22.5839,-2.0795 -33.2345,-6.1645 -10.6509,-4.1644 -20.177,-10.0913 -28.5902,-17.8605 -8.4076,-7.7636 -15.0525,-17.1372 -19.9398,-28.0253 -4.8818,-10.9727 -7.2833,-22.9059 -7.2833,-35.8787 0.2375,-16.6569 4.4807,-31.6301 12.8092,-44.9255 8.2494,-13.3738 19.1432,-23.7024 32.6752,-31.1496 13.5326,-7.4526 27.8674,-11.2156 43.0042,-11.4531 8.8877,0.2375 17.6967,1.7629 26.5053,4.5655 8.7296,2.8026 17.0581,6.9667 24.9852,12.651 7.9273,5.605 14.9788,12.6508 21.1433,21.2222 h 23.1435 c -7.6051,-12.9728 -16.4141,-23.7819 -26.5845,-32.4324 -10.1704,-8.6507 -21.143,-15.0579 -32.8334,-19.2223 -11.6963,-4.1641 -23.7878,-6.2433 -36.3594,-6.2433 -13.8544,0 -27.3867,2.5594 -40.4445,7.6845 -13.1312,5.1244 -24.9006,12.4925 -35.3931,22.1034 -10.4924,9.6112 -18.7418,21.1433 -24.7481,34.6757 -6.0061,13.4532 -9.046,28.11 -9.046,44.0435 0,4.7294 0.3221,9.453 0.8813,14.0976 z m 1830.2775,219.7718 v 209.0928 h 56.2198 c 17.3803,0 31.7148,-2.0001 43.0041,-6.0854 11.289,-4.085 19.8604,-9.368 25.7876,-15.7754 5.9273,-6.4865 10.0066,-13.216 12.3287,-20.2618 2.3222,-7.1248 3.769,-14.7359 4.4864,-22.9005 0,-11.7748 -2.6441,-22.663 -7.9273,-32.7543 -5.3677,-10.0914 -12.7358,-18.0978 -22.1038,-24.0248 -9.447,-6.0063 -20.0979,-8.9728 -31.873,-8.9728 l 59.1018,-78.3178 h -26.2681 l -71.2723,94.8957 h 17.5385 c 12.4925,0 23.3861,1.8419 32.7546,5.5258 9.2888,3.6051 16.4985,8.9728 21.5385,16.0977 5.0457,7.1249 7.611,15.5381 7.611,25.3074 0,10.0914 -2.7235,18.7362 -8.1703,26.0252 -5.5261,7.2887 -12.7301,12.7355 -21.6179,16.4988 -8.8937,3.6839 -18.2616,5.5258 -28.1097,5.5258 h -42.1228 V 828.0828 Z m -151.1159,0 v 209.0928 h 114.1181 v -19.2164 h -93.2123 v -75.1994 h 90.1724 v -18.5777 h -90.1724 v -77.4423 h 93.2123 v -18.657 z M 4595.296,932.2673 c 0.2429,16.7417 3.4466,31.8734 9.769,45.3263 6.2493,13.3744 14.6568,24.7482 25.1493,34.0373 10.4927,9.2098 22.104,16.3346 34.9976,21.2224 12.8092,4.8816 25.7823,7.4469 38.9189,7.6842 10.2495,0 20.3411,-1.1979 30.3477,-3.6783 10.0122,-2.4862 19.544,-6.1701 28.5902,-11.052 9.0516,-4.9665 17.301,-11.2158 24.5841,-18.6627 7.2887,-7.526 13.0578,-16.0974 17.38,-25.7029 h -24.3468 c -4.8818,8.4076 -11.2892,15.6116 -19.3801,21.5388 -8.0856,5.8479 -16.9736,10.3343 -26.7427,13.2951 -9.8543,2.9605 -19.7818,4.4861 -29.8729,4.4861 -13.5323,-0.4011 -25.8667,-3.2037 -36.8396,-8.2494 -11.052,-5.1248 -20.4199,-11.9333 -28.11,-20.3409 -7.7636,-8.4866 -13.6114,-17.9396 -17.6964,-28.2682 -4.0853,-10.4133 -6.2436,-20.9849 -6.3227,-31.6358 0,-17.2159 4.4807,-32.3532 13.5323,-45.4841 8.9668,-13.1312 20.4199,-23.3864 34.2743,-30.6698 13.8543,-7.3678 27.5507,-11.3737 41.1621,-11.9332 10.4925,0 21.9399,2.1585 34.1952,6.4865 12.2496,4.2434 23.3807,11.052 33.3136,20.4199 9.9278,9.2891 16.5779,20.8213 20.0191,34.6757 h -116.3556 v 18.9791 h 141.8212 c -2.0004,-16.335 -6.4074,-30.8333 -13.2893,-43.5634 -6.8877,-12.7358 -15.4591,-23.2223 -25.7879,-31.4717 -10.3343,-8.3285 -21.7815,-14.5777 -34.2743,-18.7418 -12.4926,-4.1644 -25.5504,-6.2436 -39.0827,-6.2436 -14.3345,0.0791 -28.11,2.9605 -41.3201,8.4866 -13.2162,5.5259 -25.0645,13.2157 -35.3987,23.0641 -10.408,9.8487 -18.5783,21.3806 -24.4262,34.4327 -5.8422,13.0576 -8.8086,26.9122 -8.8086,41.563 z M 4432.648,828.0828 v 209.0928 h 56.2201 c 17.38,0 31.7145,-2.0001 43.0038,-6.0854 11.2893,-4.085 19.8607,-9.368 25.7876,-15.7754 5.9273,-6.4865 10.0069,-13.216 12.3288,-20.2618 2.3224,-7.1248 3.7689,-14.7359 4.4863,-22.9005 0,-11.7748 -2.6441,-22.663 -7.927,-32.7543 -5.3677,-10.0914 -12.7358,-18.0978 -22.1038,-24.0248 -9.4473,-6.0063 -20.0979,-8.9728 -31.8733,-8.9728 l 59.1018,-78.3178 h -26.2681 l -71.272,94.8957 h 17.5382 c 12.4926,0 23.3864,1.8419 32.7546,5.5258 9.2889,3.6051 16.4988,8.9728 21.5388,16.0977 5.0456,7.1249 7.6107,15.5381 7.6107,25.3074 0,10.0914 -2.7232,18.7362 -8.1703,26.0252 -5.5258,7.2887 -12.7298,12.7355 -21.6178,16.4988 -8.8935,3.6839 -18.2614,5.5258 -28.1098,5.5258 H 4453.554 V 828.0828 Z m -151.1158,0 v 209.0928 h 114.118 v -19.2164 h -93.212 v -75.1994 h 90.1724 v -18.5777 h -90.1724 v -77.4423 h 93.212 v -18.657 z m -141.2615,100.8229 v -82.1659 h 38.1164 c 34.6756,0 52.0557,14.0182 52.0557,42.1226 0,8.7296 -2.2431,16.0186 -6.8086,22.0246 -4.5652,6.0064 -10.9726,10.4925 -19.3802,13.5323 -8.4075,2.9665 -18.0977,4.4864 -29.2288,4.4864 z m 0,89.0535 v -70.0744 h 33.9523 c 12.5716,0 23.3016,2.9665 32.2741,8.8878 8.9668,5.8481 13.4532,15.0579 13.4532,27.5505 -0.8022,11.4533 -5.2829,19.94 -13.5323,25.4658 -8.2494,5.4468 -18.9,8.1703 -31.9521,8.1703 z m 33.393,19.2164 c 13.4529,0 25.1433,-2.2431 34.9977,-6.8029 9.8481,-4.5655 17.4534,-10.8147 22.8211,-18.6627 5.2829,-7.8483 8.2494,-16.5779 8.8087,-26.2678 0,-6.967 -0.7231,-13.0524 -2.2431,-18.3351 -1.5199,-5.368 -3.8423,-10.2495 -7.1249,-14.7359 -3.2828,-4.4864 -7.4471,-8.7298 -12.6566,-12.6567 11.2949,-5.684 19.7024,-12.8092 25.2283,-21.3806 5.5259,-8.5657 8.3285,-19.9394 8.3285,-34.0313 0,-9.5321 -2.7236,-18.6628 -8.091,-27.3076 -5.3623,-8.7298 -13.2105,-15.6963 -23.4601,-20.9851 -10.2551,-5.2827 -22.1037,-7.9271 -35.636,-7.9271 h -65.2717 v 209.0928 z M 3931.1776,828.0828 h -20.9058 v 209.0928 h 28.2739 l 116.9994,-173.2139 v 173.2139 h 20.9004 V 828.0828 h -20.9004 L 3931.1776,1011.71 Z m -172.0213,0 v 209.0928 h 114.1177 v -19.2164 h -93.2119 v -75.1994 h 90.1723 v -18.5777 h -90.1723 v -77.4423 h 93.2119 v -18.657 z m -109.8692,18.657 86.7257,0.565 v -19.222 h -107.6315 v 209.0928 h 20.9058 z m -130.7747,0 86.7255,0.565 v -19.222 h -107.6313 v 209.0928 h 20.9058 z m -172.0216,-18.657 v 209.0928 h 114.1181 v -19.2164 h -93.2123 v -75.1994 h 90.1721 v -18.5777 h -90.1721 v -77.4423 h 93.2123 v -18.657 z m -167.8518,0 v 208.5335 h 20.9001 V 916.492 l 96.6589,120.1243 h 26.511 l -82.1662,-102.0265 81.6066,-106.507 h -25.9514 l -69.5886,89.85 -27.0703,-33.6302 v -56.2198 z"
         style="fill:#ffffff;fill-opacity:1;fill-rule:nonzero;stroke:none"
         id="path921" />
      <path
         d="m 5328.1074,94.7489 105.967,233.9949 h -123.1231 v 41.5253 h 173.6734 V 335.609 C 5446.6036,251.2259 5408.5513,166.8597 5370.5242,82.4805 h -47.9715 z m -202.7565,0 105.9608,233.9949 h -123.1198 v 41.5253 h 173.6697 V 335.609 C 5243.8433,251.2259 5205.7882,166.8597 5167.7612,82.4805 h -47.9651 z m -304.0458,0 105.9633,233.9949 h -123.1206 v 41.5253 h 173.6708 V 335.609 C 4939.7967,251.2259 4901.745,166.8597 4863.7182,82.4805 h -47.969 z m -202.7602,0 105.9639,233.9949 h -123.1209 v 41.5253 h 173.6702 V 335.609 C 4737.037,251.2259 4698.9856,166.8597 4660.9608,82.4805 h -47.9713 z m -241.96,233.9949 h -45.6726 v 41.5253 h 90.0929 c -0.01,-95.9298 0,-191.8602 0,-287.7886 h -44.4203 z M 4111.7411,94.7489 4217.7056,328.7438 H 4094.581 v 41.5253 h 173.67 V 335.609 C 4230.2302,251.2259 4192.1753,166.8597 4154.148,82.4805 h -47.969 l 5.5587,12.2684 z m -202.763,0 105.9667,233.9949 h -123.1231 v 41.5253 H 4065.495 V 335.609 C 4027.4731,251.2259 3989.4191,166.8597 3951.3909,82.4805 h -47.9676 z m -262.4743,228.7712 c -9.0845,-6.9367 -15.9724,-14.7169 -20.6377,-23.3255 -4.6703,-8.6139 -7.196,-18.1423 -7.5557,-28.5678 0.2027,-5.1364 0.9788,-10.0936 2.3289,-14.8691 1.3663,-4.834 3.3086,-9.4317 5.8196,-13.7923 l 0.07,-0.0672 c 2.4956,-4.4413 5.4144,-8.3973 8.7414,-11.8683 3.392,-3.5425 7.2068,-6.6218 11.4327,-9.2345 l 0.1044,-0.0337 c 4.1436,-2.6303 8.511,-4.6284 13.0898,-5.9981 4.6287,-1.3842 9.4501,-2.1538 14.4465,-2.3088 4.7608,0.155 9.46,0.8152 14.0788,1.9652 4.7143,1.1724 9.3305,2.8642 13.8512,5.0565 v -0.0139 c 4.2265,2.0707 8.0439,4.6536 11.435,7.7629 3.3672,3.081 6.3938,6.7887 9.07,11.1362 l 0.016,-0.01 c 2.5715,4.2015 4.5045,8.8807 5.7999,14.0289 1.3323,5.2864 1.9948,11.1101 1.9948,17.4637 0,5.9032 -0.6067,11.4024 -1.8224,16.4934 -1.2212,5.1123 -3.0606,9.9615 -5.5123,14.5434 -2.4222,4.5256 -5.3036,8.5992 -8.6581,12.2035 -3.3089,3.5507 -7.075,6.6285 -11.3139,9.2123 -4.1766,2.5058 -8.6392,4.4059 -13.3841,5.6928 -4.7089,1.2784 -9.6829,1.9233 -14.9142,1.9233 -4.741,0 -9.4958,-0.6228 -14.2586,-1.8802 -4.708,-1.243 -9.4529,-3.0776 -14.2259,-5.5131 z m -41.5627,22.214 c 4.318,4.4787 9.1275,8.4897 14.4124,12.0294 5.2889,3.5404 11.0373,6.5894 17.2245,9.144 6.1291,2.5273 12.4115,4.4475 18.8419,5.7418 6.5225,1.3139 13.0473,1.9778 19.5684,1.9778 6.9673,0 13.7409,-0.7166 20.3284,-2.162 6.5897,-1.446 12.9852,-3.6315 19.1976,-6.5656 6.1291,-2.9149 11.8346,-6.3471 17.1136,-10.2901 5.2914,-3.9518 10.2115,-8.4503 14.7438,-13.4892 l 0.034,-0.0686 c 4.438,-5.0088 8.4155,-10.3839 11.9022,-16.124 3.4806,-5.7311 6.421,-11.6998 8.7871,-17.9056 v -0.0341 c 2.3887,-6.2796 4.1774,-12.7142 5.3807,-19.2636 1.2246,-6.6748 1.8292,-13.332 1.8292,-19.9404 0,-11.438 -1.5503,-22.3117 -4.6624,-32.6395 -3.1028,-10.2983 -7.774,-20.0327 -14.0227,-29.2331 l 0.031,-0.0219 -82.9361,-124.4089 h -53.2689 l 60.0403,87.4571 c -3.5359,-0.5463 -7.1733,-0.9366 -10.9205,-1.1639 h -0.7123 c -9.0729,0.2367 -17.6666,1.7053 -25.7936,4.4203 -8.1178,2.7122 -15.7722,6.6796 -22.9756,11.9186 -7.0654,5.0884 -13.4096,10.9604 -19.0043,17.6139 -5.5588,6.6124 -10.3318,13.9229 -14.2813,21.9322 -3.922,7.9197 -6.9707,16.0158 -9.1372,24.2555 -2.1696,8.2746 -3.4551,16.7165 -3.8489,25.2918 v 0.6112 c 0.396,13.714 3.3245,26.5127 8.7534,38.41 5.3802,11.787 13.1823,22.6177 23.3754,32.5069 z m -202.7648,-250.9852 105.965,233.9949 h -123.1234 v 41.5253 h 173.6705 V 335.609 C 3520.6707,251.2259 3482.6156,166.8597 3444.5891,82.4805 h -47.9687 z m -187.9038,169.1634 v -78.4874 c 0,-6.7923 0.5765,-13.0365 1.7336,-18.7355 1.1421,-5.6243 2.8704,-10.8865 5.1889,-15.789 l 0.034,-0.1018 c 2.1864,-4.7823 4.8382,-8.9957 7.9441,-12.636 3.0815,-3.6125 6.5843,-6.6478 10.4992,-9.0995 l 0.1026,-0.0346 c 3.9413,-2.5353 8.1703,-4.4319 12.6658,-5.6871 4.5624,-1.2739 9.5134,-1.9117 14.8402,-1.9117 7.6726,0 14.8077,1.1718 21.3937,3.5045 6.5695,2.3281 12.6893,5.8399 18.3311,10.5227 l 0.017,-0.0206 c 5.3087,4.4141 9.3464,9.9569 12.0963,16.6149 2.8754,6.9506 4.3937,15.1453 4.5467,24.5736 h -0.031 v 89.5635 c 0,7.0778 -0.5947,13.6182 -1.7917,19.6225 -1.1651,5.866 -2.9058,11.2405 -5.2217,16.1152 l -0.012,-0.006 c -2.2927,4.8059 -5.0522,9.0238 -8.2653,12.6352 -3.166,3.5583 -6.7861,6.5548 -10.8425,8.9739 l -0.01,-0.0111 c -4.172,2.4327 -8.68,4.2755 -13.5241,5.508 -4.9045,1.247 -10.186,1.8811 -15.8567,1.8879 -17.9368,-1.298 -31.2758,-7.2445 -40.0056,-17.8299 -9.1029,-11.0358 -13.7277,-27.4312 -13.8705,-49.1712 h 0.034 z m -44.1202,7.664 c 0,10.1401 1.1535,19.7099 3.4558,28.7147 2.3099,9.0369 5.8107,17.5272 10.4941,25.4829 v 0.0346 c 4.6142,7.8168 9.9627,14.7385 16.0444,20.7774 6.1276,6.082 12.9379,11.2161 20.4304,15.4156 7.4543,4.1772 15.1577,7.327 23.0995,9.442 7.9609,2.1214 16.0745,3.1836 24.3335,3.1836 6.9196,0 13.7713,-0.6883 20.5163,-2.0506 6.7895,-1.3703 13.2608,-3.3852 19.3805,-6.0259 6.1475,-2.6515 11.8981,-5.8811 17.2445,-9.6543 5.3907,-3.8052 10.3465,-8.1569 14.8689,-13.0234 4.4909,-4.832 8.4985,-10.0579 11.9818,-15.6408 3.4316,-5.4986 6.381,-11.4066 8.8097,-17.6865 2.4509,-6.3127 4.2617,-12.8089 5.4508,-19.4748 1.2005,-6.74 1.7929,-13.6965 1.7929,-20.8483 v -92.7828 l -0.034,-0.1697 c -0.1721,-7.7794 -1.0041,-15.1325 -2.4619,-22.0204 -1.4916,-7.0436 -3.6573,-13.7104 -6.4627,-19.9565 l -0.033,-0.0675 c -2.829,-6.2067 -6.1455,-11.9531 -9.9488,-17.2355 -3.8145,-5.3005 -8.1308,-10.1355 -12.9427,-14.4966 -4.7984,-4.335 -9.8404,-8.1037 -15.1183,-11.3179 -5.3399,-3.2494 -10.9601,-5.9788 -16.8471,-8.1964 h -0.036 c -5.9131,-2.1977 -11.8766,-3.831 -17.9019,-4.9144 -6.1467,-1.1047 -12.2256,-1.6503 -18.2588,-1.6503 l -0.033,0.0328 c -7.0671,0.0482 -13.8192,0.7711 -20.2558,2.1504 -6.6047,1.4176 -12.9404,3.5113 -18.9947,6.26 l 0.01,0.0131 c -6.0792,2.7161 -11.6983,5.9215 -16.8838,9.6179 -5.239,3.7358 -10.0275,7.9538 -14.3898,12.6579 -4.4033,4.744 -8.3086,9.8228 -11.6912,15.237 -3.3553,5.3703 -6.2013,11.0696 -8.5127,17.0941 -2.3477,6.0072 -4.1165,12.1504 -5.3045,18.4484 -1.199,6.359 -1.7986,12.7681 -1.7986,19.2424 v 93.4078 z"
         style="fill:#ffffff;fill-opacity:1;fill-rule:nonzero;stroke:none"
         id="path923" />
    </g>
    <g
       id="g3296"
       clip-path="url(#clipPath3300)">
      <g
         id="g869"
         transform="matrix(0.02775901,0,0,-0.02775901,25.072338,55.856131)"
         clip-path="url(#clipPath1200)">
        <g
           id="g871"
           clip-path="url(#clipPath875)">
          <path
             d="M 5668.9951,1413.2993 5659.395,0 H 0 v 1417.3228 l 580.5224,-679.621 h 926.0938 l 326.6883,327.5328 327.4334,-452.3326 979.6115,671.051 1146.2865,-129.7403 z"
             style="fill:url(#linearGradient889);fill-rule:evenodd;stroke:none"
             id="path891" />
        </g>
      </g>
      <path
         d="m 40.88364,34.930587 12.456256,14.289481 8.885881,-9.58235"
         style="fill:none;stroke:#ffffff;stroke-width:0.315;stroke-linecap:butt;stroke-linejoin:miter;stroke-miterlimit:10;stroke-dasharray:none;stroke-opacity:1"
         id="path893" />
      <g
         id="g895"
         transform="matrix(0.02775901,0,0,-0.02775901,25.072338,55.856131)">
        <path
           d="m 1215.057,991.5369 c -0.032,-0.4458 -0.073,-0.894 -0.1043,-1.349 20.891,-6.6347 41.7886,-13.2715 62.6794,-19.9085 -7.7233,7.2595 -15.8678,13.5929 -24.1572,19.741 -1.2699,0.9417 -3.1623,1.4375 -4.7763,1.453 -11.2116,0.1293 -22.43,0.0635 -33.6416,0.0635 z m -392.6704,-1.3016 c -0.0882,0.4393 -0.1608,0.8626 -0.2489,1.2948 -11.6102,0 -23.2132,0.0477 -34.8234,-0.0567 -1.1905,-0.0155 -2.5489,-0.6315 -3.522,-1.3739 -8.2576,-6.2113 -16.4339,-12.5291 -24.6441,-18.8127 0.1675,-0.3351 0.335,-0.6701 0.4957,-1.0074 20.9135,6.6529 41.8269,13.3055 62.7427,19.9559 z M 715.7548,936.7804 c -0.2148,0.3033 -0.43,0.6066 -0.6383,0.919 L 606.6332,854.763 c 10.7475,-1.2699 20.7232,-1.4057 30.6878,-1.15 1.8856,0.0386 4.2486,1.0933 5.5095,2.4832 24.3881,26.8149 48.6405,53.7584 72.9243,80.6842 z m 714.1434,-83.3032 c 0.2239,0.455 0.4323,0.9099 0.6565,1.3717 -36.1273,27.5822 -72.2455,55.1733 -108.3634,82.762 23.589,-27.7721 47.857,-54.7316 72.252,-81.5712 1.2608,-1.3898 3.649,-2.4108 5.5502,-2.4516 9.9646,-0.2467 19.9403,-0.1109 29.9047,-0.1109 z m -576.4479,137.702 c -0.5049,-0.6406 -1.0074,-1.2699 -1.5032,-1.9012 1.6549,-0.9507 3.5629,-1.6208 4.928,-2.8908 10.1024,-9.2469 20.2434,-18.4711 30.0402,-28.0301 3.2505,-3.185 5.9578,-3.7125 10.2631,-2.2274 32.2293,11.1075 64.5537,21.9274 96.8394,32.8674 1.2382,0.4076 2.3565,1.1908 4.2557,2.1821 z m 185.885,0.0386 c 0.8941,-0.8218 1.2631,-1.4125 1.7816,-1.5891 33.6574,-11.42 67.3016,-22.8691 101.0474,-34.0016 1.9806,-0.6474 5.4304,0.6315 7.1711,2.1708 10.0457,8.9458 19.7975,18.231 29.6419,27.3988 1.8063,1.6863 3.5946,3.3863 6.397,6.0211 z m -303.6651,-42.626 c -0.43,0.1925 -0.8626,0.3827 -1.2926,0.5658 C 705.9807,917.68 677.5929,886.2001 648.381,853.8032 h 62.24 c 8.3438,31.5751 16.6964,63.1817 25.0492,94.7886 z m 567.1942,0.5434 c -0.43,-0.2152 -0.8533,-0.4235 -1.2855,-0.6475 8.3525,-31.5751 16.6986,-63.1502 25.0353,-94.6595 h 62.2312 c -29.2119,32.381 -57.5997,63.8427 -85.981,95.307 z M 1433.6286,847.997 c -11.1889,0 -20.4517,-0.2874 -29.6827,0.1199 -5.3105,0.2333 -8.7035,-1.5888 -12.1306,-5.6361 -45.9876,-54.5009 -92.1674,-108.8433 -138.293,-163.2334 -1.1248,-1.3334 -2.1481,-2.7705 -3.2097,-4.1581 0.2398,-0.1857 0.4799,-0.3759 0.7265,-0.5593 60.4023,57.3826 120.8135,114.783 182.5895,173.467 z M 786.1711,674.5618 c 0.2719,0.2556 0.5434,0.5093 0.815,0.765 -47.9296,56.5291 -95.8434,113.0672 -143.8274,169.5419 -1.1656,1.3652 -3.0671,2.9293 -4.663,2.9699 -10.9718,0.2559 -21.9614,0.1357 -34.8641,0.1357 61.7672,-58.6862 122.1533,-116.0526 182.5395,-173.4125 z m 524.8718,178.9154 c 0.104,0.4935 0.1993,1.0052 0.3101,1.501 -52.391,29.5061 -104.7779,59.0054 -157.1689,88.5024 12.4475,-29.5786 25.5696,-58.159 39.0719,-86.5627 0.8875,-1.8674 4.7197,-3.2822 7.196,-3.2981 31.942,-0.2239 63.8904,-0.1426 95.8323,-0.1426 z M 884.6563,944.4223 C 830.5379,913.9178 778.106,884.3732 725.6809,854.833 c 38.2187,-1.3331 75.8058,-1.3966 113.3955,-1.1565 1.8606,0.007 4.4954,2.2365 5.428,4.0949 4.6812,9.3033 8.9368,18.8218 13.2965,28.2861 8.6876,18.8376 17.3461,37.6912 26.8554,58.3648 z m 260.7676,2.3496 c -39.5612,-31.0884 -78.33,-61.5452 -118.2577,-92.912 h 161.1552 c -14.358,31.0952 -28.4195,61.5609 -42.8975,92.912 z M 848.9364,853.9322 h 161.1011 c -39.9911,31.3894 -78.8255,61.8871 -118.2169,92.8148 -14.4238,-31.2242 -28.4944,-61.672 -42.8842,-92.8148 z m 166.7058,136.3915 c -39.9277,-13.5116 -78.984,-26.7196 -119.0069,-40.2537 40.1428,-31.5365 79.1606,-62.1677 119.0069,-93.4554 z m 124.9827,-40.2468 c -40.1925,13.5839 -79.3214,26.8078 -118.8981,40.1901 V 856.7186 c 39.8418,31.2787 78.8663,61.928 118.8981,93.3583 z M 648.1658,847.997 c 2.1167,-2.6824 3.3616,-4.3597 4.7106,-5.9556 38.5152,-45.4374 76.8291,-91.0514 115.6162,-136.2577 30.4001,-35.43 58.564,-72.9153 94.0053,-103.8181 6.2589,-5.462 12.1215,-11.3723 18.1653,-17.0813 -0.3033,2.4359 -1.3558,4.2308 -2.499,5.9897 -23.5483,36.2607 -47.1147,72.5144 -70.672,108.7843 -31.0161,47.7462 -61.9821,95.5154 -93.1499,143.1641 -1.5188,2.3091 -4.7511,4.8962 -7.2343,4.9529 -19.1185,0.4142 -38.2436,0.2217 -58.9422,0.2217 z m 507.623,-262.171 c 0.326,-0.3756 0.6542,-0.7356 0.9734,-1.1024 17.2962,16.6986 35.9756,32.1976 51.626,50.3087 59.2523,68.5874 117.5403,138.0303 176.1698,207.1517 1.3176,1.5574 2.4517,3.2822 4.3192,5.813 -19.5554,0 -37.9721,-0.1743 -56.3775,0.1199 -4.7038,0.0726 -7.3635,-1.3966 -9.9192,-5.3487 -28.8587,-44.7267 -57.9416,-89.3174 -86.9361,-133.958 -26.6334,-40.9895 -53.24,-81.9946 -79.8556,-122.9842 z M 716.9615,856.368 c 57.0881,32.1727 112.834,63.5712 169.1411,95.2977 -13.8147,12.8732 -26.767,25.0832 -39.9753,37.0281 -1.374,1.2382 -4.4728,1.6931 -6.3244,1.1115 -30.441,-9.5344 -60.8434,-19.2226 -91.1395,-29.187 -2.291,-0.7514 -4.8555,-3.5855 -5.5188,-5.9578 -5.5097,-19.6436 -10.5959,-39.4093 -15.8182,-59.1254 -3.314,-12.5359 -6.6367,-25.0582 -10.3649,-39.1671 z m 603.1131,0.1199 c -0.8237,3.5039 -1.2631,5.5888 -1.8062,7.6578 -7.8729,29.7935 -15.859,59.5621 -23.5236,89.4124 -1.127,4.3529 -3.1147,6.5012 -7.3633,7.8094 -24.2523,7.4903 -48.4163,15.302 -72.6278,22.9281 -7.0195,2.2115 -14.7181,6.8995 -20.9951,5.4847 -6.2748,-1.4057 -11.2275,-8.9345 -16.6419,-13.9189 -8.5431,-7.8568 -16.9929,-15.8179 -25.975,-24.2116 56.425,-31.79 111.9965,-63.0933 168.9329,-95.1619 z M 1027.8204,464.311 c 0.2557,-0.2874 0.5117,-0.559 0.7583,-0.8306 0.9757,0.8465 1.9805,1.6682 2.9154,2.5555 32.6367,30.9753 65.3051,61.903 97.8219,93.0072 4.1854,4.0088 7.9861,8.6086 11.1481,13.4547 39.0495,59.868 77.9383,119.84 116.877,179.778 13.3101,20.4903 26.6312,40.9737 39.9504,61.4481 -0.5026,0.4549 -0.9981,0.9099 -1.4939,1.3581 -0.5907,-1.1092 -0.9825,-2.395 -1.7952,-3.3231 -75.2082,-85.811 -150.4482,-171.5837 -225.6704,-257.3787 -1.1429,-1.3017 -2.372,-2.6442 -3.0512,-4.1925 -12.5382,-28.605 -24.9857,-57.2488 -37.4604,-85.8767 z m -286.8307,349.8996 -0.9031,-0.4709 c 0.5272,-0.8852 1.0298,-1.7793 1.5888,-2.6506 46.1574,-71.0388 92.4007,-142.037 138.4288,-213.1572 12.2822,-18.9805 24.4763,-37.739 41.9082,-52.7918 17.2489,-14.9083 33.2592,-31.2401 49.813,-46.9474 12.2417,-11.6099 24.4766,-23.2291 38.1305,-36.1973 -0.9799,2.8182 -1.2608,3.7916 -1.6591,4.7197 -11.8273,27.2945 -23.6208,54.5958 -35.568,81.8339 -1.1024,2.524 -2.9789,4.7761 -4.8237,6.8769 -44.6633,51.0035 -89.3809,101.9823 -134.085,152.9608 -30.9436,35.2806 -61.8868,70.5521 -92.8304,105.8239 z m 277.1357,-356.3439 c 1.0389,1.0049 1.4623,1.2291 1.614,1.5798 13.1763,30.2737 26.3687,60.5562 39.4092,90.8929 0.8785,2.0508 1.141,4.6698 0.8286,6.8995 -2.13,15.0599 -4.5181,30.0813 -6.7796,45.125 -9.3983,62.5346 -18.7719,125.0688 -28.1636,187.5966 -1.8857,12.5359 -3.8098,25.0648 -5.7181,37.603 -1.453,-1.0616 -1.7813,-2.1958 -1.9488,-3.3455 -13.3668,-88.7425 -26.7265,-177.4942 -40.0139,-266.2523 -0.3373,-2.2524 -0.4073,-4.9212 0.455,-6.9403 13.2556,-30.9209 26.6856,-61.7514 40.3172,-93.1587 z m 300.1362,389.8202 c -2.4109,0.1675 -3.4089,0.2874 -4.4073,0.2874 -38.2595,0.0159 -76.519,-0.0632 -114.7762,0.1517 -4.3847,0.0317 -5.5029,-2.3406 -6.827,-5.4054 -38.6671,-89.0164 -77.3475,-178.0305 -116.0053,-267.0514 -0.5998,-1.3581 -0.9507,-2.8273 -1.4216,-4.2421 0.2784,-0.1108 0.559,-0.2148 0.8309,-0.3191 80.5955,91.8731 161.1867,183.7553 242.6065,276.5789 z m -599.5842,0.3282 c 81.8676,-93.3284 162.4657,-185.2083 243.0547,-277.0815 0.4867,1.5078 0.1924,2.4903 -0.2152,3.4342 -38.9134,89.6117 -77.8657,179.2256 -116.6751,268.8962 -1.6932,3.8957 -3.9456,4.8373 -7.907,4.8214 -37.173,-0.1269 -74.3437,-0.0793 -111.5167,-0.0703 z m 303.1534,-0.3441 c 14.2064,-94.5167 28.3405,-188.5538 42.4766,-282.5909 l 1.3334,-0.1199 c 40.8762,94.0686 81.7546,188.1465 122.8572,282.7108 z M 971.538,565.096 c 0.464,-0.0409 0.928,-0.0726 1.383,-0.1109 14.1341,94.0369 28.2679,188.074 42.4743,282.591 H 848.778 c 41.1094,-94.6052 81.9382,-188.5473 122.76,-282.4801 z m 47.4341,431.9847 c 75.8874,0 151.7726,0.0632 227.66,-0.1766 4.1355,-0.0159 9,-1.6617 12.2981,-4.1698 59.3946,-45.0456 118.6084,-90.3472 177.8675,-135.6012 8.0019,-6.1163 8.0266,-6.1413 1.014,-12.8007 -137.7652,-130.8818 -275.5557,-261.741 -413.2012,-392.7427 -4.7353,-4.5114 -7.3542,-4.4164 -12.0581,0.0723 -137.9647,131.2982 -276.074,262.4428 -414.161,393.6211 -5.788,5.5026 -5.7654,5.8604 0.5522,10.6773 59.4199,45.3968 118.8644,90.7458 178.1958,136.2648 4.568,3.4971 9.0635,4.9822 14.8289,4.9731 75.6634,-0.1743 151.3335,-0.1176 227.0038,-0.1176"
           style="fill:#a7a5a6;fill-opacity:1;fill-rule:nonzero;stroke:none"
           id="path897" />
        <path
           d="m 1325.573,737.7052 h -8.0379 l -66.496,-63.1752 c -0.2466,0.1834 -0.4867,0.3736 -0.7265,0.5593 1.0616,1.3876 2.0849,2.8247 3.2097,4.1581 l 49.5935,58.4578 h -7.0035 c -29.1102,-34.3392 -58.2994,-68.6123 -87.7241,-102.6729 -15.6504,-18.1111 -34.3298,-33.6101 -51.626,-50.3087 -0.3192,0.3668 -0.6474,0.7268 -0.9734,1.1024 26.6156,40.9896 53.2222,81.9947 79.8556,122.9842 l 18.779,28.895 h -6.5463 c -35.7786,-55.0851 -71.5278,-110.1903 -107.413,-165.2074 -3.162,-4.8461 -6.9627,-9.4459 -11.1481,-13.4547 -32.5168,-31.1042 -65.1852,-62.0319 -97.8219,-93.0072 -0.9349,-0.8873 -1.9397,-1.709 -2.9154,-2.5555 -0.2466,0.2716 -0.5026,0.5432 -0.7583,0.8306 12.4747,28.6279 24.9222,57.2717 37.4604,85.8767 0.6792,1.5483 1.9083,2.8908 3.0512,4.1925 l 160.7525,183.325 h -7.2933 L 1075.6551,571.108 c -0.2719,0.1043 -0.5525,0.2083 -0.8309,0.3191 0.4709,1.4148 0.8218,2.884 1.4216,4.2421 l 70.3845,162.036 h -5.9238 l -75.0657,-172.745 -1.3334,0.1199 -25.9478,172.6251 h -5.4802 l 20.3182,-135.3413 c 2.2615,-15.0437 4.6496,-30.0651 6.7796,-45.125 0.3124,-2.2297 0.05,-4.8487 -0.8286,-6.8995 -13.0405,-30.3367 -26.2329,-60.6192 -39.4092,-90.8929 -0.1517,-0.3507 -0.5751,-0.5749 -1.614,-1.5798 -13.6316,31.4073 -27.0616,62.2378 -40.3172,93.1587 -0.8623,2.0191 -0.7923,4.6879 -0.455,6.9403 8.9708,59.9176 17.9708,119.8307 26.9867,179.7395 h -5.4598 L 972.921,564.9851 c -0.455,0.0383 -0.919,0.07 -1.383,0.1109 l -75.0136,172.6092 h -5.9329 c 23.6296,-54.4535 47.2845,-108.8955 70.9254,-163.3374 0.4076,-0.9439 0.7019,-1.9264 0.2152,-3.4342 L 815.442,737.7052 h -7.3364 l 25.7145,-29.3185 c 44.7041,-50.9785 89.4217,-101.9573 134.085,-152.9608 1.8448,-2.1008 3.7213,-4.3529 4.8237,-6.8769 11.9472,-27.2381 23.7407,-54.5394 35.568,-81.8339 0.3983,-0.9281 0.6792,-1.9015 1.6591,-4.7197 -13.6539,12.9682 -25.8888,24.5874 -38.1305,36.1973 -16.5538,15.7073 -32.5641,32.0391 -49.813,46.9474 -17.4319,15.0528 -29.626,33.8113 -41.9082,52.7918 -30.1762,46.628 -60.4497,93.204 -90.7254,139.7733 h -6.5939 l 24.7073,-38.0469 c 23.5573,-36.2699 47.1237,-72.5236 70.672,-108.7843 1.1432,-1.7589 2.1957,-3.5538 2.499,-5.9897 -6.0438,5.709 -11.9064,11.6193 -18.1653,17.0813 -35.4413,30.9028 -63.6052,68.3881 -94.0053,103.8181 -9.1134,10.6208 -18.1996,21.2644 -27.2676,31.9215 h -7.1258 l 52.8869,-62.3784 c -0.2716,-0.2557 -0.5431,-0.5094 -0.815,-0.765 l -66.4707,63.1434 h -8.0606 c 100.3365,-95.3138 200.6643,-190.639 300.9126,-286.0432 4.7039,-4.4887 7.3228,-4.5837 12.0581,-0.0723 100.2665,95.4269 200.6078,190.7767 300.9625,286.1155"
           style="fill:#ffffff;fill-opacity:1;fill-rule:nonzero;stroke:none"
           id="path899" />
        <g
           id="g901">
          <g
             id="g903"
             clip-path="url(#clipPath907)">
            <path
               d="m 711.6398,737.7052 h 8.0583 c -38.3703,36.453 -76.9399,73.0894 -116.0711,110.2714 v 0 c 12.905,0 23.8947,0.1202 34.8664,-0.1449 v 0 c 1.596,-0.0317 3.4974,-1.5956 4.663,-2.963 v 0 c 30.337,-35.7015 60.6422,-71.4302 90.9474,-107.1635 h 7.1234 c -29.531,34.7031 -58.8855,69.5696 -88.344,104.3362 v 0 c -1.358,1.5891 -2.603,3.2755 -4.7196,5.9579 v 0 c 20.6895,0 39.8236,0.1924 58.9399,-0.2308 v 0 c 2.4922,-0.0476 5.7268,-2.6348 7.2434,-4.9507 v 0 c 22.8875,-34.9863 45.6684,-70.0495 68.4448,-105.1126 h 6.5871 c -15.8995,24.4582 -31.8059,48.9186 -47.7057,73.3861 v 0 c -0.559,0.8691 -1.0525,1.7632 -1.5888,2.6507 v 0 l 0.9031,0.464 c 22.3756,-25.4996 44.7492,-50.9969 67.1182,-76.5008 h 7.3386 c -32.1091,36.6046 -64.3408,73.3385 -96.7691,110.3099 v 0 h 6.7408 c 37.1707,-0.007 74.3437,-0.0632 111.5166,0.0726 v 0 c 3.9615,0.0159 6.2139,-0.9258 7.907,-4.8305 v 0 c 15.2362,-35.1924 30.4883,-70.3689 45.7566,-105.552 h 5.9238 c -15.8817,36.5479 -31.7903,73.1528 -47.7442,109.8641 v 0 h 166.6173 c -5.5184,-36.6863 -11.0213,-73.3003 -16.5152,-109.8641 h 5.4621 c 4.337,28.8337 8.6811,57.6697 13.0249,86.506 v 0 c 0.1766,1.1565 0.4958,2.2839 1.9488,3.3545 v 0 c 1.9083,-12.5382 3.8325,-25.067 5.7181,-37.6052 v 0 c 2.6098,-17.4164 5.231,-34.8392 7.8412,-52.2553 h 5.4867 c -5.5026,36.6046 -11.0123,73.2501 -16.5311,109.9681 v 0 h 166.6741 c -15.963,-36.7268 -31.8852,-73.3725 -47.7938,-109.9681 h 5.917 c 15.2048,34.9997 30.4183,70.0087 45.6231,105.0154 v 0 c 1.324,3.0671 2.4514,5.4394 6.8269,5.4077 v 0 c 28.6912,-0.1676 57.3826,-0.1608 86.076,-0.1517 v 0 c 9.5661,0 19.1319,0 28.7002,0 v 0 c 0.9961,0 1.9942,-0.129 4.4141,-0.2874 v 0 c -32.2767,-36.7903 -64.4178,-73.427 -96.4794,-109.984 h 7.291 c 21.64,24.6821 43.2802,49.3736 64.9202,74.056 v 0 c 0.815,0.9258 1.2067,2.2116 1.7974,3.323 v 0 c 0.4958,-0.4481 0.9913,-0.9031 1.4939,-1.3581 v 0 c -13.3123,-20.4743 -26.6403,-40.9668 -39.9436,-61.448 v 0 c -3.1555,-4.8555 -6.3087,-9.72 -9.4617,-14.5729 h 6.5395 c 22.7582,34.9906 45.5255,69.9837 68.1548,105.063 v 0 c 2.5648,3.9544 5.2155,5.4235 9.9102,5.351 v 0 c 18.4144,-0.2943 36.8289,-0.1199 56.3865,-0.1199 v 0 c -1.8697,-2.5399 -2.9948,-4.2645 -4.3214,-5.8218 v 0 c -29.5129,-34.7919 -58.9397,-69.6648 -88.4458,-104.4723 h 7.0104 c 29.5942,34.8956 59.1888,69.8006 88.6949,104.7756 v 0 c 3.4271,4.0496 6.8202,5.8694 12.1306,5.6384 v 0 c 9.231,-0.4074 18.5029,-0.1199 29.6827,-0.1199 v 0 C 1394.4977,810.8263 1355.91,774.165 1317.5328,737.7052 h 8.0334 c 37.4108,35.5431 74.8327,71.0861 112.2432,106.6294 v 0 c 7.0194,6.6595 6.988,6.6844 -1.014,12.8007 v 0 c -59.2523,45.245 -118.4638,90.5466 -177.8697,135.6013 v 0 c -3.2981,2.5081 -8.1604,4.1539 -12.2959,4.1607 v 0 c -75.8874,0.2488 -151.7726,0.1834 -227.66,0.1834 v 0 c -75.6703,0 -151.3335,-0.0477 -227.0106,0.1131 v 0 c -0.025,0 -0.0496,0 -0.0814,0 v 0 c -5.718,0 -10.1976,-1.4851 -14.7407,-4.9754 -59.3314,-45.51 -118.7759,-90.8589 -178.1957,-136.258 v 0 c -6.3176,-4.8215 -6.3403,-5.1815 -0.5432,-10.6841 v 0 c 37.7479,-35.8625 75.4935,-71.7179 113.2416,-107.5711 z m 503.3106,252.485 c 0.041,0.4459 0.073,0.9009 0.1043,1.349 v 0 c 11.2116,0 22.43,0.0567 33.6416,-0.0635 v 0 c 1.614,-0.0156 3.5155,-0.5204 4.7764,-1.4621 v 0 c 8.2893,-6.1413 16.4338,-12.4724 24.1571,-19.732 v 0 c -20.8908,6.628 -41.7884,13.2716 -62.6794,19.9086 z M 759.1459,971.2891 c 8.2103,6.2747 16.393,12.5923 24.6441,18.8127 v 0 c 0.9822,0.7424 2.3383,1.3583 3.5198,1.3739 v 0 c 11.6124,0.0953 23.2155,0.0544 34.8347,0.0544 v 0 c 0.0703,-0.43 0.1516,-0.8623 0.2375,-1.2926 v 0 c -20.9134,-6.6526 -41.8269,-13.312 -62.7403,-19.9559 v 0 c -0.1608,0.3283 -0.3283,0.6633 -0.4958,1.0075 z m 383.0252,-15.6597 c -33.764,11.1302 -67.4058,22.5748 -101.0565,34.0015 v 0 c -0.5116,0.1744 -0.8784,0.7674 -1.7816,1.5801 v 0 h 146.039 c -2.8023,-2.6348 -4.5907,-4.328 -6.3879,-6.012 v 0 c -9.8535,-9.1679 -19.6052,-18.4621 -29.6509,-27.3989 v 0 c -1.4216,-1.2608 -3.9841,-2.3473 -5.9556,-2.3473 v 0 c -0.4414,0 -0.8467,0.0566 -1.2065,0.1766 z m -255.2581,2.7297 c -9.7968,9.5593 -19.931,18.7812 -30.0401,28.0372 v 0 c -1.3652,1.2541 -3.2664,1.9332 -4.9281,2.8749 v 0 c 0.5049,0.6381 0.9984,1.2697 1.501,1.908 v 0 h 144.8254 c -1.8992,-0.989 -3.0107,-1.7631 -4.2488,-2.1866 v 0 c -32.2926,-10.9333 -64.6169,-21.7531 -96.846,-32.8539 v 0 c -1.5032,-0.5252 -2.8114,-0.7968 -4.0181,-0.7968 v 0 c -2.2431,0 -4.1287,0.9485 -6.2453,3.0172 z m 9.72,-8.2959 c 40.0229,13.5431 79.0883,26.7512 119.0069,40.2537 v 0 -133.7 c -39.8463,31.2877 -78.8641,61.9188 -119.0069,93.4463 z m 125.0915,40.2061 c 39.5768,-13.3824 78.7056,-26.6063 118.8958,-40.1993 v 0 c -40.0294,-31.4234 -79.0563,-62.0705 -118.8958,-93.3491 v 0 z M 727.331,895.5306 c 5.2154,19.7229 10.3016,39.4795 15.8204,59.1231 v 0 c 0.6542,2.3723 3.2187,5.2154 5.5097,5.9578 v 0 c 30.2961,9.9734 60.6986,19.6594 91.1395,29.1938 v 0 c 1.8516,0.5839 4.9573,0.1199 6.3312,-1.1092 v 0 c 13.1993,-11.945 26.1539,-24.1549 39.9753,-37.0282 v 0 C 829.8023,919.9414 774.0541,888.5339 716.9593,856.368 v 0 c 3.7281,14.1021 7.0577,26.6312 10.3717,39.1626 z m 423.8084,56.1215 c 8.9912,8.3846 17.4319,16.3457 25.9682,24.2115 v 0 c 5.4213,4.9822 10.3717,12.5133 16.6578,13.919 v 0 c 6.268,1.4125 13.9666,-3.2755 20.986,-5.487 v 0 c 24.2206,-7.6329 48.3755,-15.4355 72.6279,-22.9258 v 0 c 4.2553,-1.3173 6.2362,-3.4566 7.3633,-7.8095 v 0 c 7.6736,-29.8502 15.6597,-59.6211 23.5235,-89.4146 v 0 c 0.5522,-2.0758 0.9825,-4.1516 1.8063,-7.6646 v 0 c -56.9364,32.0774 -112.508,63.381 -168.933,95.171 z m -416.7573,-2.4923 c 0.4323,-0.1921 0.8626,-0.3824 1.2949,-0.5658 v 0 c -8.3528,-31.6159 -16.7145,-63.2134 -25.0583,-94.7885 v 0 h -62.24 c 29.2187,32.3969 57.6088,63.8767 86.0034,95.3543 z m 567.2036,-0.6698 c 0.43,0.224 0.8532,0.43 1.2855,0.6474 v 0 c 28.3813,-31.4642 56.7601,-62.926 85.9719,-95.316 v 0 h -62.2312 c -8.3367,31.5184 -16.6827,63.0935 -25.0262,94.6686 z m -156.1641,-1.7249 c 14.4848,-31.3509 28.5395,-61.8077 42.8976,-92.9029 v 0 h -161.1553 c 39.9277,31.3667 78.6966,61.8145 118.2577,92.9029 z m -253.5964,-0.0249 c 39.3845,-30.9186 78.2189,-61.4163 118.2101,-92.808 v 0 H 848.9341 c 14.3989,31.136 28.4695,61.6019 42.8911,92.808 z M 725.6877,854.8265 c 52.416,29.5467 104.8479,59.0936 158.9664,89.5981 v 0 c -9.5117,-20.6827 -18.1678,-39.5272 -26.8555,-58.3651 v 0 c -4.3596,-9.464 -8.6153,-18.9825 -13.2964,-28.2858 v 0 c -0.9326,-1.8675 -3.5697,-4.0881 -5.4304,-4.0972 v 0 c -10.4037,-0.0635 -20.8094,-0.1108 -31.2309,-0.1108 v 0 c -27.2132,0 -54.5236,0.3033 -82.1532,1.2608 z m 474.7689,-1.2135 c -2.4832,0.025 -6.3085,1.4375 -7.2029,3.2981 v 0 c -13.5022,28.4128 -26.6312,56.9931 -39.0651,86.5786 v 0 c 52.3843,-29.5061 104.7779,-59.0031 157.1621,-88.5115 v 0 c -0.104,-0.4935 -0.206,-1.0052 -0.3101,-1.501 v 0 h -14.7586 c -13.5116,0 -27.0297,-0.0158 -40.5413,-0.0158 v 0 c -18.4303,0 -36.8606,0.0317 -55.2841,0.1516 z m -593.8257,1.15 108.4833,82.9296 c 0.2152,-0.3101 0.4235,-0.6066 0.6384,-0.9168 v 0 c -24.2748,-26.9212 -48.5363,-53.8625 -72.9153,-80.6796 v 0 c -1.27,-1.3876 -3.6329,-2.4424 -5.5185,-2.49 v 0 c -2.5784,-0.0655 -5.1656,-0.104 -7.7621,-0.104 v 0 c -7.4268,0 -14.9647,0.3192 -22.9258,1.2608 z m 793.3603,-1.1817 c -1.8921,0.0476 -4.2893,1.0777 -5.5502,2.4607 v 0 c -24.3972,26.8305 -48.6561,53.79 -72.252,81.5621 v 0 c 36.1179,-27.5887 72.2429,-55.1707 108.3611,-82.7529 v 0 c -0.2151,-0.4641 -0.43,-0.919 -0.6542,-1.374 v 0 c -5.2628,0 -10.5236,-0.0385 -15.7864,-0.0385 v 0 c -4.7038,0 -9.4144,0.0317 -14.1183,0.1426 z"
               style="fill:url(#linearGradient915);fill-rule:evenodd;stroke:none"
               id="path917" />
          </g>
        </g>
      </g>
      <path
         style="fill:none;stroke:#ffffff;stroke-width:0.315;stroke-linecap:butt;stroke-linejoin:miter;stroke-miterlimit:4;stroke-dasharray:none;stroke-opacity:1"
         d="M 53.339894,49.220069 67.134752,34.33076"
         id="path1136"
         sodipodi:nodetypes="cc" />
    </g>
  </g>
</svg>
