<?xml version="1.0" encoding="UTF-8" standalone="no"?>
<svg
   xmlns:dc="http://purl.org/dc/elements/1.1/"
   xmlns:cc="http://creativecommons.org/ns#"
   xmlns:rdf="http://www.w3.org/1999/02/22-rdf-syntax-ns#"
   xmlns:svg="http://www.w3.org/2000/svg"
   xmlns="http://www.w3.org/2000/svg"
   xmlns:sodipodi="http://sodipodi.sourceforge.net/DTD/sodipodi-0.dtd"
   xmlns:inkscape="http://www.inkscape.org/namespaces/inkscape"
   version="1.1"
   id="Ebene_1"
   x="0px"
   y="0px"
   viewBox="0 0 206.25347 133.40135"
   xml:space="preserve"
   sodipodi:docname="logo_outline.svg"
   width="206.25348"
   height="133.40135"
   inkscape:version="1.0.1 (3bc2e813f5, 2020-09-07)"><metadata
   id="metadata1921"><rdf:RDF><cc:Work
       rdf:about=""><dc:format>image/svg+xml</dc:format><dc:type
         rdf:resource="http://purl.org/dc/dcmitype/StillImage" /><dc:title></dc:title></cc:Work></rdf:RDF></metadata><defs
   id="defs1919" /><sodipodi:namedview
   pagecolor="#ffffff"
   bordercolor="#666666"
   borderopacity="1"
   objecttolerance="10"
   gridtolerance="10"
   guidetolerance="10"
   inkscape:pageopacity="0"
   inkscape:pageshadow="2"
   inkscape:window-width="1920"
   inkscape:window-height="1016"
   id="namedview1917"
   showgrid="false"
   inkscape:zoom="0.97756239"
   inkscape:cx="185.78299"
   inkscape:cy="-148.02654"
   inkscape:window-x="0"
   inkscape:window-y="27"
   inkscape:window-maximized="1"
   inkscape:current-layer="Ebene_1"
   fit-margin-top="0"
   fit-margin-left="0"
   fit-margin-right="0"
   fit-margin-bottom="0" />
<style
   type="text/css"
   id="style1396">
	.st0{fill:url(#SVGID_1_);}
	.st1{fill:url(#SVGID_2_);}
	.st2{fill:url(#SVGID_3_);}
	.st3{fill:url(#SVGID_4_);}
	.st4{fill:url(#SVGID_5_);}
	.st5{fill:url(#SVGID_6_);}
	.st6{fill:url(#SVGID_7_);}
	.st7{fill:url(#SVGID_8_);}
	.st8{fill:url(#SVGID_9_);}
	.st9{fill:#B2B2B2;}
	.st10{fill:#FFFFFF;}
	.st11{fill:url(#SVGID_10_);}
	.st12{fill:url(#SVGID_11_);}
	.st13{fill:url(#SVGID_12_);}
	.st14{fill:url(#SVGID_13_);}
	.st15{fill:url(#SVGID_14_);}
	.st16{fill:url(#SVGID_15_);}
	.st17{fill:url(#SVGID_16_);}
	.st18{fill:url(#SVGID_17_);}
	.st19{fill:url(#SVGID_18_);}
	.st20{fill:url(#SVGID_19_);}
	.st21{fill:url(#SVGID_20_);}
	.st22{fill:url(#SVGID_21_);}
	.st23{fill:url(#SVGID_22_);}
</style>

















<g
   id="g2683"
   transform="translate(-1.8732588,-38.29932)"><g
     id="eNt9aD_21_"
     transform="translate(-53.118616,-574.84068)">
	<g
   id="g1689">
		<radialGradient
   id="SVGID_14_"
   cx="158.1167"
   cy="679.86029"
   r="86.843002"
   gradientUnits="userSpaceOnUse">
			<stop
   offset="0"
   style="stop-color:#FFEF26"
   id="stop1668" />
			<stop
   offset="0.0245"
   style="stop-color:#FFE73E"
   id="stop1670" />
			<stop
   offset="0.0855"
   style="stop-color:#F9D55D"
   id="stop1672" />
			<stop
   offset="0.1478"
   style="stop-color:#F2C86D"
   id="stop1674" />
			<stop
   offset="0.2118"
   style="stop-color:#EFC074"
   id="stop1676" />
			<stop
   offset="0.28"
   style="stop-color:#EDBD76"
   id="stop1678" />
			<stop
   offset="0.67"
   style="stop-color:#DD938A"
   id="stop1680" />
			<stop
   offset="0.89"
   style="stop-color:#D0698D"
   id="stop1682" />
			<stop
   offset="1"
   style="stop-color:#C12485"
   id="stop1684" />
		</radialGradient>
		<path
   class="st15"
   d="m 158.22,613.19 c 18.44,0 36.88,-0.02 55.32,0.04 1.01,0 2.19,0.4 2.99,1.01 14.43,10.95 28.82,21.96 43.22,32.95 1.95,1.49 1.95,1.49 0.25,3.11 -33.47,31.8 -66.96,63.6 -100.4,95.43 -1.15,1.1 -1.79,1.07 -2.93,-0.02 -33.52,-31.91 -67.08,-63.77 -100.64,-95.65 -1.41,-1.34 -1.4,-1.42 0.13,-2.6 14.44,-11.03 28.88,-22.05 43.3,-33.11 1.11,-0.85 2.2,-1.21 3.6,-1.21 18.39,0.07 36.78,0.05 55.16,0.05 z M 146.7,718.16 c 0.11,0.01 0.22,0.02 0.34,0.03 3.43,-22.85 6.87,-45.7 10.32,-68.67 -13.56,0 -26.93,0 -40.49,0 9.99,22.99 19.91,45.82 29.83,68.64 z m 12.22,-68.66 c 3.45,22.97 6.89,45.82 10.32,68.67 0.11,0.01 0.22,0.02 0.32,0.03 9.93,-22.86 19.87,-45.72 29.85,-68.7 -13.57,0 -26.91,0 -40.49,0 z m -73.67,-0.08 c 19.89,22.68 39.48,45 59.06,67.33 0.12,-0.37 0.05,-0.61 -0.05,-0.83 -9.46,-21.78 -18.92,-43.55 -28.35,-65.34 -0.41,-0.95 -0.96,-1.18 -1.92,-1.17 -9.03,0.03 -18.07,0.02 -27.1,0.02 -0.4,-0.01 -0.8,-0.01 -1.64,-0.01 z m 145.7,0.07 c -0.59,-0.04 -0.83,-0.07 -1.07,-0.07 -9.3,0 -18.59,0.02 -27.89,-0.04 -1.06,-0.01 -1.34,0.57 -1.66,1.31 -9.39,21.63 -18.79,43.26 -28.19,64.89 -0.14,0.33 -0.23,0.69 -0.34,1.03 0.07,0.03 0.14,0.05 0.2,0.08 19.58,-22.31 39.16,-44.64 58.95,-67.2 z m -72.93,94.73 c 0.25,-0.24 0.36,-0.3 0.39,-0.38 3.2,-7.36 6.41,-14.71 9.58,-22.09 0.21,-0.5 0.28,-1.13 0.2,-1.68 -0.52,-3.66 -1.1,-7.31 -1.65,-10.96 -2.28,-15.19 -4.56,-30.39 -6.84,-45.58 -0.46,-3.05 -0.93,-6.09 -1.39,-9.14 -0.35,0.26 -0.43,0.53 -0.47,0.81 -3.25,21.56 -6.49,43.13 -9.72,64.7 -0.08,0.55 -0.1,1.2 0.11,1.69 3.21,7.5 6.48,15 9.79,22.63 z M 90.68,657.63 c -0.07,0.04 -0.15,0.08 -0.22,0.12 0.13,0.21 0.25,0.43 0.39,0.64 11.22,17.26 22.45,34.51 33.64,51.8 2.98,4.61 5.95,9.17 10.18,12.83 4.19,3.62 8.08,7.59 12.1,11.41 2.97,2.82 5.95,5.64 9.27,8.79 -0.24,-0.68 -0.31,-0.92 -0.4,-1.15 -2.87,-6.63 -5.74,-13.27 -8.64,-19.89 -0.27,-0.61 -0.72,-1.16 -1.17,-1.67 -10.85,-12.4 -21.72,-24.78 -32.58,-37.17 -7.54,-8.57 -15.06,-17.14 -22.57,-25.71 z m 69.69,85.02 c 0.06,0.07 0.12,0.13 0.18,0.2 0.24,-0.21 0.48,-0.41 0.71,-0.62 7.93,-7.53 15.87,-15.04 23.77,-22.6 1.02,-0.97 1.94,-2.09 2.71,-3.27 9.49,-14.55 18.94,-29.12 28.4,-43.68 3.23,-4.98 6.47,-9.96 9.71,-14.93 -0.12,-0.11 -0.24,-0.22 -0.36,-0.33 -0.14,0.27 -0.24,0.58 -0.44,0.81 -18.28,20.85 -36.56,41.69 -54.84,62.54 -0.28,0.32 -0.58,0.64 -0.74,1.02 -3.04,6.95 -6.07,13.91 -9.1,20.86 z m 71.02,-95.29 c -0.2,-0.85 -0.31,-1.36 -0.44,-1.86 -1.91,-7.24 -3.85,-14.47 -5.72,-21.73 -0.27,-1.06 -0.75,-1.58 -1.79,-1.9 -5.89,-1.82 -11.76,-3.72 -17.65,-5.57 -1.7,-0.54 -3.58,-1.68 -5.1,-1.33 -1.53,0.34 -2.73,2.17 -4.05,3.38 -2.08,1.91 -4.13,3.85 -6.31,5.88 13.72,7.73 27.22,15.33 41.06,23.13 z m -146.55,0.03 c 13.87,-7.82 27.42,-15.45 41.1,-23.16 -3.36,-3.13 -6.51,-6.1 -9.71,-9 -0.33,-0.3 -1.09,-0.41 -1.54,-0.27 -7.4,2.32 -14.78,4.67 -22.15,7.09 -0.56,0.18 -1.18,0.87 -1.34,1.45 -1.34,4.77 -2.58,9.57 -3.84,14.37 -0.81,3.04 -1.62,6.09 -2.52,9.52 z m 106.63,65.74 c 0.08,0.09 0.16,0.18 0.24,0.27 4.2,-4.06 8.74,-7.82 12.54,-12.23 14.4,-16.67 28.56,-33.54 42.81,-50.33 0.32,-0.38 0.6,-0.8 1.05,-1.41 -4.75,0 -9.23,0.04 -13.7,-0.03 -1.14,-0.02 -1.79,0.34 -2.41,1.3 -7.01,10.87 -14.08,21.7 -21.13,32.55 -6.47,9.95 -12.93,19.91 -19.4,29.88 z M 68.12,649.42 c 0.51,0.65 0.82,1.06 1.14,1.45 9.36,11.04 18.67,22.12 28.09,33.11 7.39,8.61 14.23,17.72 22.84,25.23 1.52,1.33 2.95,2.76 4.41,4.15 -0.07,-0.59 -0.33,-1.03 -0.61,-1.45 -5.72,-8.81 -11.45,-17.62 -17.17,-26.43 -7.54,-11.6 -15.06,-23.21 -22.64,-34.79 -0.37,-0.56 -1.15,-1.19 -1.76,-1.2 -4.62,-0.12 -9.27,-0.07 -14.3,-0.07 z m 119.66,-24.8 c -9.77,-3.3 -19.27,-6.52 -28.89,-9.77 0,10.84 0,21.51 0,32.45 9.68,-7.6 19.17,-15.05 28.89,-22.68 z m -30.37,-9.78 c -9.7,3.28 -19.19,6.49 -28.92,9.78 9.76,7.66 19.24,15.1 28.92,22.71 0,-10.98 0,-21.62 0,-32.49 z m -40.5,33.14 c 13.09,0 25.93,0 39.15,0 -9.72,-7.63 -19.15,-15.04 -28.72,-22.55 -3.52,7.58 -6.94,14.98 -10.43,22.55 z m 72.04,-22.56 c -9.61,7.55 -19.03,14.95 -28.74,22.58 13.28,0 26.12,0 39.16,0 -3.48,-7.56 -6.9,-14.96 -10.42,-22.58 z m -63.36,0.57 c -13.15,7.41 -25.89,14.59 -38.63,21.77 9.29,0.32 18.42,0.34 27.55,0.28 0.45,0 1.09,-0.54 1.32,-1 1.14,-2.26 2.17,-4.57 3.23,-6.87 2.11,-4.58 4.21,-9.16 6.53,-14.18 z m 103.6,22.1 c 0.03,-0.12 0.05,-0.24 0.08,-0.37 -12.73,-7.17 -25.46,-14.34 -38.19,-21.51 3.02,7.19 6.21,14.13 9.49,21.04 0.22,0.45 1.15,0.8 1.75,0.8 7.76,0.05 15.52,0.03 23.29,0.03 1.19,0.01 2.39,0.01 3.58,0.01 z m -127.54,43.47 c 0.07,-0.06 0.13,-0.13 0.2,-0.19 C 90.2,677.63 78.56,663.9 66.9,650.17 c -0.28,-0.33 -0.75,-0.71 -1.13,-0.72 -2.67,-0.06 -5.33,-0.03 -8.47,-0.03 15.01,14.27 29.68,28.2 44.35,42.14 z m 157.33,-42.14 c -2.72,0 -4.97,0.07 -7.21,-0.03 -1.29,-0.06 -2.12,0.39 -2.95,1.37 -11.18,13.24 -22.4,26.45 -33.6,39.66 -0.28,0.32 -0.52,0.67 -0.78,1.01 0.06,0.05 0.12,0.09 0.18,0.14 14.67,-13.94 29.35,-27.89 44.36,-42.15 z m -31.77,-24.58 c -0.1,0.05 -0.21,0.11 -0.31,0.16 2.03,7.67 4.06,15.34 6.08,23 5.02,0 9.89,0 15.12,0 -7.1,-7.86 -14,-15.51 -20.89,-23.16 z m -137.83,0.14 c -0.1,-0.05 -0.21,-0.09 -0.31,-0.14 -6.9,7.65 -13.8,15.3 -20.9,23.17 5.24,0 10.12,0 15.12,0 2.03,-7.67 4.06,-15.35 6.09,-23.03 z m 73.79,-10.36 c 0.22,0.2 0.31,0.34 0.43,0.39 8.18,2.77 16.35,5.56 24.55,8.26 0.48,0.16 1.32,-0.15 1.74,-0.53 2.44,-2.17 4.81,-4.43 7.2,-6.66 0.44,-0.41 0.87,-0.82 1.55,-1.46 -12.03,0 -23.68,0 -35.47,0 z M 118,614.63 c -0.12,0.15 -0.24,0.31 -0.37,0.46 0.4,0.23 0.87,0.39 1.2,0.7 2.45,2.25 4.92,4.49 7.3,6.81 0.79,0.77 1.45,0.9 2.49,0.54 7.83,-2.7 15.69,-5.33 23.53,-7.99 0.3,-0.1 0.57,-0.29 1.03,-0.53 -11.89,0.01 -23.53,0.01 -35.18,0.01 z m 140.08,33.46 c 0.05,-0.11 0.11,-0.22 0.16,-0.33 -8.78,-6.7 -17.55,-13.41 -26.33,-20.11 5.73,6.75 11.63,13.3 17.56,19.82 0.31,0.34 0.89,0.59 1.35,0.6 2.41,0.05 4.83,0.02 7.26,0.02 z M 84.54,627.85 c -0.05,-0.07 -0.1,-0.15 -0.16,-0.22 -8.79,6.72 -17.57,13.43 -26.36,20.15 2.61,0.31 5.04,0.34 7.46,0.28 0.46,-0.01 1.03,-0.27 1.34,-0.61 5.93,-6.52 11.82,-13.06 17.72,-19.6 z m 25.91,-12.99 c -0.02,-0.11 -0.04,-0.21 -0.06,-0.32 -2.82,0 -5.64,-0.01 -8.46,0.01 -0.29,0 -0.62,0.15 -0.85,0.33 -2.01,1.51 -3.99,3.05 -5.99,4.57 0.04,0.08 0.08,0.16 0.12,0.24 5.08,-1.6 10.16,-3.22 15.24,-4.83 z m 95.42,-0.32 c -0.01,0.11 -0.02,0.22 -0.03,0.33 5.08,1.61 10.15,3.23 15.23,4.84 -1.88,-1.76 -3.86,-3.3 -5.87,-4.8 -0.31,-0.23 -0.77,-0.35 -1.16,-0.35 -2.72,-0.03 -5.44,-0.02 -8.17,-0.02 z"
   id="path1687"
   style="fill:url(#SVGID_14_)" />
	</g>
</g><g
     id="g1716"
     transform="translate(-53.118616,-574.84068)">
	<g
   id="eNt9aD_20_">
		<g
   id="g1713">
			<radialGradient
   id="SVGID_15_"
   cx="158.1167"
   cy="679.86029"
   r="86.843002"
   gradientUnits="userSpaceOnUse">
				<stop
   offset="0"
   style="stop-color:#FFEF26"
   id="stop1692" />
				<stop
   offset="0.0245"
   style="stop-color:#FFE73E"
   id="stop1694" />
				<stop
   offset="0.0855"
   style="stop-color:#F9D55D"
   id="stop1696" />
				<stop
   offset="0.1478"
   style="stop-color:#F2C86D"
   id="stop1698" />
				<stop
   offset="0.2118"
   style="stop-color:#EFC074"
   id="stop1700" />
				<stop
   offset="0.28"
   style="stop-color:#EDBD76"
   id="stop1702" />
				<stop
   offset="0.67"
   style="stop-color:#DD938A"
   id="stop1704" />
				<stop
   offset="0.89"
   style="stop-color:#D0698D"
   id="stop1706" />
				<stop
   offset="1"
   style="stop-color:#C12485"
   id="stop1708" />
			</radialGradient>
			<path
   class="st16"
   d="m 158.22,613.19 c 18.44,0 36.88,-0.02 55.32,0.04 1.01,0 2.19,0.4 2.99,1.01 14.43,10.95 28.82,21.96 43.22,32.95 1.95,1.49 1.95,1.49 0.25,3.11 -33.47,31.8 -66.96,63.6 -100.4,95.43 -1.15,1.1 -1.79,1.07 -2.93,-0.02 -33.52,-31.91 -67.08,-63.77 -100.64,-95.65 -1.41,-1.34 -1.4,-1.42 0.13,-2.6 14.44,-11.03 28.88,-22.05 43.3,-33.11 1.11,-0.85 2.2,-1.21 3.6,-1.21 18.39,0.07 36.78,0.05 55.16,0.05 z M 146.7,718.16 c 0.11,0.01 0.22,0.02 0.34,0.03 3.43,-22.85 6.87,-45.7 10.32,-68.67 -13.56,0 -26.93,0 -40.49,0 9.99,22.99 19.91,45.82 29.83,68.64 z m 12.22,-68.66 c 3.45,22.97 6.89,45.82 10.32,68.67 0.11,0.01 0.22,0.02 0.32,0.03 9.93,-22.86 19.87,-45.72 29.85,-68.7 -13.57,0 -26.91,0 -40.49,0 z m -73.67,-0.08 c 19.89,22.68 39.48,45 59.06,67.33 0.12,-0.37 0.05,-0.61 -0.05,-0.83 -9.46,-21.78 -18.92,-43.55 -28.35,-65.34 -0.41,-0.95 -0.96,-1.18 -1.92,-1.17 -9.03,0.03 -18.07,0.02 -27.1,0.02 -0.4,-0.01 -0.8,-0.01 -1.64,-0.01 z m 145.7,0.07 c -0.59,-0.04 -0.83,-0.07 -1.07,-0.07 -9.3,0 -18.59,0.02 -27.89,-0.04 -1.06,-0.01 -1.34,0.57 -1.66,1.31 -9.39,21.63 -18.79,43.26 -28.19,64.89 -0.14,0.33 -0.23,0.69 -0.34,1.03 0.07,0.03 0.14,0.05 0.2,0.08 19.58,-22.31 39.16,-44.64 58.95,-67.2 z m -72.93,94.73 c 0.25,-0.24 0.36,-0.3 0.39,-0.38 3.2,-7.36 6.41,-14.71 9.58,-22.09 0.21,-0.5 0.28,-1.13 0.2,-1.68 -0.52,-3.66 -1.1,-7.31 -1.65,-10.96 -2.28,-15.19 -4.56,-30.39 -6.84,-45.58 -0.46,-3.05 -0.93,-6.09 -1.39,-9.14 -0.35,0.26 -0.43,0.53 -0.47,0.81 -3.25,21.56 -6.49,43.13 -9.72,64.7 -0.08,0.55 -0.1,1.2 0.11,1.69 3.21,7.5 6.48,15 9.79,22.63 z M 90.68,657.63 c -0.07,0.04 -0.15,0.08 -0.22,0.12 0.13,0.21 0.25,0.43 0.39,0.64 11.22,17.26 22.45,34.51 33.64,51.8 2.98,4.61 5.95,9.17 10.18,12.83 4.19,3.62 8.08,7.59 12.1,11.41 2.97,2.82 5.95,5.64 9.27,8.79 -0.24,-0.68 -0.31,-0.92 -0.4,-1.15 -2.87,-6.63 -5.74,-13.27 -8.64,-19.89 -0.27,-0.61 -0.72,-1.16 -1.17,-1.67 -10.85,-12.4 -21.72,-24.78 -32.58,-37.17 -7.54,-8.57 -15.06,-17.14 -22.57,-25.71 z m 69.69,85.02 c 0.06,0.07 0.12,0.13 0.18,0.2 0.24,-0.21 0.48,-0.41 0.71,-0.62 7.93,-7.53 15.87,-15.04 23.77,-22.6 1.02,-0.97 1.94,-2.09 2.71,-3.27 9.49,-14.55 18.94,-29.12 28.4,-43.68 3.23,-4.98 6.47,-9.96 9.71,-14.93 -0.12,-0.11 -0.24,-0.22 -0.36,-0.33 -0.14,0.27 -0.24,0.58 -0.44,0.81 -18.28,20.85 -36.56,41.69 -54.84,62.54 -0.28,0.32 -0.58,0.64 -0.74,1.02 -3.04,6.95 -6.07,13.91 -9.1,20.86 z m 71.02,-95.29 c -0.2,-0.85 -0.31,-1.36 -0.44,-1.86 -1.91,-7.24 -3.85,-14.47 -5.72,-21.73 -0.27,-1.06 -0.75,-1.58 -1.79,-1.9 -5.89,-1.82 -11.76,-3.72 -17.65,-5.57 -1.7,-0.54 -3.58,-1.68 -5.1,-1.33 -1.53,0.34 -2.73,2.17 -4.05,3.38 -2.08,1.91 -4.13,3.85 -6.31,5.88 13.72,7.73 27.22,15.33 41.06,23.13 z m -146.55,0.03 c 13.87,-7.82 27.42,-15.45 41.1,-23.16 -3.36,-3.13 -6.51,-6.1 -9.71,-9 -0.33,-0.3 -1.09,-0.41 -1.54,-0.27 -7.4,2.32 -14.78,4.67 -22.15,7.09 -0.56,0.18 -1.18,0.87 -1.34,1.45 -1.34,4.77 -2.58,9.57 -3.84,14.37 -0.81,3.04 -1.62,6.09 -2.52,9.52 z m 106.63,65.74 c 0.08,0.09 0.16,0.18 0.24,0.27 4.2,-4.06 8.74,-7.82 12.54,-12.23 14.4,-16.67 28.56,-33.54 42.81,-50.33 0.32,-0.38 0.6,-0.8 1.05,-1.41 -4.75,0 -9.23,0.04 -13.7,-0.03 -1.14,-0.02 -1.79,0.34 -2.41,1.3 -7.01,10.87 -14.08,21.7 -21.13,32.55 -6.47,9.95 -12.93,19.91 -19.4,29.88 z M 68.12,649.42 c 0.51,0.65 0.82,1.06 1.14,1.45 9.36,11.04 18.67,22.12 28.09,33.11 7.39,8.61 14.23,17.72 22.84,25.23 1.52,1.33 2.95,2.76 4.41,4.15 -0.07,-0.59 -0.33,-1.03 -0.61,-1.45 -5.72,-8.81 -11.45,-17.62 -17.17,-26.43 -7.54,-11.6 -15.06,-23.21 -22.64,-34.79 -0.37,-0.56 -1.15,-1.19 -1.76,-1.2 -4.62,-0.12 -9.27,-0.07 -14.3,-0.07 z m 119.66,-24.8 c -9.77,-3.3 -19.27,-6.52 -28.89,-9.77 0,10.84 0,21.51 0,32.45 9.68,-7.6 19.17,-15.05 28.89,-22.68 z m -30.37,-9.78 c -9.7,3.28 -19.19,6.49 -28.92,9.78 9.76,7.66 19.24,15.1 28.92,22.71 0,-10.98 0,-21.62 0,-32.49 z m -40.5,33.14 c 13.09,0 25.93,0 39.15,0 -9.72,-7.63 -19.15,-15.04 -28.72,-22.55 -3.52,7.58 -6.94,14.98 -10.43,22.55 z m 72.04,-22.56 c -9.61,7.55 -19.03,14.95 -28.74,22.58 13.28,0 26.12,0 39.16,0 -3.48,-7.56 -6.9,-14.96 -10.42,-22.58 z m -63.36,0.57 c -13.15,7.41 -25.89,14.59 -38.63,21.77 9.29,0.32 18.42,0.34 27.55,0.28 0.45,0 1.09,-0.54 1.32,-1 1.14,-2.26 2.17,-4.57 3.23,-6.87 2.11,-4.58 4.21,-9.16 6.53,-14.18 z m 103.6,22.1 c 0.03,-0.12 0.05,-0.24 0.08,-0.37 -12.73,-7.17 -25.46,-14.34 -38.19,-21.51 3.02,7.19 6.21,14.13 9.49,21.04 0.22,0.45 1.15,0.8 1.75,0.8 7.76,0.05 15.52,0.03 23.29,0.03 1.19,0.01 2.39,0.01 3.58,0.01 z m -127.54,43.47 c 0.07,-0.06 0.13,-0.13 0.2,-0.19 C 90.2,677.63 78.56,663.9 66.9,650.17 c -0.28,-0.33 -0.75,-0.71 -1.13,-0.72 -2.67,-0.06 -5.33,-0.03 -8.47,-0.03 15.01,14.27 29.68,28.2 44.35,42.14 z m 157.33,-42.14 c -2.72,0 -4.97,0.07 -7.21,-0.03 -1.29,-0.06 -2.12,0.39 -2.95,1.37 -11.18,13.24 -22.4,26.45 -33.6,39.66 -0.28,0.32 -0.52,0.67 -0.78,1.01 0.06,0.05 0.12,0.09 0.18,0.14 14.67,-13.94 29.35,-27.89 44.36,-42.15 z m -31.77,-24.58 c -0.1,0.05 -0.21,0.11 -0.31,0.16 2.03,7.67 4.06,15.34 6.08,23 5.02,0 9.89,0 15.12,0 -7.1,-7.86 -14,-15.51 -20.89,-23.16 z m -137.83,0.14 c -0.1,-0.05 -0.21,-0.09 -0.31,-0.14 -6.9,7.65 -13.8,15.3 -20.9,23.17 5.24,0 10.12,0 15.12,0 2.03,-7.67 4.06,-15.35 6.09,-23.03 z m 73.79,-10.36 c 0.22,0.2 0.31,0.34 0.43,0.39 8.18,2.77 16.35,5.56 24.55,8.26 0.48,0.16 1.32,-0.15 1.74,-0.53 2.44,-2.17 4.81,-4.43 7.2,-6.66 0.44,-0.41 0.87,-0.82 1.55,-1.46 -12.03,0 -23.68,0 -35.47,0 z M 118,614.63 c -0.12,0.15 -0.24,0.31 -0.37,0.46 0.4,0.23 0.87,0.39 1.2,0.7 2.45,2.25 4.92,4.49 7.3,6.81 0.79,0.77 1.45,0.9 2.49,0.54 7.83,-2.7 15.69,-5.33 23.53,-7.99 0.3,-0.1 0.57,-0.29 1.03,-0.53 -11.89,0.01 -23.53,0.01 -35.18,0.01 z m 140.08,33.46 c 0.05,-0.11 0.11,-0.22 0.16,-0.33 -8.78,-6.7 -17.55,-13.41 -26.33,-20.11 5.73,6.75 11.63,13.3 17.56,19.82 0.31,0.34 0.89,0.59 1.35,0.6 2.41,0.05 4.83,0.02 7.26,0.02 z M 84.54,627.85 c -0.05,-0.07 -0.1,-0.15 -0.16,-0.22 -8.79,6.72 -17.57,13.43 -26.36,20.15 2.61,0.31 5.04,0.34 7.46,0.28 0.46,-0.01 1.03,-0.27 1.34,-0.61 5.93,-6.52 11.82,-13.06 17.72,-19.6 z m 25.91,-12.99 c -0.02,-0.11 -0.04,-0.21 -0.06,-0.32 -2.82,0 -5.64,-0.01 -8.46,0.01 -0.29,0 -0.62,0.15 -0.85,0.33 -2.01,1.51 -3.99,3.05 -5.99,4.57 0.04,0.08 0.08,0.16 0.12,0.24 5.08,-1.6 10.16,-3.22 15.24,-4.83 z m 95.42,-0.32 c -0.01,0.11 -0.02,0.22 -0.03,0.33 5.08,1.61 10.15,3.23 15.23,4.84 -1.88,-1.76 -3.86,-3.3 -5.87,-4.8 -0.31,-0.23 -0.77,-0.35 -1.16,-0.35 -2.72,-0.03 -5.44,-0.02 -8.17,-0.02 z"
   id="path1711"
   style="fill:url(#SVGID_15_)" />
		</g>
	</g>
</g><g
     id="g1742"
     transform="translate(-53.118616,-574.84068)">
	<g
   id="eNt9aD_19_">
		<g
   id="g1739">
			<radialGradient
   id="SVGID_16_"
   cx="158.1167"
   cy="679.86029"
   r="86.843002"
   gradientUnits="userSpaceOnUse">
				<stop
   offset="0"
   style="stop-color:#FFEF26"
   id="stop1718" />
				<stop
   offset="0.0245"
   style="stop-color:#FFE73E"
   id="stop1720" />
				<stop
   offset="0.0855"
   style="stop-color:#F9D55D"
   id="stop1722" />
				<stop
   offset="0.1478"
   style="stop-color:#F2C86D"
   id="stop1724" />
				<stop
   offset="0.2118"
   style="stop-color:#EFC074"
   id="stop1726" />
				<stop
   offset="0.28"
   style="stop-color:#EDBD76"
   id="stop1728" />
				<stop
   offset="0.67"
   style="stop-color:#DD938A"
   id="stop1730" />
				<stop
   offset="0.89"
   style="stop-color:#D0698D"
   id="stop1732" />
				<stop
   offset="1"
   style="stop-color:#C12485"
   id="stop1734" />
			</radialGradient>
			<path
   class="st17"
   d="m 158.22,613.19 c 18.44,0 36.88,-0.02 55.32,0.04 1.01,0 2.19,0.4 2.99,1.01 14.43,10.95 28.82,21.96 43.22,32.95 1.95,1.49 1.95,1.49 0.25,3.11 -33.47,31.8 -66.96,63.6 -100.4,95.43 -1.15,1.1 -1.79,1.07 -2.93,-0.02 -33.52,-31.91 -67.08,-63.77 -100.64,-95.65 -1.41,-1.34 -1.4,-1.42 0.13,-2.6 14.44,-11.03 28.88,-22.05 43.3,-33.11 1.11,-0.85 2.2,-1.21 3.6,-1.21 18.39,0.07 36.78,0.05 55.16,0.05 z M 146.7,718.16 c 0.11,0.01 0.22,0.02 0.34,0.03 3.43,-22.85 6.87,-45.7 10.32,-68.67 -13.56,0 -26.93,0 -40.49,0 9.99,22.99 19.91,45.82 29.83,68.64 z m 12.22,-68.66 c 3.45,22.97 6.89,45.82 10.32,68.67 0.11,0.01 0.22,0.02 0.32,0.03 9.93,-22.86 19.87,-45.72 29.85,-68.7 -13.57,0 -26.91,0 -40.49,0 z m -73.67,-0.08 c 19.89,22.68 39.48,45 59.06,67.33 0.12,-0.37 0.05,-0.61 -0.05,-0.83 -9.46,-21.78 -18.92,-43.55 -28.35,-65.34 -0.41,-0.95 -0.96,-1.18 -1.92,-1.17 -9.03,0.03 -18.07,0.02 -27.1,0.02 -0.4,-0.01 -0.8,-0.01 -1.64,-0.01 z m 145.7,0.07 c -0.59,-0.04 -0.83,-0.07 -1.07,-0.07 -9.3,0 -18.59,0.02 -27.89,-0.04 -1.06,-0.01 -1.34,0.57 -1.66,1.31 -9.39,21.63 -18.79,43.26 -28.19,64.89 -0.14,0.33 -0.23,0.69 -0.34,1.03 0.07,0.03 0.14,0.05 0.2,0.08 19.58,-22.31 39.16,-44.64 58.95,-67.2 z m -72.93,94.73 c 0.25,-0.24 0.36,-0.3 0.39,-0.38 3.2,-7.36 6.41,-14.71 9.58,-22.09 0.21,-0.5 0.28,-1.13 0.2,-1.68 -0.52,-3.66 -1.1,-7.31 -1.65,-10.96 -2.28,-15.19 -4.56,-30.39 -6.84,-45.58 -0.46,-3.05 -0.93,-6.09 -1.39,-9.14 -0.35,0.26 -0.43,0.53 -0.47,0.81 -3.25,21.56 -6.49,43.13 -9.72,64.7 -0.08,0.55 -0.1,1.2 0.11,1.69 3.21,7.5 6.48,15 9.79,22.63 z M 90.68,657.63 c -0.07,0.04 -0.15,0.08 -0.22,0.12 0.13,0.21 0.25,0.43 0.39,0.64 11.22,17.26 22.45,34.51 33.64,51.8 2.98,4.61 5.95,9.17 10.18,12.83 4.19,3.62 8.08,7.59 12.1,11.41 2.97,2.82 5.95,5.64 9.27,8.79 -0.24,-0.68 -0.31,-0.92 -0.4,-1.15 -2.87,-6.63 -5.74,-13.27 -8.64,-19.89 -0.27,-0.61 -0.72,-1.16 -1.17,-1.67 -10.85,-12.4 -21.72,-24.78 -32.58,-37.17 -7.54,-8.57 -15.06,-17.14 -22.57,-25.71 z m 69.69,85.02 c 0.06,0.07 0.12,0.13 0.18,0.2 0.24,-0.21 0.48,-0.41 0.71,-0.62 7.93,-7.53 15.87,-15.04 23.77,-22.6 1.02,-0.97 1.94,-2.09 2.71,-3.27 9.49,-14.55 18.94,-29.12 28.4,-43.68 3.23,-4.98 6.47,-9.96 9.71,-14.93 -0.12,-0.11 -0.24,-0.22 -0.36,-0.33 -0.14,0.27 -0.24,0.58 -0.44,0.81 -18.28,20.85 -36.56,41.69 -54.84,62.54 -0.28,0.32 -0.58,0.64 -0.74,1.02 -3.04,6.95 -6.07,13.91 -9.1,20.86 z m 71.02,-95.29 c -0.2,-0.85 -0.31,-1.36 -0.44,-1.86 -1.91,-7.24 -3.85,-14.47 -5.72,-21.73 -0.27,-1.06 -0.75,-1.58 -1.79,-1.9 -5.89,-1.82 -11.76,-3.72 -17.65,-5.57 -1.7,-0.54 -3.58,-1.68 -5.1,-1.33 -1.53,0.34 -2.73,2.17 -4.05,3.38 -2.08,1.91 -4.13,3.85 -6.31,5.88 13.72,7.73 27.22,15.33 41.06,23.13 z m -146.55,0.03 c 13.87,-7.82 27.42,-15.45 41.1,-23.16 -3.36,-3.13 -6.51,-6.1 -9.71,-9 -0.33,-0.3 -1.09,-0.41 -1.54,-0.27 -7.4,2.32 -14.78,4.67 -22.15,7.09 -0.56,0.18 -1.18,0.87 -1.34,1.45 -1.34,4.77 -2.58,9.57 -3.84,14.37 -0.81,3.04 -1.62,6.09 -2.52,9.52 z m 106.63,65.74 c 0.08,0.09 0.16,0.18 0.24,0.27 4.2,-4.06 8.74,-7.82 12.54,-12.23 14.4,-16.67 28.56,-33.54 42.81,-50.33 0.32,-0.38 0.6,-0.8 1.05,-1.41 -4.75,0 -9.23,0.04 -13.7,-0.03 -1.14,-0.02 -1.79,0.34 -2.41,1.3 -7.01,10.87 -14.08,21.7 -21.13,32.55 -6.47,9.95 -12.93,19.91 -19.4,29.88 z M 68.12,649.42 c 0.51,0.65 0.82,1.06 1.14,1.45 9.36,11.04 18.67,22.12 28.09,33.11 7.39,8.61 14.23,17.72 22.84,25.23 1.52,1.33 2.95,2.76 4.41,4.15 -0.07,-0.59 -0.33,-1.03 -0.61,-1.45 -5.72,-8.81 -11.45,-17.62 -17.17,-26.43 -7.54,-11.6 -15.06,-23.21 -22.64,-34.79 -0.37,-0.56 -1.15,-1.19 -1.76,-1.2 -4.62,-0.12 -9.27,-0.07 -14.3,-0.07 z m 119.66,-24.8 c -9.77,-3.3 -19.27,-6.52 -28.89,-9.77 0,10.84 0,21.51 0,32.45 9.68,-7.6 19.17,-15.05 28.89,-22.68 z m -30.37,-9.78 c -9.7,3.28 -19.19,6.49 -28.92,9.78 9.76,7.66 19.24,15.1 28.92,22.71 0,-10.98 0,-21.62 0,-32.49 z m -40.5,33.14 c 13.09,0 25.93,0 39.15,0 -9.72,-7.63 -19.15,-15.04 -28.72,-22.55 -3.52,7.58 -6.94,14.98 -10.43,22.55 z m 72.04,-22.56 c -9.61,7.55 -19.03,14.95 -28.74,22.58 13.28,0 26.12,0 39.16,0 -3.48,-7.56 -6.9,-14.96 -10.42,-22.58 z m -63.36,0.57 c -13.15,7.41 -25.89,14.59 -38.63,21.77 9.29,0.32 18.42,0.34 27.55,0.28 0.45,0 1.09,-0.54 1.32,-1 1.14,-2.26 2.17,-4.57 3.23,-6.87 2.11,-4.58 4.21,-9.16 6.53,-14.18 z m 103.6,22.1 c 0.03,-0.12 0.05,-0.24 0.08,-0.37 -12.73,-7.17 -25.46,-14.34 -38.19,-21.51 3.02,7.19 6.21,14.13 9.49,21.04 0.22,0.45 1.15,0.8 1.75,0.8 7.76,0.05 15.52,0.03 23.29,0.03 1.19,0.01 2.39,0.01 3.58,0.01 z m -127.54,43.47 c 0.07,-0.06 0.13,-0.13 0.2,-0.19 C 90.2,677.63 78.56,663.9 66.9,650.17 c -0.28,-0.33 -0.75,-0.71 -1.13,-0.72 -2.67,-0.06 -5.33,-0.03 -8.47,-0.03 15.01,14.27 29.68,28.2 44.35,42.14 z m 157.33,-42.14 c -2.72,0 -4.97,0.07 -7.21,-0.03 -1.29,-0.06 -2.12,0.39 -2.95,1.37 -11.18,13.24 -22.4,26.45 -33.6,39.66 -0.28,0.32 -0.52,0.67 -0.78,1.01 0.06,0.05 0.12,0.09 0.18,0.14 14.67,-13.94 29.35,-27.89 44.36,-42.15 z m -31.77,-24.58 c -0.1,0.05 -0.21,0.11 -0.31,0.16 2.03,7.67 4.06,15.34 6.08,23 5.02,0 9.89,0 15.12,0 -7.1,-7.86 -14,-15.51 -20.89,-23.16 z m -137.83,0.14 c -0.1,-0.05 -0.21,-0.09 -0.31,-0.14 -6.9,7.65 -13.8,15.3 -20.9,23.17 5.24,0 10.12,0 15.12,0 2.03,-7.67 4.06,-15.35 6.09,-23.03 z m 73.79,-10.36 c 0.22,0.2 0.31,0.34 0.43,0.39 8.18,2.77 16.35,5.56 24.55,8.26 0.48,0.16 1.32,-0.15 1.74,-0.53 2.44,-2.17 4.81,-4.43 7.2,-6.66 0.44,-0.41 0.87,-0.82 1.55,-1.46 -12.03,0 -23.68,0 -35.47,0 z M 118,614.63 c -0.12,0.15 -0.24,0.31 -0.37,0.46 0.4,0.23 0.87,0.39 1.2,0.7 2.45,2.25 4.92,4.49 7.3,6.81 0.79,0.77 1.45,0.9 2.49,0.54 7.83,-2.7 15.69,-5.33 23.53,-7.99 0.3,-0.1 0.57,-0.29 1.03,-0.53 -11.89,0.01 -23.53,0.01 -35.18,0.01 z m 140.08,33.46 c 0.05,-0.11 0.11,-0.22 0.16,-0.33 -8.78,-6.7 -17.55,-13.41 -26.33,-20.11 5.73,6.75 11.63,13.3 17.56,19.82 0.31,0.34 0.89,0.59 1.35,0.6 2.41,0.05 4.83,0.02 7.26,0.02 z M 84.54,627.85 c -0.05,-0.07 -0.1,-0.15 -0.16,-0.22 -8.79,6.72 -17.57,13.43 -26.36,20.15 2.61,0.31 5.04,0.34 7.46,0.28 0.46,-0.01 1.03,-0.27 1.34,-0.61 5.93,-6.52 11.82,-13.06 17.72,-19.6 z m 25.91,-12.99 c -0.02,-0.11 -0.04,-0.21 -0.06,-0.32 -2.82,0 -5.64,-0.01 -8.46,0.01 -0.29,0 -0.62,0.15 -0.85,0.33 -2.01,1.51 -3.99,3.05 -5.99,4.57 0.04,0.08 0.08,0.16 0.12,0.24 5.08,-1.6 10.16,-3.22 15.24,-4.83 z m 95.42,-0.32 c -0.01,0.11 -0.02,0.22 -0.03,0.33 5.08,1.61 10.15,3.23 15.23,4.84 -1.88,-1.76 -3.86,-3.3 -5.87,-4.8 -0.31,-0.23 -0.77,-0.35 -1.16,-0.35 -2.72,-0.03 -5.44,-0.02 -8.17,-0.02 z"
   id="path1737"
   style="fill:url(#SVGID_16_)" />
		</g>
	</g>
</g></g>






</svg>
