<?xml version="1.0" encoding="utf-8"?>
<!-- Generator: Adobe Illustrator 25.0.1, SVG Export Plug-In . SVG Version: 6.00 Build 0)  -->
<svg version="1.1" id="Ebene_1" xmlns="http://www.w3.org/2000/svg" xmlns:xlink="http://www.w3.org/1999/xlink" x="0px" y="0px"
	 viewBox="0 0 5669.29 1417.32" style="enable-background:new 0 0 5669.29 1417.32;" xml:space="preserve">
<style type="text/css">
	.st0{clip-path:url(#SVGID_2_);fill:url(#SVGID_3_);}
	.st1{fill:none;stroke:#FFFFFF;stroke-width:11.3386;stroke-miterlimit:10;}
	.st2{fill:#B2B2B2;}
	.st3{fill:#FFFFFF;}
	.st4{clip-path:url(#SVGID_5_);fill:url(#SVGID_6_);}
	.st5{fill:none;stroke:#000000;stroke-width:0.5669;stroke-miterlimit:22.9256;}
</style>
<g>
	<defs>
		<polygon id="SVGID_1_" points="5669,4.02 5659.4,1417.32 0,1417.32 0,0 580.52,679.62 1506.62,679.62 1833.3,352.09 
			2160.74,804.42 3140.35,133.37 4286.64,263.11 		"/>
	</defs>
	<clipPath id="SVGID_2_">
		<use xlink:href="#SVGID_1_"  style="overflow:visible;"/>
	</clipPath>
	<linearGradient id="SVGID_3_" gradientUnits="userSpaceOnUse" x1="1017.8891" y1="272.5241" x2="13791.999" y2="3339.3743">
		<stop  offset="0" style="stop-color:#A2195B"/>
		<stop  offset="0.1" style="stop-color:#A2195B"/>
		<stop  offset="0.41" style="stop-color:#F39200"/>
		<stop  offset="0.4644" style="stop-color:#F19000"/>
		<stop  offset="0.5151" style="stop-color:#E88A1C"/>
		<stop  offset="0.5645" style="stop-color:#DB8231"/>
		<stop  offset="0.613" style="stop-color:#C87646"/>
		<stop  offset="0.6609" style="stop-color:#AE6759"/>
		<stop  offset="0.7083" style="stop-color:#8E566A"/>
		<stop  offset="0.7554" style="stop-color:#664377"/>
		<stop  offset="0.801" style="stop-color:#383281"/>
		<stop  offset="0.81" style="stop-color:#2D2E83"/>
		<stop  offset="1" style="stop-color:#2D2E83"/>
	</linearGradient>
	<rect class="st0" width="5669" height="1417.32"/>
</g>
<polyline class="st1" points="569.59,663.49 1018.32,1178.26 1338.43,833.07 "/>
<path class="st2" d="M1018.97,420.24c75.89,0,151.77-0.06,227.66,0.18c4.14,0.02,9,1.66,12.3,4.17
	c59.39,45.05,118.61,90.35,177.87,135.6c8,6.12,8.03,6.14,1.01,12.8c-137.77,130.88-275.56,261.74-413.2,392.74
	c-4.74,4.51-7.35,4.42-12.06-0.07c-137.96-131.3-276.07-262.44-414.16-393.62c-5.79-5.5-5.77-5.86,0.55-10.68
	c59.42-45.4,118.86-90.75,178.2-136.26c4.57-3.5,9.06-4.98,14.83-4.97C867.63,420.3,943.3,420.24,1018.97,420.24 M971.54,852.23
	c0.46,0.04,0.93,0.07,1.38,0.11c14.13-94.04,28.27-188.07,42.47-282.59H848.78C889.89,664.35,930.72,758.29,971.54,852.23z
	 M1021.83,569.65c14.21,94.52,28.34,188.55,42.48,282.59l1.33,0.12c40.88-94.07,81.75-188.15,122.86-282.71H1021.83z M718.68,569.31
	c81.87,93.33,162.47,185.21,243.05,277.08c0.49-1.51,0.19-2.49-0.22-3.43c-38.91-89.61-77.87-179.23-116.68-268.9
	c-1.69-3.9-3.95-4.84-7.91-4.82c-37.17,0.13-74.34,0.08-111.52,0.07H718.68z M1318.26,569.64c-2.41-0.17-3.41-0.29-4.41-0.29
	c-38.26-0.02-76.52,0.06-114.78-0.15c-4.38-0.03-5.5,2.34-6.83,5.41c-38.67,89.02-77.35,178.03-116.01,267.05
	c-0.6,1.36-0.95,2.83-1.42,4.24c0.28,0.11,0.56,0.21,0.83,0.32C1156.25,754.34,1236.84,662.46,1318.26,569.64z M1018.13,959.46
	c1.04-1,1.46-1.23,1.61-1.58c13.18-30.27,26.37-60.56,39.41-90.89c0.88-2.05,1.14-4.67,0.83-6.9c-2.13-15.06-4.52-30.08-6.78-45.12
	c-9.4-62.53-18.77-125.07-28.16-187.6c-1.89-12.54-3.81-25.06-5.72-37.6c-1.45,1.06-1.78,2.2-1.95,3.35
	c-13.37,88.74-26.73,177.49-40.01,266.25c-0.34,2.25-0.41,4.92,0.46,6.94C991.06,897.22,1004.49,928.05,1018.13,959.46z
	 M740.99,603.11l-0.9,0.47c0.53,0.89,1.03,1.78,1.59,2.65c46.16,71.04,92.4,142.04,138.43,213.16
	c12.28,18.98,24.48,37.74,41.91,52.79c17.25,14.91,33.26,31.24,49.81,46.95c12.24,11.61,24.48,23.23,38.13,36.2
	c-0.98-2.82-1.26-3.79-1.66-4.72c-11.83-27.29-23.62-54.6-35.57-81.83c-1.1-2.52-2.98-4.78-4.82-6.88
	c-44.66-51-89.38-101.98-134.08-152.96C802.88,673.66,771.93,638.38,740.99,603.11z M1027.82,953.01c0.26,0.29,0.51,0.56,0.76,0.83
	c0.98-0.85,1.98-1.67,2.92-2.56c32.64-30.98,65.31-61.9,97.82-93.01c4.19-4.01,7.99-8.61,11.15-13.45
	c39.05-59.87,77.94-119.84,116.88-179.78c13.31-20.49,26.63-40.97,39.95-61.45c-0.5-0.45-1-0.91-1.49-1.36
	c-0.59,1.11-0.98,2.39-1.8,3.32c-75.21,85.81-150.45,171.58-225.67,257.38c-1.14,1.3-2.37,2.64-3.05,4.19
	C1052.74,895.74,1040.3,924.38,1027.82,953.01z M1320.07,560.83c-0.82-3.5-1.26-5.59-1.81-7.66c-7.87-29.79-15.86-59.56-23.52-89.41
	c-1.13-4.35-3.11-6.5-7.36-7.81c-24.25-7.49-48.42-15.3-72.63-22.93c-7.02-2.21-14.72-6.9-21-5.48
	c-6.27,1.41-11.23,8.93-16.64,13.92c-8.54,7.86-16.99,15.82-25.97,24.21C1207.57,497.46,1263.14,528.77,1320.07,560.83z
	 M716.96,560.95c57.09-32.17,112.83-63.57,169.14-95.3c-13.81-12.87-26.77-25.08-39.98-37.03c-1.37-1.24-4.47-1.69-6.32-1.11
	c-30.44,9.53-60.84,19.22-91.14,29.19c-2.29,0.75-4.86,3.59-5.52,5.96c-5.51,19.64-10.6,39.41-15.82,59.13
	C724.01,534.32,720.69,546.85,716.96,560.95z M1155.79,831.5c0.33,0.38,0.65,0.74,0.97,1.1c17.3-16.7,35.98-32.2,51.63-50.31
	c59.25-68.59,117.54-138.03,176.17-207.15c1.32-1.56,2.45-3.28,4.32-5.81c-19.56,0-37.97,0.17-56.38-0.12
	c-4.7-0.07-7.36,1.4-9.92,5.35c-28.86,44.73-57.94,89.32-86.94,133.96C1209.01,749.5,1182.4,790.51,1155.79,831.5z M648.17,569.33
	c2.12,2.68,3.36,4.36,4.71,5.96c38.52,45.44,76.83,91.05,115.62,136.26c30.4,35.43,58.56,72.92,94.01,103.82
	c6.26,5.46,12.12,11.37,18.17,17.08c-0.3-2.44-1.36-4.23-2.5-5.99c-23.55-36.26-47.11-72.51-70.67-108.78
	c-31.02-47.75-61.98-95.52-93.15-143.16c-1.52-2.31-4.75-4.9-7.23-4.95C687.99,569.13,668.86,569.33,648.17,569.33z M1140.62,467.25
	c-40.19-13.58-79.32-26.81-118.9-40.19V560.6C1061.57,529.33,1100.59,498.68,1140.62,467.25z M1015.64,427
	c-39.93,13.51-78.98,26.72-119.01,40.25c40.14,31.54,79.16,62.17,119.01,93.46V427z M848.94,563.39h161.1
	c-39.99-31.39-78.83-61.89-118.22-92.81C877.4,501.8,863.33,532.25,848.94,563.39z M1145.42,470.55
	c-39.56,31.09-78.33,61.55-118.26,92.91h161.16C1173.96,532.37,1159.9,501.9,1145.42,470.55z M884.66,472.9
	c-54.12,30.5-106.55,60.05-158.98,89.59c38.22,1.33,75.81,1.4,113.4,1.16c1.86-0.01,4.5-2.24,5.43-4.09
	c4.68-9.3,8.94-18.82,13.3-28.29C866.49,512.43,875.15,493.57,884.66,472.9z M1311.04,563.85c0.1-0.49,0.2-1.01,0.31-1.5
	c-52.39-29.51-104.78-59.01-157.17-88.5c12.45,29.58,25.57,58.16,39.07,86.56c0.89,1.87,4.72,3.28,7.2,3.3
	c31.94,0.22,63.89,0.14,95.83,0.14H1311.04z M786.17,742.76c0.27-0.26,0.54-0.51,0.82-0.76c-47.93-56.53-95.84-113.07-143.83-169.54
	c-1.17-1.37-3.07-2.93-4.66-2.97c-10.97-0.26-21.96-0.14-34.86-0.14C665.4,628.03,725.78,685.4,786.17,742.76z M1433.63,569.33
	c-11.19,0-20.45,0.29-29.68-0.12c-5.31-0.23-8.7,1.59-12.13,5.64c-45.99,54.5-92.17,108.84-138.29,163.23
	c-1.12,1.33-2.15,2.77-3.21,4.16c0.24,0.19,0.48,0.38,0.73,0.56C1311.44,685.41,1371.85,628.01,1433.63,569.33z M1302.86,468.19
	c-0.43,0.22-0.85,0.42-1.29,0.65c8.35,31.58,16.7,63.15,25.04,94.66h62.23C1359.63,531.11,1331.25,499.65,1302.86,468.19z
	 M735.67,468.73c-0.43-0.19-0.86-0.38-1.29-0.57c-28.4,31.48-56.78,62.96-86,95.35h62.24C718.96,531.94,727.32,500.34,735.67,468.73
	z M1039.34,426.1c0.89,0.82,1.26,1.41,1.78,1.59c33.66,11.42,67.3,22.87,101.05,34c1.98,0.65,5.43-0.63,7.17-2.17
	c10.05-8.95,19.8-18.23,29.64-27.4c1.81-1.69,3.59-3.39,6.4-6.02H1039.34z M853.45,426.14c-0.5,0.64-1.01,1.27-1.5,1.9
	c1.65,0.95,3.56,1.62,4.93,2.89c10.1,9.25,20.24,18.47,30.04,28.03c3.25,3.18,5.96,3.71,10.26,2.23
	c32.23-11.11,64.55-21.93,96.84-32.87c1.24-0.41,2.36-1.19,4.26-2.18H853.45z M1429.9,563.85c0.22-0.46,0.43-0.91,0.66-1.37
	c-36.13-27.58-72.25-55.17-108.36-82.76c23.59,27.77,47.86,54.73,72.25,81.57c1.26,1.39,3.65,2.41,5.55,2.45
	C1409.96,563.98,1419.93,563.85,1429.9,563.85z M715.75,480.54c-0.21-0.3-0.43-0.61-0.64-0.92l-108.48,82.94
	c10.75,1.27,20.72,1.41,30.69,1.15c1.89-0.04,4.25-1.09,5.51-2.48C667.22,534.41,691.47,507.47,715.75,480.54z M822.39,427.09
	c-0.09-0.44-0.16-0.86-0.25-1.29c-11.61,0-23.21-0.05-34.82,0.06c-1.19,0.02-2.55,0.63-3.52,1.37
	c-8.26,6.21-16.43,12.53-24.64,18.81c0.17,0.34,0.34,0.67,0.5,1.01C780.56,440.39,801.47,433.74,822.39,427.09z M1215.06,425.79
	c-0.03,0.45-0.07,0.89-0.1,1.35c20.89,6.63,41.79,13.27,62.68,19.91c-7.72-7.26-15.87-13.59-24.16-19.74
	c-1.27-0.94-3.16-1.44-4.78-1.45C1237.49,425.72,1226.27,425.79,1215.06,425.79z"/>
<path class="st3" d="M1325.57,679.62h-8.04l-66.5,63.18c-0.25-0.18-0.49-0.37-0.73-0.56c1.06-1.39,2.08-2.82,3.21-4.16l49.59-58.46
	h-7c-29.11,34.34-58.3,68.61-87.72,102.67c-15.65,18.11-34.33,33.61-51.63,50.31c-0.32-0.37-0.65-0.73-0.97-1.1
	c26.62-40.99,53.22-81.99,79.86-122.98l18.78-28.9h-6.55c-35.78,55.09-71.53,110.19-107.41,165.21c-3.16,4.85-6.96,9.45-11.15,13.45
	c-32.52,31.1-65.19,62.03-97.82,93.01c-0.93,0.89-1.94,1.71-2.92,2.56c-0.25-0.27-0.5-0.54-0.76-0.83
	c12.47-28.63,24.92-57.27,37.46-85.88c0.68-1.55,1.91-2.89,3.05-4.19l160.75-183.33h-7.29l-146.14,166.6
	c-0.27-0.1-0.55-0.21-0.83-0.32c0.47-1.41,0.82-2.88,1.42-4.24l70.38-162.04h-5.92l-75.07,172.74l-1.33-0.12l-25.95-172.63h-5.48
	l20.32,135.34c2.26,15.04,4.65,30.07,6.78,45.12c0.31,2.23,0.05,4.85-0.83,6.9c-13.04,30.34-26.23,60.62-39.41,90.89
	c-0.15,0.35-0.58,0.57-1.61,1.58c-13.63-31.41-27.06-62.24-40.32-93.16c-0.86-2.02-0.79-4.69-0.46-6.94
	c8.97-59.92,17.97-119.83,26.99-179.74h-5.46l-25.96,172.72c-0.46-0.04-0.92-0.07-1.38-0.11l-75.01-172.61h-5.93
	c23.63,54.45,47.28,108.9,70.93,163.34c0.41,0.94,0.7,1.93,0.22,3.43L815.44,679.62h-7.34l25.71,29.32
	c44.7,50.98,89.42,101.96,134.08,152.96c1.84,2.1,3.72,4.35,4.82,6.88c11.95,27.24,23.74,54.54,35.57,81.83
	c0.4,0.93,0.68,1.9,1.66,4.72c-13.65-12.97-25.89-24.59-38.13-36.2c-16.55-15.71-32.56-32.04-49.81-46.95
	c-17.43-15.05-29.63-33.81-41.91-52.79c-30.18-46.63-60.45-93.2-90.73-139.77h-6.59l24.71,38.05
	c23.56,36.27,47.12,72.52,70.67,108.78c1.14,1.76,2.2,3.55,2.5,5.99c-6.04-5.71-11.91-11.62-18.17-17.08
	c-35.44-30.9-63.61-68.39-94.01-103.82c-9.11-10.62-18.2-21.26-27.27-31.92h-7.13L786.99,742c-0.27,0.26-0.54,0.51-0.82,0.76
	l-66.47-63.14h-8.06c100.34,95.31,200.66,190.64,300.91,286.04c4.7,4.49,7.32,4.58,12.06,0.07
	C1124.88,870.31,1225.22,774.96,1325.57,679.62"/>
<g>
	<defs>
		<path id="SVGID_4_" d="M1399.99,563.74c-1.89-0.05-4.29-1.08-5.55-2.46c-24.4-26.83-48.66-53.79-72.25-81.56
			c36.12,27.59,72.24,55.17,108.36,82.75c-0.22,0.46-0.43,0.92-0.65,1.37c-5.26,0-10.52,0.04-15.79,0.04
			C1409.41,563.88,1404.7,563.85,1399.99,563.74z M606.63,562.56l108.48-82.93c0.22,0.31,0.42,0.61,0.64,0.92
			c-24.27,26.92-48.54,53.86-72.92,80.68c-1.27,1.39-3.63,2.44-5.52,2.49c-2.58,0.07-5.17,0.1-7.76,0.1
			C622.13,563.82,614.59,563.5,606.63,562.56z M1200.46,563.71c-2.48-0.03-6.31-1.44-7.2-3.3c-13.5-28.41-26.63-56.99-39.07-86.58
			c52.38,29.51,104.78,59,157.16,88.51c-0.1,0.49-0.21,1.01-0.31,1.5h-14.76c-13.51,0-27.03,0.02-40.54,0.02
			C1237.31,563.86,1218.88,563.83,1200.46,563.71z M725.69,562.5c52.42-29.55,104.85-59.09,158.97-89.6
			c-9.51,20.68-18.17,39.53-26.86,58.37c-4.36,9.46-8.62,18.98-13.3,28.29c-0.93,1.87-3.57,4.09-5.43,4.1
			c-10.4,0.06-20.81,0.11-31.23,0.11C780.63,563.76,753.32,563.45,725.69,562.5z M891.83,470.58
			c39.38,30.92,78.22,61.42,118.21,92.81h-161.1C863.33,532.25,877.4,501.79,891.83,470.58z M1145.42,470.56
			c14.48,31.35,28.54,61.81,42.9,92.9h-161.16C1067.09,532.09,1105.86,501.65,1145.42,470.56z M1301.59,468.83
			c0.43-0.22,0.85-0.43,1.29-0.65c28.38,31.46,56.76,62.93,85.97,95.32h-62.23C1318.28,531.98,1309.93,500.41,1301.59,468.83z
			 M734.38,468.16c0.43,0.19,0.86,0.38,1.29,0.57c-8.35,31.62-16.71,63.21-25.06,94.79h-62.24
			C677.6,531.12,705.99,499.64,734.38,468.16z M1151.14,465.67c8.99-8.38,17.43-16.35,25.97-24.21
			c5.42-4.98,10.37-12.51,16.66-13.92c6.27-1.41,13.97,3.28,20.99,5.49c24.22,7.63,48.38,15.44,72.63,22.93
			c4.26,1.32,6.24,3.46,7.36,7.81c7.67,29.85,15.66,59.62,23.52,89.41c0.55,2.08,0.98,4.15,1.81,7.66
			C1263.14,528.76,1207.56,497.46,1151.14,465.67z M727.33,521.79c5.22-19.72,10.3-39.48,15.82-59.12c0.65-2.37,3.22-5.22,5.51-5.96
			c30.3-9.97,60.7-19.66,91.14-29.19c1.85-0.58,4.96-0.12,6.33,1.11c13.2,11.95,26.15,24.15,39.98,37.03
			c-56.3,31.73-112.05,63.13-169.15,95.3C720.69,546.85,724.02,534.32,727.33,521.79z M1021.72,427.05
			c39.58,13.38,78.71,26.61,118.9,40.2c-40.03,31.42-79.06,62.07-118.9,93.35V427.05z M896.63,467.26
			c40.02-13.54,79.09-26.75,119.01-40.25v133.7C975.79,529.42,936.78,498.79,896.63,467.26z M886.91,458.96
			c-9.8-9.56-19.93-18.78-30.04-28.04c-1.37-1.25-3.27-1.93-4.93-2.87c0.5-0.64,1-1.27,1.5-1.91h144.83
			c-1.9,0.99-3.01,1.76-4.25,2.19c-32.29,10.93-64.62,21.75-96.85,32.85c-1.5,0.53-2.81,0.8-4.02,0.8
			C890.92,461.98,889.03,461.03,886.91,458.96z M1142.17,461.69c-33.76-11.13-67.41-22.57-101.06-34c-0.51-0.17-0.88-0.77-1.78-1.58
			h146.04c-2.8,2.63-4.59,4.33-6.39,6.01c-9.85,9.17-19.61,18.46-29.65,27.4c-1.42,1.26-3.98,2.35-5.96,2.35
			C1142.94,461.87,1142.53,461.81,1142.17,461.69z M759.15,446.03c8.21-6.27,16.39-12.59,24.64-18.81c0.98-0.74,2.34-1.36,3.52-1.37
			c11.61-0.1,23.22-0.05,34.83-0.05c0.07,0.43,0.15,0.86,0.24,1.29c-20.91,6.65-41.83,13.31-62.74,19.96
			C759.48,446.71,759.31,446.38,759.15,446.03z M1214.95,427.13c0.04-0.45,0.07-0.9,0.1-1.35c11.21,0,22.43-0.06,33.64,0.06
			c1.61,0.02,3.52,0.52,4.78,1.46c8.29,6.14,16.43,12.47,24.16,19.73C1256.74,440.41,1235.84,433.77,1214.95,427.13z M711.64,679.62
			h8.06c-38.37-36.45-76.94-73.09-116.07-110.27c12.9,0,23.89-0.12,34.87,0.14c1.6,0.03,3.5,1.6,4.66,2.96
			c30.34,35.7,60.64,71.43,90.95,107.16h7.12c-29.53-34.7-58.89-69.57-88.34-104.34c-1.36-1.59-2.6-3.28-4.72-5.96
			c20.69,0,39.82-0.19,58.94,0.23c2.49,0.05,5.73,2.63,7.24,4.95c22.89,34.99,45.67,70.05,68.44,105.11h6.59
			c-15.9-24.46-31.81-48.92-47.71-73.39c-0.56-0.87-1.05-1.76-1.59-2.65l0.9-0.46c22.38,25.5,44.75,51,67.12,76.5h7.34
			c-32.11-36.6-64.34-73.34-96.77-110.31h6.74c37.17,0.01,74.34,0.06,111.52-0.07c3.96-0.02,6.21,0.93,7.91,4.83
			c15.24,35.19,30.49,70.37,45.76,105.55h5.92c-15.88-36.55-31.79-73.15-47.74-109.86h166.62c-5.52,36.69-11.02,73.3-16.52,109.86
			h5.46c4.34-28.83,8.68-57.67,13.02-86.51c0.18-1.16,0.5-2.28,1.95-3.35c1.91,12.54,3.83,25.07,5.72,37.61
			c2.61,17.42,5.23,34.84,7.84,52.26h5.49c-5.5-36.6-11.01-73.25-16.53-109.97h166.67c-15.96,36.73-31.89,73.37-47.79,109.97h5.92
			c15.2-35,30.42-70.01,45.62-105.02c1.32-3.07,2.45-5.44,6.83-5.41c28.69,0.17,57.38,0.16,86.08,0.15c9.57,0,19.13,0,28.7,0
			c1,0,1.99,0.13,4.41,0.29c-32.28,36.79-64.42,73.43-96.48,109.98h7.29c21.64-24.68,43.28-49.37,64.92-74.06
			c0.81-0.93,1.21-2.21,1.8-3.32c0.5,0.45,0.99,0.9,1.49,1.36c-13.31,20.47-26.64,40.97-39.94,61.45
			c-3.16,4.86-6.31,9.72-9.46,14.57h6.54c22.76-34.99,45.53-69.98,68.15-105.06c2.56-3.95,5.22-5.42,9.91-5.35
			c18.41,0.29,36.83,0.12,56.39,0.12c-1.87,2.54-2.99,4.26-4.32,5.82c-29.51,34.79-58.94,69.66-88.45,104.47h7.01
			c29.59-34.9,59.19-69.8,88.69-104.78c3.43-4.05,6.82-5.87,12.13-5.64c9.23,0.41,18.5,0.12,29.68,0.12
			c-39.13,37.17-77.72,73.83-116.09,110.29h8.03c37.41-35.54,74.83-71.09,112.24-106.63c7.02-6.66,6.99-6.68-1.01-12.8
			c-59.25-45.24-118.46-90.55-177.87-135.6c-3.3-2.51-8.16-4.15-12.3-4.16c-75.89-0.25-151.77-0.18-227.66-0.18
			c-75.67,0-151.33,0.05-227.01-0.11c-0.03,0-0.05,0-0.08,0c-5.72,0-10.2,1.49-14.74,4.98c-59.33,45.51-118.78,90.86-178.2,136.26
			c-6.32,4.82-6.34,5.18-0.54,10.68C636.15,607.91,673.89,643.76,711.64,679.62z"/>
	</defs>
	<clipPath id="SVGID_5_">
		<use xlink:href="#SVGID_4_"  style="overflow:visible;"/>
	</clipPath>
	<linearGradient id="SVGID_6_" gradientUnits="userSpaceOnUse" x1="1441.0601" y1="549.8732" x2="595.64" y2="549.8734">
		<stop  offset="0" style="stop-color:#A2195B"/>
		<stop  offset="0.54" style="stop-color:#F39200"/>
		<stop  offset="1" style="stop-color:#2D2E83"/>
	</linearGradient>
	<rect x="592.6" y="420.13" class="st4" width="852.23" height="259.49"/>
</g>
<path class="st3" d="M3178.64,589.24V380.71h20.9v120.12l96.66-120.12h26.51l-82.17,102.03l81.61,106.51h-25.95l-69.59-89.85
	l-27.07,33.63v56.22H3178.64z M3346.49,589.24V380.15h114.12v19.22h-93.21v75.2h90.17v18.58h-90.17v77.44h93.21v18.66H3346.49z
	 M3518.51,570.58l86.73-0.57v19.22h-107.63V380.15h20.91V570.58z M3649.29,570.58l86.73-0.57v19.22h-107.63V380.15h20.91V570.58z
	 M3759.16,589.24V380.15h114.12v19.22h-93.21v75.2h90.17v18.58h-90.17v77.44h93.21v18.66H3759.16z M3931.18,589.24h-20.91V380.15
	h28.27l117,173.21V380.15h20.9v209.09h-20.9l-124.37-183.63V589.24z M4173.66,380.15c13.45,0,25.14,2.24,35,6.8
	c9.85,4.57,17.45,10.81,22.82,18.66c5.28,7.85,8.25,16.58,8.81,26.27c0,6.97-0.72,13.05-2.24,18.34
	c-1.52,5.37-3.84,10.25-7.12,14.74c-3.28,4.49-7.45,8.73-12.66,12.66c11.29,5.68,19.7,12.81,25.23,21.38
	c5.53,8.57,8.33,19.94,8.33,34.03c0,9.53-2.72,18.66-8.09,27.31c-5.36,8.73-13.21,15.7-23.46,20.99
	c-10.26,5.28-22.1,7.93-35.64,7.93h-65.27V380.15H4173.66z M4140.27,399.36v70.07h33.95c12.57,0,23.3-2.97,32.27-8.89
	c8.97-5.85,13.45-15.06,13.45-27.55c-0.8-11.45-5.28-19.94-13.53-25.47c-8.25-5.45-18.9-8.17-31.95-8.17H4140.27z M4140.27,488.42
	v82.17h38.12c34.68,0,52.06-14.02,52.06-42.12c0-8.73-2.24-16.02-6.81-22.02c-4.57-6.01-10.97-10.49-19.38-13.53
	c-8.41-2.97-18.1-4.49-29.23-4.49H4140.27z M4281.53,589.24V380.15h114.12v19.22h-93.21v75.2h90.17v18.58h-90.17v77.44h93.21v18.66
	H4281.53z M4432.65,589.24V380.15h56.22c17.38,0,31.71,2,43,6.09c11.29,4.08,19.86,9.37,25.79,15.78
	c5.93,6.49,10.01,13.22,12.33,20.26c2.32,7.12,3.77,14.74,4.49,22.9c0,11.77-2.64,22.66-7.93,32.75
	c-5.37,10.09-12.74,18.1-22.1,24.02c-9.45,6.01-20.1,8.97-31.87,8.97l59.1,78.32h-26.27l-71.27-94.9h17.54
	c12.49,0,23.39-1.84,32.75-5.53c9.29-3.61,16.5-8.97,21.54-16.1c5.05-7.12,7.61-15.54,7.61-25.31c0-10.09-2.72-18.74-8.17-26.03
	c-5.53-7.29-12.73-12.74-21.62-16.5c-8.89-3.68-18.26-5.53-28.11-5.53h-42.12v189.88H4432.65z M4595.3,485.06
	c0.24-16.74,3.45-31.87,9.77-45.33c6.25-13.37,14.66-24.75,25.15-34.04c10.49-9.21,22.1-16.33,35-21.22
	c12.81-4.88,25.78-7.45,38.92-7.68c10.25,0,20.34,1.2,30.35,3.68c10.01,2.49,19.54,6.17,28.59,11.05
	c9.05,4.97,17.3,11.22,24.58,18.66c7.29,7.53,13.06,16.1,17.38,25.7h-24.35c-4.88-8.41-11.29-15.61-19.38-21.54
	c-8.09-5.85-16.97-10.33-26.74-13.3c-9.85-2.96-19.78-4.49-29.87-4.49c-13.53,0.4-25.87,3.2-36.84,8.25
	c-11.05,5.12-20.42,11.93-28.11,20.34c-7.76,8.49-13.61,17.94-17.7,28.27c-4.09,10.41-6.24,20.98-6.32,31.64
	c0,17.22,4.48,32.35,13.53,45.48c8.97,13.13,20.42,23.39,34.27,30.67c13.85,7.37,27.55,11.37,41.16,11.93
	c10.49,0,21.94-2.16,34.2-6.49c12.25-4.24,23.38-11.05,33.31-20.42c9.93-9.29,16.58-20.82,20.02-34.68h-116.36v-18.98h141.82
	c-2,16.34-6.41,30.83-13.29,43.56c-6.89,12.74-15.46,23.22-25.79,31.47c-10.33,8.33-21.78,14.58-34.27,18.74
	c-12.49,4.16-25.55,6.24-39.08,6.24c-14.33-0.08-28.11-2.96-41.32-8.49c-13.22-5.53-25.06-13.22-35.4-23.06
	c-10.41-9.85-18.58-21.38-24.43-34.43C4598.26,513.56,4595.3,499.71,4595.3,485.06z M4850.2,589.24V380.15h114.12v19.22h-93.21v75.2
	h90.17v18.58h-90.17v77.44h93.21v18.66H4850.2z M5001.31,589.24V380.15h56.22c17.38,0,31.71,2,43,6.09
	c11.29,4.08,19.86,9.37,25.79,15.78c5.93,6.49,10.01,13.22,12.33,20.26c2.32,7.12,3.77,14.74,4.49,22.9
	c0,11.77-2.64,22.66-7.93,32.75c-5.37,10.09-12.74,18.1-22.1,24.02c-9.45,6.01-20.1,8.97-31.87,8.97l59.1,78.32h-26.27l-71.27-94.9
	h17.54c12.49,0,23.39-1.84,32.75-5.53c9.29-3.61,16.5-8.97,21.54-16.1c5.05-7.12,7.61-15.54,7.61-25.31
	c0-10.09-2.72-18.74-8.17-26.03c-5.53-7.29-12.73-12.74-21.62-16.5c-8.89-3.68-18.26-5.53-28.11-5.53h-42.12v189.88H5001.31z
	 M3171.03,809.01c2.08-18.58,8.41-35,18.98-49.17c10.49-14.18,23.7-25.06,39.48-32.68c15.78-7.61,32.35-11.37,49.73-11.37
	c9.45,0,18.74,1.12,27.79,3.44c9.05,2.32,17.7,5.76,25.95,10.41c8.25,4.73,15.93,10.57,23.06,17.7
	c7.12,7.12,13.37,15.53,18.74,25.22h-23.22c-6.01-7.93-12.97-14.57-20.74-20.02c-7.77-5.37-16.01-9.37-24.58-12.01
	c-8.65-2.57-17.3-3.84-25.87-3.84c-11.45,0-22.58,2.08-33.23,6.16c-10.65,4.16-20.18,10.09-28.59,17.86
	c-8.41,7.76-15.05,17.14-19.94,28.03c-4.88,10.97-7.28,22.91-7.28,35.88c0.24,16.66,4.48,31.63,12.81,44.93
	c8.25,13.37,19.14,23.7,32.68,31.15c13.53,7.45,27.87,11.22,43,11.45c8.89-0.24,17.7-1.76,26.51-4.57
	c8.73-2.8,17.06-6.97,24.99-12.65c7.93-5.61,14.98-12.65,21.14-21.22h23.14c-7.6,12.97-16.41,23.78-26.58,32.43
	c-10.17,8.65-21.14,15.06-32.83,19.22c-11.7,4.16-23.79,6.24-36.36,6.24c-13.85,0-27.39-2.56-40.44-7.68
	c-13.13-5.12-24.9-12.49-35.39-22.1c-10.49-9.61-18.74-21.14-24.75-34.68c-6.01-13.45-9.05-28.11-9.05-44.04
	C3170.15,818.38,3170.47,813.66,3171.03,809.01z M3400.07,821.75c0.24-13.06,3.05-25.87,8.33-38.44
	c5.29-12.58,12.81-23.95,22.66-34.2c9.77-10.26,21.39-18.34,34.76-24.35c13.37-6.01,27.95-8.97,43.64-8.97
	c20.1,0,38.76,4.88,55.82,14.57c17.06,9.69,30.59,23.06,40.6,39.96c9.93,16.9,14.9,35.56,14.9,55.9
	c-0.24,15.46-3.6,29.79-10.09,42.85c-6.49,13.13-15.14,24.43-25.95,33.79c-10.81,9.45-22.91,16.66-36.28,21.7
	c-13.37,5.05-26.99,7.6-40.68,7.6c-13.29-0.4-26.35-3.28-39.16-8.57c-12.89-5.28-24.5-12.74-34.84-22.43
	c-10.33-9.68-18.58-21.3-24.58-34.83C3403.11,852.82,3400.07,838,3400.07,821.75z M3420.97,820.62c0.32,15.94,3.28,29.71,8.81,41.33
	c5.53,11.69,12.73,21.22,21.62,28.51c8.89,7.29,18.34,12.66,28.51,16.02c10.17,3.44,20.02,5.12,29.55,5.12
	c9.85-0.16,19.86-1.92,30.03-5.2c10.17-3.28,19.78-8.33,28.67-15.3c8.89-6.97,16.26-15.86,21.94-26.83
	c5.69-10.89,8.97-23.79,9.77-38.6c0-17.37-4.24-32.99-12.73-46.85c-8.57-13.78-19.7-24.43-33.56-31.95
	c-13.85-7.53-28.43-11.29-43.56-11.29c-12.01,0-23.38,2.4-34.2,7.29c-10.81,4.89-20.42,11.45-28.67,19.78
	c-8.33,8.33-14.74,17.54-19.3,27.71C3423.29,800.53,3420.97,810.62,3420.97,820.62z M3726.09,719.16h23.22l89.77,209.09h-22.58
	l-30.75-70.07h-96.66l-30.19,70.07h-22.66L3726.09,719.16z M3737.7,743.5l-40.68,95.54h81.04L3737.7,743.5z M3855.26,809.01
	c2.08-18.58,8.41-35,18.98-49.17c10.49-14.18,23.7-25.06,39.48-32.68c15.78-7.61,32.35-11.37,49.73-11.37
	c9.45,0,18.74,1.12,27.79,3.44c9.05,2.32,17.7,5.76,25.95,10.41c8.25,4.73,15.93,10.57,23.06,17.7
	c7.12,7.12,13.37,15.53,18.74,25.22h-23.22c-6.01-7.93-12.97-14.57-20.74-20.02c-7.77-5.37-16.01-9.37-24.58-12.01
	c-8.65-2.57-17.3-3.84-25.87-3.84c-11.45,0-22.58,2.08-33.23,6.16c-10.65,4.16-20.18,10.09-28.59,17.86
	c-8.41,7.76-15.05,17.14-19.94,28.03c-4.88,10.97-7.28,22.91-7.28,35.88c0.24,16.66,4.48,31.63,12.81,44.93
	c8.25,13.37,19.14,23.7,32.68,31.15c13.53,7.45,27.87,11.22,43,11.45c8.89-0.24,17.7-1.76,26.51-4.57
	c8.73-2.8,17.06-6.97,24.99-12.65c7.93-5.61,14.98-12.65,21.14-21.22h23.14c-7.6,12.97-16.41,23.78-26.58,32.43
	c-10.17,8.65-21.14,15.06-32.83,19.22c-11.7,4.16-23.79,6.24-36.36,6.24c-13.85,0-27.39-2.56-40.44-7.68
	c-13.13-5.12-24.9-12.49-35.39-22.1c-10.49-9.61-18.74-21.14-24.75-34.68c-6.01-13.45-9.05-28.11-9.05-44.04
	C3854.37,818.38,3854.7,813.66,3855.26,809.01z M4093.1,928.25V719.16H4114v91.53h108.75v-91.53h20.34v209.09h-20.34v-98.26H4114
	v98.26h-23.14H4093.1z M4307.24,928.25h-20.91V719.16h20.91V928.25z M4371.39,928.25h-20.91V719.16h28.27l117,173.21V719.16h20.9
	v209.09h-20.9l-124.37-183.63V928.25z M4550.77,824.07c0.24-16.74,3.45-31.87,9.77-45.33c6.25-13.37,14.66-24.75,25.15-34.04
	c10.49-9.21,22.1-16.34,35-21.22c12.81-4.88,25.78-7.45,38.92-7.68c10.25,0,20.34,1.2,30.35,3.68c10.01,2.49,19.54,6.17,28.59,11.05
	c9.05,4.97,17.3,11.22,24.58,18.66c7.29,7.53,13.06,16.1,17.38,25.7h-24.35c-4.88-8.41-11.29-15.61-19.38-21.54
	c-8.09-5.85-16.97-10.33-26.74-13.3c-9.85-2.96-19.78-4.49-29.87-4.49c-13.53,0.4-25.87,3.2-36.84,8.25
	c-11.05,5.12-20.42,11.93-28.11,20.34c-7.76,8.49-13.61,17.94-17.7,28.27c-4.08,10.41-6.24,20.98-6.32,31.64
	c0,17.22,4.48,32.35,13.53,45.48c8.97,13.13,20.42,23.39,34.27,30.67c13.85,7.37,27.55,11.37,41.16,11.93
	c10.49,0,21.94-2.16,34.19-6.49c12.25-4.24,23.38-11.05,33.31-20.42c9.93-9.29,16.58-20.82,20.02-34.68h-116.35V831.6h141.82
	c-2,16.33-6.41,30.83-13.29,43.56c-6.89,12.74-15.46,23.22-25.79,31.47c-10.33,8.33-21.78,14.58-34.27,18.74
	c-12.49,4.16-25.55,6.24-39.08,6.24c-14.33-0.08-28.11-2.96-41.32-8.49c-13.22-5.53-25.06-13.22-35.4-23.06
	c-10.41-9.85-18.58-21.38-24.43-34.43C4553.73,852.58,4550.77,838.72,4550.77,824.07z"/>
<path class="st3" d="M3170.15,1145.75c0-10.14,1.15-19.71,3.46-28.71c2.31-9.04,5.81-17.53,10.49-25.48v-0.03
	c4.61-7.82,9.96-14.74,16.04-20.78c6.13-6.08,12.94-11.22,20.43-15.42c7.45-4.18,15.16-7.33,23.1-9.44
	c7.96-2.12,16.07-3.18,24.33-3.18c6.92,0,13.77,0.69,20.52,2.05c6.79,1.37,13.26,3.39,19.38,6.03c6.15,2.65,11.9,5.88,17.24,9.65
	c5.39,3.81,10.35,8.16,14.87,13.02c4.49,4.83,8.5,10.06,11.98,15.64c3.43,5.5,6.38,11.41,8.81,17.69
	c2.45,6.31,4.26,12.81,5.45,19.47c1.2,6.74,1.79,13.7,1.79,20.85v92.78l-0.03,0.17c-0.17,7.78-1,15.13-2.46,22.02
	c-1.49,7.04-3.66,13.71-6.46,19.96l-0.03,0.07c-2.83,6.21-6.15,11.95-9.95,17.24c-3.81,5.3-8.13,10.14-12.94,14.5
	c-4.8,4.34-9.84,8.1-15.12,11.32c-5.34,3.25-10.96,5.98-16.85,8.2h-0.04c-5.91,2.2-11.88,3.83-17.9,4.91
	c-6.15,1.1-12.23,1.65-18.26,1.65l-0.03-0.03c-7.07-0.05-13.82-0.77-20.26-2.15c-6.6-1.42-12.94-3.51-18.99-6.26l0.01-0.01
	c-6.08-2.72-11.7-5.92-16.88-9.62c-5.24-3.74-10.03-7.95-14.39-12.66c-4.4-4.74-8.31-9.82-11.69-15.24
	c-3.36-5.37-6.2-11.07-8.51-17.09c-2.35-6.01-4.12-12.15-5.3-18.45c-1.2-6.36-1.8-12.77-1.8-19.24V1145.75z M3214.27,1153.41v78.49
	c0,6.79,0.58,13.04,1.73,18.74c1.14,5.62,2.87,10.89,5.19,15.79l0.03,0.1c2.19,4.78,4.84,9,7.94,12.64c3.08,3.61,6.58,6.65,10.5,9.1
	l0.1,0.03c3.94,2.54,8.17,4.43,12.67,5.69c4.56,1.27,9.51,1.91,14.84,1.91c7.67,0,14.81-1.17,21.39-3.5
	c6.57-2.33,12.69-5.84,18.33-10.52l0.02,0.02c5.31-4.41,9.35-9.96,12.1-16.61c2.88-6.95,4.39-15.15,4.55-24.57h-0.03v-89.56
	c0-7.08-0.59-13.62-1.79-19.62c-1.17-5.87-2.91-11.24-5.22-16.12l-0.01,0.01c-2.29-4.81-5.05-9.02-8.27-12.64
	c-3.17-3.56-6.79-6.55-10.84-8.97l-0.01,0.01c-4.17-2.43-8.68-4.28-13.52-5.51c-4.9-1.25-10.19-1.88-15.86-1.89
	c-17.94,1.3-31.28,7.24-40.01,17.83c-9.1,11.04-13.73,27.43-13.87,49.17H3214.27z M3402.18,1322.57l105.97-233.99h-123.12v-41.53
	h173.67v34.66c-38.02,84.38-76.07,168.75-114.1,253.13h-47.97L3402.18,1322.57z M3604.94,1071.59c4.32-4.48,9.13-8.49,14.41-12.03
	c5.29-3.54,11.04-6.59,17.22-9.14c6.13-2.53,12.41-4.45,18.84-5.74c6.52-1.31,13.05-1.98,19.57-1.98c6.97,0,13.74,0.72,20.33,2.16
	c6.59,1.45,12.99,3.63,19.2,6.57c6.13,2.91,11.83,6.35,17.11,10.29c5.29,3.95,10.21,8.45,14.74,13.49l0.03,0.07
	c4.44,5.01,8.42,10.38,11.9,16.12c3.48,5.73,6.42,11.7,8.79,17.91v0.03c2.39,6.28,4.18,12.71,5.38,19.26
	c1.22,6.67,1.83,13.33,1.83,19.94c0,11.44-1.55,22.31-4.66,32.64c-3.1,10.3-7.77,20.03-14.02,29.23l0.03,0.02l-82.94,124.41h-53.27
	l60.04-87.46c-3.54,0.55-7.17,0.94-10.92,1.16h-0.71c-9.07-0.24-17.67-1.71-25.79-4.42c-8.12-2.71-15.77-6.68-22.98-11.92
	c-7.07-5.09-13.41-10.96-19-17.61c-5.56-6.61-10.33-13.92-14.28-21.93c-3.92-7.92-6.97-16.02-9.14-24.26
	c-2.17-8.27-3.46-16.72-3.85-25.29v-0.61c0.4-13.71,3.32-26.51,8.75-38.41C3586.95,1092.31,3594.75,1081.48,3604.94,1071.59z
	 M3646.5,1093.8c-9.08,6.94-15.97,14.72-20.64,23.33c-4.67,8.61-7.2,18.14-7.56,28.57c0.2,5.14,0.98,10.09,2.33,14.87
	c1.37,4.83,3.31,9.43,5.82,13.79l0.07,0.07c2.5,4.44,5.41,8.4,8.74,11.87c3.39,3.54,7.21,6.62,11.43,9.23l0.1,0.03
	c4.14,2.63,8.51,4.63,13.09,6c4.63,1.38,9.45,2.15,14.45,2.31c4.76-0.16,9.46-0.82,14.08-1.97c4.71-1.17,9.33-2.86,13.85-5.06
	l0,0.01c4.23-2.07,8.04-4.65,11.44-7.76c3.37-3.08,6.39-6.79,9.07-11.14l0.02,0.01c2.57-4.2,4.5-8.88,5.8-14.03
	c1.33-5.29,1.99-11.11,1.99-17.46c0-5.9-0.61-11.4-1.82-16.49c-1.22-5.11-3.06-9.96-5.51-14.54c-2.42-4.53-5.3-8.6-8.66-12.2
	c-3.31-3.55-7.08-6.63-11.31-9.21c-4.18-2.51-8.64-4.41-13.38-5.69c-4.71-1.28-9.68-1.92-14.91-1.92c-4.74,0-9.5,0.62-14.26,1.88
	C3656.02,1089.53,3651.28,1091.37,3646.5,1093.8z M3908.98,1322.57l105.97-233.99h-123.12v-41.53h173.67v34.66
	c-38.02,84.38-76.08,168.75-114.1,253.13h-47.97L3908.98,1322.57z M4111.74,1322.57l105.96-233.99h-123.12l0-41.53h173.67v34.66
	c-38.02,84.38-76.08,168.75-114.1,253.13h-47.97L4111.74,1322.57z M4376.58,1088.58h-45.67v-41.53h90.09
	c-0.01,95.93,0,191.86,0,287.79h-44.42V1088.58z M4618.54,1322.57l105.96-233.99h-123.12v-41.53h173.67v34.66
	c-38.02,84.38-76.07,168.75-114.1,253.13h-47.97L4618.54,1322.57z M4821.31,1322.57l105.96-233.99h-123.12v-41.53h173.67v34.66
	c-38.02,84.38-76.07,168.75-114.1,253.13h-47.97L4821.31,1322.57z M5125.35,1322.57l105.96-233.99h-123.12v-41.53h173.67v34.66
	c-38.02,84.38-76.07,168.75-114.1,253.13h-47.97L5125.35,1322.57z M5328.11,1322.57l105.97-233.99h-123.12v-41.53h173.67v34.66
	c-38.02,84.38-76.07,168.75-114.1,253.13h-47.97L5328.11,1322.57z"/>
<rect class="st5" width="5669.29" height="1417.32"/>
</svg>
