<?xml version="1.0" standalone="no"?>
<!DOCTYPE svg PUBLIC "-//W3C//DTD SVG 20010904//EN"
 "http://www.w3.org/TR/2001/REC-SVG-20010904/DTD/svg10.dtd">
<svg version="1.0" xmlns="http://www.w3.org/2000/svg"
 width="760.000000pt" height="760.000000pt" viewBox="0 0 760.000000 760.000000"
 preserveAspectRatio="xMidYMid meet">
<metadata>
Created by potrace 1.11, written by Peter Selinger 2001-2013
</metadata>
<g transform="translate(0.000000,760.000000) scale(0.100000,-0.100000)"
fill="#000000" stroke="none">
<path d="M1807 6829 c-42 -11 -67 -29 -556 -403 -267 -204 -609 -466 -760
-581 -150 -115 -275 -215 -278 -222 -7 -19 -17 -10 506 -507 l464 -441 -497
-3 c-274 -1 -496 -6 -494 -11 5 -14 3551 -4081 3558 -4081 4 0 501 534 1106
1187 604 652 1456 1571 1892 2042 l793 856 -611 5 -610 5 485 460 c267 253
487 466 490 472 2 7 -6 22 -18 34 -41 38 -1520 1162 -1546 1175 -21 10 -428
13 -1964 16 -1065 2 -1948 0 -1960 -3z m1773 -38 c0 -6 -5 -13 -11 -16 -32
-20 -864 -292 -880 -288 -11 3 -68 51 -127 107 -59 55 -129 120 -155 142 -26
23 -47 44 -47 48 0 3 161 7 358 9 196 1 471 3 610 5 152 1 252 -2 252 -7z
m-1475 -10 c-15 -14 -515 -169 -515 -160 0 5 46 44 103 88 l102 80 160 1 c95
0 155 -4 150 -9z m1623 -836 l-3 -287 -171 134 c-383 299 -824 651 -821 654 5
5 699 245 862 298 l130 42 3 -277 c1 -153 1 -407 0 -564z m1407 835 c-3 -6
-74 -73 -156 -150 -113 -104 -157 -140 -176 -140 -28 0 -862 277 -877 291 -6
5 248 9 603 9 407 0 610 -3 606 -10z m631 -38 c88 -68 149 -122 139 -122 -17
0 -500 153 -509 162 -6 4 61 8 150 8 l159 0 61 -48z m-3293 -118 c92 -85 167
-159 167 -163 0 -9 -1384 -791 -1399 -791 -5 0 7 60 26 133 171 652 183 692
206 713 13 11 68 35 123 52 54 18 223 72 374 121 151 49 289 90 305 90 25 0
57 -25 198 -155z m1535 85 c114 -39 326 -111 472 -161 146 -49 271 -93 279
-98 9 -5 -141 -129 -482 -399 -273 -215 -499 -391 -502 -391 -3 0 -5 252 -5
560 0 493 2 560 15 560 8 0 109 -32 223 -71z m1507 -13 c143 -47 313 -102 379
-122 65 -21 127 -45 138 -54 16 -12 46 -114 129 -430 60 -227 107 -415 105
-418 -4 -4 -1391 770 -1405 784 -2 2 41 45 95 96 54 51 119 113 143 138 63 64
101 90 130 90 14 0 143 -38 286 -84z m-4230 -659 c-56 -213 -105 -390 -107
-393 -3 -2 -120 -3 -261 -2 l-256 3 357 397 c196 218 360 394 364 390 3 -4
-40 -182 -97 -395z m5216 -12 c173 -192 320 -358 328 -367 13 -17 0 -18 -246
-18 l-258 0 -103 388 c-56 213 -102 394 -102 402 0 19 9 10 381 -405z m-3376
60 c564 -438 562 -437 538 -446 -11 -4 -315 -4 -675 -1 l-655 7 154 335 c84
184 165 359 178 389 19 39 28 51 38 44 6 -5 197 -153 422 -328z m1868 -52 c97
-212 176 -388 174 -389 -6 -6 -1337 -6 -1338 1 0 6 971 773 981 774 3 0 85
-173 183 -386z m-2528 -8 c-91 -198 -173 -366 -182 -372 -13 -10 -120 -13
-457 -12 -243 0 -458 3 -478 7 -37 7 -34 9 218 151 141 79 436 247 657 372
221 125 403 224 405 220 1 -4 -72 -169 -163 -366z m3125 -30 c327 -184 599
-340 604 -345 7 -7 -162 -10 -475 -10 -450 0 -487 1 -501 18 -27 31 -328 696
-328 723 0 6 24 -3 53 -20 28 -16 320 -181 647 -366z m-4377 331 c-8 -14 -530
-593 -589 -653 l-32 -33 -130 0 c-72 0 -133 4 -136 9 -5 8 869 688 887 690 4
1 4 -5 0 -13z m5551 -346 c234 -179 426 -328 426 -333 0 -4 -64 -6 -142 -5
l-142 3 -114 125 c-97 106 -410 460 -476 540 l-21 24 22 -14 c12 -8 214 -161
447 -340z m-3039 -390 c3 -5 -10 -115 -29 -242 -110 -726 -103 -668 -82 -668
9 0 17 24 25 78 6 42 16 104 21 137 5 33 23 152 40 265 37 253 39 260 54 260
8 0 21 -66 41 -197 76 -523 80 -548 98 -551 9 -2 17 0 17 4 0 4 -18 127 -40
273 -72 470 -89 585 -92 616 l-3 30 695 -4 c382 -1 696 -4 698 -6 2 -2 -85
-206 -192 -454 -108 -249 -196 -454 -196 -456 0 -3 8 -5 19 -5 21 0 7 -29 254
540 l163 375 517 3 c284 1 517 0 517 -3 0 -3 -175 -204 -388 -448 -213 -243
-391 -448 -396 -454 -5 -9 0 -13 18 -13 19 0 78 61 302 318 153 174 279 319
281 321 2 2 5 2 8 -1 3 -3 -86 -147 -198 -319 -173 -267 -201 -315 -184 -317
11 -2 25 2 32 10 7 7 140 209 294 448 155 239 289 441 298 448 13 9 83 12 270
12 239 0 253 -1 244 -17 -5 -10 -176 -215 -380 -456 -204 -241 -371 -441 -371
-443 0 -2 11 -4 24 -4 19 0 97 86 401 445 207 245 387 452 400 461 18 11 52
14 166 12 l143 -3 -479 -455 c-446 -424 -476 -455 -450 -460 26 -5 -53 -82
-1070 -1050 -605 -575 -1173 -1116 -1264 -1203 -162 -154 -195 -177 -224 -160
-8 4 -560 528 -1228 1163 -668 635 -1236 1176 -1264 1202 -50 47 -50 48 -22
48 16 0 27 4 25 8 -1 4 -199 194 -438 421 -239 228 -453 431 -475 452 l-40 39
154 0 154 0 37 -42 c21 -24 197 -230 390 -458 l353 -415 -57 -5 -56 -5 246
-235 c234 -223 331 -310 293 -264 -9 10 -107 127 -219 259 -189 223 -201 240
-178 245 23 5 -5 40 -359 460 l-385 455 251 3 c150 1 259 -2 270 -7 10 -6 150
-213 312 -461 249 -382 297 -450 317 -450 16 0 21 4 16 13 -4 6 -94 146 -201
310 -106 164 -193 304 -193 310 0 12 3 9 329 -363 l233 -265 -76 -5 -76 -5
406 -625 c560 -864 520 -809 744 -1018 86 -81 272 -258 415 -394 142 -136 260
-246 263 -244 4 5 -282 668 -308 714 -17 29 -1227 1418 -1321 1517 -44 46 -47
55 -19 55 11 0 20 3 20 8 -1 4 -178 210 -395 457 l-395 450 511 3 c312 1 516
-2 523 -7 6 -6 99 -212 206 -460 150 -347 199 -451 213 -451 9 0 17 4 17 8 0
5 -86 206 -191 448 -105 241 -193 445 -196 451 -4 10 89 13 433 16 242 1 555
3 696 5 162 1 259 -2 263 -8z"/>
<path d="M1451 4653 c9 -10 78 -92 155 -183 77 -91 208 -246 291 -345 83 -99
197 -231 254 -294 112 -123 428 -425 436 -417 3 3 -177 285 -399 628 l-405
623 -173 3 c-165 2 -173 2 -159 -15z"/>
<path d="M2072 4653 c22 -26 852 -974 1042 -1190 87 -101 161 -181 163 -179 2
2 -131 313 -295 692 l-298 689 -314 3 c-299 2 -313 1 -298 -15z"/>
<path d="M2740 4661 c0 -12 610 -1415 620 -1425 5 -5 11 6 14 25 6 37 10 59
55 364 17 110 57 381 91 602 33 221 60 411 60 423 0 20 -4 20 -420 20 -231 0
-420 -4 -420 -9z"/>
<path d="M3630 4657 c0 -7 -49 -342 -110 -745 -60 -403 -110 -747 -110 -765 0
-37 329 -809 343 -804 9 3 14 14 214 475 l135 314 -46 306 c-46 303 -118 780
-157 1042 -11 74 -22 147 -25 163 l-6 27 -119 0 c-89 0 -119 -3 -119 -13z"/>
<path d="M3920 4661 c0 -5 16 -111 35 -237 45 -300 139 -927 161 -1076 10 -65
20 -118 24 -118 4 0 590 1335 628 1432 2 4 -188 8 -422 8 -238 0 -426 -4 -426
-9z"/>
<path d="M4522 3978 c-165 -381 -298 -695 -296 -698 3 -2 8 0 12 6 4 6 276
318 605 692 328 375 597 684 597 687 0 3 -139 5 -309 5 l-308 0 -301 -692z"/>
<path d="M4830 3892 l-681 -778 -159 -364 c-88 -200 -158 -366 -155 -368 4 -4
759 713 857 814 39 41 199 279 512 761 251 386 456 704 456 707 0 3 -33 6 -74
6 l-74 0 -682 -778z"/>
<path d="M5320 4048 c-222 -343 -408 -629 -414 -637 -31 -41 28 8 178 147 128
118 227 224 434 465 395 461 542 634 542 641 0 3 -76 6 -168 6 l-169 0 -403
-622z"/>
<path d="M5915 4416 c-118 -140 -215 -258 -215 -261 0 -7 205 186 444 417
l101 97 -57 1 -57 0 -216 -254z"/>
</g>
</svg>
